<?xml version="1.0" encoding="UTF-8" standalone="no"?>
<!-- Created with Inkscape (http://www.inkscape.org/) -->

<svg
   width="48"
   height="48"
   viewBox="0 0 48 48"
   version="1.1"
   id="svg1"
   xml:space="preserve"
   xmlns="http://www.w3.org/2000/svg"
   xmlns:svg="http://www.w3.org/2000/svg"
   xmlns:rdf="http://www.w3.org/1999/02/22-rdf-syntax-ns#"
   xmlns:cc="http://creativecommons.org/ns#"><defs
     id="defs1"><linearGradient
       id="swatch76"><stop
         style="stop-color:#000000;stop-opacity:1;"
         offset="0"
         id="stop76" /></linearGradient><linearGradient
       id="swatch75"><stop
         style="stop-color:#000000;stop-opacity:1;"
         offset="0"
         id="stop75" /></linearGradient><linearGradient
       id="swatch74"><stop
         style="stop-color:#000000;stop-opacity:0;"
         offset="0"
         id="stop74" /></linearGradient><linearGradient
       id="swatch64"><stop
         style="stop-color:#000000;stop-opacity:0;"
         offset="0"
         id="stop64" /></linearGradient><linearGradient
       id="swatch61"><stop
         style="stop-color:#000000;stop-opacity:1;"
         offset="0"
         id="stop61" /></linearGradient></defs><path
     style="baseline-shift:baseline;display:inline;overflow:visible;opacity:1;vector-effect:none;enable-background:accumulate;stop-color:#000000;stop-opacity:1"
     d="m 4.9996576,1.999859 c -1.64501,0 -3,1.35499 -3,3 v 38.001953 c 0,1.64501 1.35499,3 3,3 H 43.001607 c 1.64501,0 3,-1.35499 3,-3 V 4.999859 c 0,-1.64501 -1.35499,-3 -3,-3 z m 0,2 H 43.001607 c 0.56413,0 1,0.435871 1,1 v 38.001953 c 0,0.56413 -0.43587,1 -1,1 H 4.9996576 c -0.56413,0 -1,-0.43587 -1,-1 V 4.999859 c 0,-0.564129 0.43587,-1 1,-1 z"
     id="rect1-6" /><path
     style="baseline-shift:baseline;display:inline;overflow:visible;opacity:1;vector-effect:none;stroke-linejoin:round;paint-order:stroke fill markers;enable-background:accumulate;stop-color:#000000;stop-opacity:1"
     d="m 17.939668,15 v 2 h 18.060549 v -2 z"
     id="path10-8" /><path
     style="fill:#000000;fill-opacity:1;fill-rule:nonzero;stroke:none;stroke-width:2;stroke-linecap:square;stroke-linejoin:round;stroke-dasharray:none;stroke-opacity:1;paint-order:stroke fill markers"
     d="m 11.967098,16.000525 5.97228,3 v -6 z"
     id="path11-6" /><path
     style="baseline-shift:baseline;display:inline;overflow:visible;opacity:1;vector-effect:none;stroke-linejoin:round;paint-order:stroke fill markers;enable-background:accumulate;stop-color:#000000;stop-opacity:1"
     d="m 12.000218,31 v 2 h 17.999999 v -2 z"
     id="path14-81" /><path
     style="fill:#000000;fill-opacity:1;fill-rule:nonzero;stroke:none;stroke-width:2;stroke-linecap:square;stroke-linejoin:round;stroke-dasharray:none;stroke-opacity:1;paint-order:stroke fill markers"
     d="m 35.972297,32.000525 -5.97229,-3 v 6 z"
     id="path15-0" /><metadata
     id="metadata32"><rdf:RDF><cc:Work
         rdf:about="" /></rdf:RDF></metadata></svg>
