<?xml version="1.0" encoding="UTF-8" standalone="no"?>
<!-- Created with Inkscape (http://www.inkscape.org/) -->

<svg
   width="48"
   height="48"
   viewBox="0 0 48 48"
   version="1.1"
   id="svg1"
   xml:space="preserve"
   xmlns="http://www.w3.org/2000/svg"
   xmlns:svg="http://www.w3.org/2000/svg"
   xmlns:rdf="http://www.w3.org/1999/02/22-rdf-syntax-ns#"
   xmlns:cc="http://creativecommons.org/ns#"><defs
     id="defs1"><linearGradient
       id="swatch76"><stop
         style="stop-color:#000000;stop-opacity:1;"
         offset="0"
         id="stop76" /></linearGradient><linearGradient
       id="swatch75"><stop
         style="stop-color:#000000;stop-opacity:1;"
         offset="0"
         id="stop75" /></linearGradient><linearGradient
       id="swatch74"><stop
         style="stop-color:#000000;stop-opacity:0;"
         offset="0"
         id="stop74" /></linearGradient><linearGradient
       id="swatch64"><stop
         style="stop-color:#000000;stop-opacity:0;"
         offset="0"
         id="stop64" /></linearGradient><linearGradient
       id="swatch61"><stop
         style="stop-color:#000000;stop-opacity:1;"
         offset="0"
         id="stop61" /></linearGradient></defs><path
     style="baseline-shift:baseline;display:inline;overflow:visible;opacity:1;vector-effect:none;stroke-linecap:round;stroke-linejoin:round;stroke-dashoffset:2;enable-background:accumulate;stop-color:#000000;stop-opacity:1"
     d="m 27.203118,11.999392 c -3.96298,0.0108 -7.48687,2.34921 -9.59765,5.91211 -1.37516,-0.90384 -2.89161,-1.5395 -4.52539,-1.54493 a 1.3676968,1.3676968 0 0 0 -0.004,0 c -5.09426,6e-4 -9.07572,4.62738 -9.07617,10.10352 -6.7e-4,3.244003 1.39284,6.297033 3.81055,8.216803 0.31734,0.35631 0.66511,0.69671 1.06836,1.00586 a 1.3676968,1.3676968 0 0 0 0.83203,0.2832 H 40.05264 l -0.53125,-0.10742 c 0.52453,0.22156 0.77967,0.10817 0.95704,0.0644 0.17736,-0.0437 0.29187,-0.0941 0.40039,-0.14453 0.21703,-0.1009 0.39826,-0.21101 0.58007,-0.33398 0.33986,-0.22987 0.6191,-0.38995 0.97461,-0.92383 0.87427,-1.05522 1.20791,-2.33585 1.38086,-3.52149 0.17919,-1.22839 0.17563,-2.39098 0.17578,-3.08398 0,-3.630593 -2.53,-6.673323 -5.875,-7.046883 -1.57455,-5.16172 -5.84174,-8.87435 -10.908202,-8.8789 a 1.3676968,1.3676968 0 0 0 -0.004,0 z m 0.002,2.73633 h 0.006 c 3.989632,0.007 7.568792,3.08293 8.609372,7.69335 a 1.3676968,1.3676968 0 0 0 1.49024,1.05665 c 0.0556,-0.006 0.11879,-0.01 0.18164,-0.0137 1.99683,0.005 3.76172,1.89269 3.76172,4.453133 -1.5e-4,0.69362 -0.005,1.71675 -0.14649,2.68945 -0.14189,0.9727 -0.45903,1.8498 -0.79492,2.23047 a 1.3676968,1.3676968 0 0 0 -0.13867,0.18555 c 0.20541,-0.33305 -0.0616,0.0321 -0.24805,0.1582 -0.0394,0.0267 -0.0504,0.0309 -0.084,0.0508 H 10.240388 c -0.16312,-0.14649 -0.34618,-0.29506 -0.46679,-0.4375 a 1.3676968,1.3676968 0 0 0 -0.20703,-0.19726 c -1.73388,-1.34157 -2.8306,-3.64486 -2.83008,-6.134773 3.4e-4,-4.1712 2.91939,-7.36557 6.33789,-7.36719 1.45162,0.006 2.86726,0.58595 4.01758,1.69141 a 1.3676968,1.3676968 0 0 0 2.19726,-0.43555 c 1.54401,-3.50161 4.61621,-5.61155 7.91602,-5.62304 z"
     id="path268" /><metadata
     id="metadata32"><rdf:RDF><cc:Work
         rdf:about="" /></rdf:RDF></metadata></svg>
