<?xml version="1.0" encoding="UTF-8" standalone="no"?>
<!-- Created with Inkscape (http://www.inkscape.org/) -->

<svg
   width="48"
   height="48"
   viewBox="0 0 48 48"
   version="1.1"
   id="svg1"
   xml:space="preserve"
   xmlns="http://www.w3.org/2000/svg"
   xmlns:svg="http://www.w3.org/2000/svg"
   xmlns:rdf="http://www.w3.org/1999/02/22-rdf-syntax-ns#"
   xmlns:cc="http://creativecommons.org/ns#"><defs
     id="defs1"><linearGradient
       id="swatch76"><stop
         style="stop-color:#000000;stop-opacity:1;"
         offset="0"
         id="stop76" /></linearGradient><linearGradient
       id="swatch75"><stop
         style="stop-color:#000000;stop-opacity:1;"
         offset="0"
         id="stop75" /></linearGradient><linearGradient
       id="swatch74"><stop
         style="stop-color:#000000;stop-opacity:0;"
         offset="0"
         id="stop74" /></linearGradient><linearGradient
       id="swatch64"><stop
         style="stop-color:#000000;stop-opacity:0;"
         offset="0"
         id="stop64" /></linearGradient><linearGradient
       id="swatch61"><stop
         style="stop-color:#000000;stop-opacity:1;"
         offset="0"
         id="stop61" /></linearGradient></defs><g
     id="layer1"
     transform="translate(-350.42616,-400.1815)"><g
       style="fill:#000000"
       id="g132"
       transform="matrix(0.28781414,0,0,0.28781414,124.84148,4.2415714)" /><path
       id="path268"
       style="fill:none;fill-opacity:1;stroke:#000000;stroke-width:2.73512;stroke-linecap:round;stroke-linejoin:round;stroke-dasharray:none;stroke-dashoffset:2;stroke-opacity:1"
       d="m 377.6328,413.54871 c -3.8846,0.0106 -7.4318,2.50252 -9.1682,6.44044 -1.3867,-1.33263 -3.1445,-2.06684 -4.9627,-2.07288 -4.2568,5e-4 -7.7074,3.91105 -7.7078,8.73512 -6e-4,2.8874 1.2577,5.58861 3.3619,7.21671 0.2706,0.31957 0.5987,0.62804 0.9812,0.92128 h 30.3418 c 0.1804,0.0762 1.0963,-0.55342 1.2846,-0.85872 1.2846,-1.45586 1.2843,-4.4368 1.2846,-5.82342 0,-3.21615 -2.3007,-5.82334 -5.1385,-5.82341 -0.1092,0.005 -0.2195,0.0131 -0.3288,0.0256 -1.1627,-5.15148 -5.2563,-8.75649 -9.9481,-8.76071 z" /></g><metadata
     id="metadata32"><rdf:RDF><cc:Work
         rdf:about="" /></rdf:RDF></metadata></svg>
