<?xml version="1.0" encoding="UTF-8" standalone="no"?>
<!-- Created with Inkscape (http://www.inkscape.org/) -->

<svg
   width="48"
   height="48"
   viewBox="0 0 48 48"
   version="1.1"
   id="svg1"
   xml:space="preserve"
   xmlns="http://www.w3.org/2000/svg"
   xmlns:svg="http://www.w3.org/2000/svg"
   xmlns:rdf="http://www.w3.org/1999/02/22-rdf-syntax-ns#"
   xmlns:cc="http://creativecommons.org/ns#"><defs
     id="defs1"><linearGradient
       id="swatch76"><stop
         style="stop-color:#000000;stop-opacity:1;"
         offset="0"
         id="stop76" /></linearGradient><linearGradient
       id="swatch75"><stop
         style="stop-color:#000000;stop-opacity:1;"
         offset="0"
         id="stop75" /></linearGradient><linearGradient
       id="swatch74"><stop
         style="stop-color:#000000;stop-opacity:0;"
         offset="0"
         id="stop74" /></linearGradient><linearGradient
       id="swatch64"><stop
         style="stop-color:#000000;stop-opacity:0;"
         offset="0"
         id="stop64" /></linearGradient><linearGradient
       id="swatch61"><stop
         style="stop-color:#000000;stop-opacity:1;"
         offset="0"
         id="stop61" /></linearGradient></defs><path
     style="baseline-shift:baseline;display:inline;overflow:visible;opacity:1;vector-effect:none;stroke-width:1.01377;stroke-linecap:square;stroke-dashoffset:2;enable-background:accumulate;stop-color:#000000;stop-opacity:1"
     d="m 14.977321,6.9465624 -8.0249704,4.6332296 9.8e-4,9.26473 8.0232904,4.63225 8.02231,-4.63248 0.002,-9.26548 z m -1.8e-4,2.30907 6.02385,3.4778796 -5e-4,6.95469 -6.02368,3.47949 -6.0238504,-3.47787 -0.001,-6.95565 z"
     id="path259-9" /><path
     style="baseline-shift:baseline;display:inline;overflow:visible;opacity:1;vector-effect:none;stroke-width:1.01377;stroke-linecap:square;stroke-dashoffset:2;enable-background:accumulate;stop-color:#000000;stop-opacity:1"
     d="m 33.024618,6.9465624 -8.024967,4.6332296 9.8e-4,9.26473 8.023287,4.63225 8.02231,-4.63248 0.002,-9.26548 z m -1.8e-4,2.30907 6.02385,3.4778796 -5e-4,6.95469 -6.02368,3.47949 -6.023847,-3.47787 -10e-4,-6.95565 z"
     id="path259-9-9" /><path
     style="baseline-shift:baseline;display:inline;overflow:visible;opacity:1;vector-effect:none;stroke-linecap:square;stroke-dashoffset:2;enable-background:accumulate;stop-color:#000000;stop-opacity:1"
     d="m 33.734368,15.593142 -1.5,0.006 0.004,0.75 0.0234,5.20117 0.004,0.75 1.5,-0.006 -0.004,-0.75 -0.0234,-5.20117 z"
     id="path261-0-5" /><path
     style="baseline-shift:baseline;display:inline;overflow:visible;opacity:1;vector-effect:none;stroke-linecap:square;stroke-dashoffset:2;enable-background:accumulate;stop-color:#000000;stop-opacity:1"
     d="m 28.242188,12.548222 -0.785157,1.27734 0.638667,0.39258 4.4375,2.73047 0.63867,0.39257 0.78711,-1.27734 -0.63867,-0.39453 -4.43945,-2.72852 z"
     id="path262-1-7" /><path
     style="baseline-shift:baseline;display:inline;overflow:visible;opacity:1;vector-effect:none;stroke-linecap:square;stroke-dashoffset:2;enable-background:accumulate;stop-color:#000000;stop-opacity:1"
     d="m 37.740228,12.548222 -0.64062,0.38867 -4.50195,2.73047 -0.64063,0.38867 0.77734,1.2832 0.64063,-0.38867 4.50195,-2.73047 0.64063,-0.38867 z"
     id="path263-0-6" /><path
     style="baseline-shift:baseline;display:inline;overflow:visible;opacity:1;vector-effect:none;stroke-width:1.01377;stroke-linecap:square;stroke-dashoffset:2;enable-background:accumulate;stop-color:#000000;stop-opacity:1"
     d="m 24.000921,22.523422 -8.02497,4.63323 9.8e-4,9.264733 8.02329,4.63225 8.022307,-4.63248 0.002,-9.265483 z m -1.8e-4,2.30907 6.023847,3.477883 -5e-4,6.95469 -6.023677,3.47949 -6.02385,-3.47787 -0.001,-6.95565 z"
     id="path264" /><path
     style="baseline-shift:baseline;display:inline;overflow:visible;opacity:1;vector-effect:none;stroke-linecap:square;stroke-dashoffset:2;enable-background:accumulate;stop-color:#000000;stop-opacity:1"
     d="m 15.710941,15.593142 -1.5,0.006 0.004,0.75 0.0234,5.20117 0.004,0.75 1.5,-0.006 -0.004,-0.75 -0.0234,-5.20117 z"
     id="path6" /><path
     style="baseline-shift:baseline;display:inline;overflow:visible;opacity:1;vector-effect:none;stroke-linecap:square;stroke-dashoffset:2;enable-background:accumulate;stop-color:#000000;stop-opacity:1"
     d="m 10.218751,12.548222 -0.7851604,1.27734 0.6386804,0.39258 4.4375,2.73047 0.63867,0.39257 0.78711,-1.27734 -0.63868,-0.39453 -4.43945,-2.72852 z"
     id="path7" /><path
     style="baseline-shift:baseline;display:inline;overflow:visible;opacity:1;vector-effect:none;stroke-linecap:square;stroke-dashoffset:2;enable-background:accumulate;stop-color:#000000;stop-opacity:1"
     d="m 19.716801,12.548222 -0.64063,0.38867 -4.50195,2.73047 -0.64063,0.38867 0.77735,1.2832 0.64062,-0.38867 4.50196,-2.73047 0.64062,-0.38867 z"
     id="path8" /><path
     style="baseline-shift:baseline;display:inline;overflow:visible;opacity:1;vector-effect:none;stroke-linecap:square;stroke-dashoffset:2;enable-background:accumulate;stop-color:#000000;stop-opacity:1"
     d="m 24.734371,31.134155 -1.5,0.006 0.004,0.75 0.0234,5.20117 0.004,0.75 1.5,-0.006 -0.004,-0.75 -0.0234,-5.20117 z"
     id="path9" /><path
     style="baseline-shift:baseline;display:inline;overflow:visible;opacity:1;vector-effect:none;stroke-linecap:square;stroke-dashoffset:2;enable-background:accumulate;stop-color:#000000;stop-opacity:1"
     d="m 19.242191,28.087285 -0.78516,1.27929 0.63867,0.39258 4.4375,2.72852 0.63867,0.39453 0.78711,-1.2793 -0.63867,-0.39258 -4.43945,-2.72851 z"
     id="path33" /><path
     style="baseline-shift:baseline;display:inline;overflow:visible;opacity:1;vector-effect:none;stroke-linecap:square;stroke-dashoffset:2;enable-background:accumulate;stop-color:#000000;stop-opacity:1"
     d="m 28.740228,28.089235 -0.64062,0.38867 -4.501947,2.73047 -0.64063,0.38867 0.77734,1.28321 0.64063,-0.38868 4.501947,-2.73046 0.64063,-0.38868 z"
     id="path34" /><metadata
     id="metadata32"><rdf:RDF><cc:Work
         rdf:about="" /></rdf:RDF></metadata></svg>
