<?xml version="1.0" encoding="UTF-8" standalone="no"?>
<!-- Created with Inkscape (http://www.inkscape.org/) -->

<svg
   width="48"
   height="48"
   viewBox="0 0 48 48"
   version="1.1"
   id="svg1"
   xml:space="preserve"
   xmlns="http://www.w3.org/2000/svg"
   xmlns:svg="http://www.w3.org/2000/svg"
   xmlns:rdf="http://www.w3.org/1999/02/22-rdf-syntax-ns#"
   xmlns:cc="http://creativecommons.org/ns#"><defs
     id="defs1"><linearGradient
       id="swatch76"><stop
         style="stop-color:#000000;stop-opacity:1;"
         offset="0"
         id="stop76" /></linearGradient><linearGradient
       id="swatch75"><stop
         style="stop-color:#000000;stop-opacity:1;"
         offset="0"
         id="stop75" /></linearGradient><linearGradient
       id="swatch74"><stop
         style="stop-color:#000000;stop-opacity:0;"
         offset="0"
         id="stop74" /></linearGradient><linearGradient
       id="swatch64"><stop
         style="stop-color:#000000;stop-opacity:0;"
         offset="0"
         id="stop64" /></linearGradient><linearGradient
       id="swatch61"><stop
         style="stop-color:#000000;stop-opacity:1;"
         offset="0"
         id="stop61" /></linearGradient></defs><g
     id="layer1"
     transform="translate(-350.42616,-255.16042)"><g
       style="fill:#000000"
       id="g132"
       transform="matrix(0.28781414,0,0,0.28781414,124.84148,4.2415714)" /><path
       id="path67-4-8"
       style="stroke-width:1.00968;stroke-dasharray:3.02904, 3.02904"
       d="m 371.42615,265.13358 a 1.0000001,1.0000001 0 0 1 -1,1 1.0000001,1.0000001 0 0 1 -1,-1 1.0000001,1.0000001 0 0 1 1,-1 1.0000001,1.0000001 0 0 1 1,1 z" /><path
       id="circle114"
       style="stroke-width:1.00968;stroke-dasharray:3.02904, 3.02904"
       d="m 371.42615,270.13358 a 1.0000001,1.0000001 0 0 1 -1,1 1.0000001,1.0000001 0 0 1 -1,-1 1.0000001,1.0000001 0 0 1 1,-1 1.0000001,1.0000001 0 0 1 1,1 z" /><path
       id="circle115"
       style="stroke-width:1.00968;stroke-dasharray:3.02904, 3.02904"
       d="m 371.42615,275.13358 a 1.0000001,1.0000001 0 0 1 -1,1 1.0000001,1.0000001 0 0 1 -1,-1 1.0000001,1.0000001 0 0 1 1,-1 1.0000001,1.0000001 0 0 1 1,1 z" /><path
       id="circle117"
       style="stroke-width:1.00968;stroke-dasharray:3.02904, 3.02904"
       d="m 371.42615,280.13358 a 1.0000001,1.0000001 0 0 1 -1,1 1.0000001,1.0000001 0 0 1 -1,-1 1.0000001,1.0000001 0 0 1 1,-1 1.0000001,1.0000001 0 0 1 1,1 z" /><path
       id="circle119"
       style="stroke-width:1.00968;stroke-dasharray:3.02904, 3.02904"
       d="m 371.42615,285.13358 a 1.0000001,1.0000001 0 0 1 -1,1 1.0000001,1.0000001 0 0 1 -1,-1 1.0000001,1.0000001 0 0 1 1,-1 1.0000001,1.0000001 0 0 1 1,1 z" /><path
       id="circle121"
       style="stroke-width:1.00968;stroke-dasharray:3.02904, 3.02904"
       d="m 371.42615,290.13358 a 1.0000001,1.0000001 0 0 1 -1,1 1.0000001,1.0000001 0 0 1 -1,-1 1.0000001,1.0000001 0 0 1 1,-1 1.0000001,1.0000001 0 0 1 1,1 z" /><path
       id="circle123"
       style="stroke-width:1.00968;stroke-dasharray:3.02904, 3.02904"
       d="m 361.42615,265.16043 a 1.0000001,1.0000001 0 0 1 -1,1 1.0000001,1.0000001 0 0 1 -1,-1 1.0000001,1.0000001 0 0 1 1,-1 1.0000001,1.0000001 0 0 1 1,1 z" /><path
       id="circle125"
       style="stroke-width:1.00968;stroke-dasharray:3.02904, 3.02904"
       d="m 361.42615,270.21097 a 1.0000001,1.0000001 0 0 1 -1,1 1.0000001,1.0000001 0 0 1 -1,-1 1.0000001,1.0000001 0 0 1 1,-1 1.0000001,1.0000001 0 0 1 1,1 z" /><path
       id="circle126"
       style="stroke-width:1.00968;stroke-dasharray:3.02904, 3.02904"
       d="m 361.42615,275.21097 a 1.0000001,1.0000001 0 0 1 -1,1 1.0000001,1.0000001 0 0 1 -1,-1 1.0000001,1.0000001 0 0 1 1,-1 1.0000001,1.0000001 0 0 1 1,1 z" /><path
       id="circle127"
       style="stroke-width:1.00968;stroke-dasharray:3.02904, 3.02904"
       d="m 361.42615,280.21097 a 1.0000001,1.0000001 0 0 1 -1,1 1.0000001,1.0000001 0 0 1 -1,-1 1.0000001,1.0000001 0 0 1 1,-1 1.0000001,1.0000001 0 0 1 1,1 z" /><path
       id="circle128"
       style="stroke-width:1.00968;stroke-dasharray:3.02904, 3.02904"
       d="m 361.42615,285.21097 a 1.0000001,1.0000001 0 0 1 -1,1 1.0000001,1.0000001 0 0 1 -1,-1 1.0000001,1.0000001 0 0 1 1,-1 1.0000001,1.0000001 0 0 1 1,1 z" /><path
       id="circle129"
       style="stroke-width:1.00968;stroke-dasharray:3.02904, 3.02904"
       d="m 361.42615,290.211 a 1.0000001,1.0000001 0 0 1 -1,1 1.0000001,1.0000001 0 0 1 -1,-1 1.0000001,1.0000001 0 0 1 1,-1 1.0000001,1.0000001 0 0 1 1,1 z" /><path
       style="fill:none;fill-opacity:0.235294;stroke:#000000;stroke-width:2;stroke-linecap:butt;stroke-linejoin:round;stroke-dasharray:none;stroke-dashoffset:2;stroke-opacity:1"
       d="m 364.4262,262.16042 h -8 v 31 h 8"
       id="path131" /><path
       style="fill:none;fill-opacity:0.235294;stroke:#000000;stroke-width:2;stroke-linecap:butt;stroke-linejoin:round;stroke-dasharray:none;stroke-dashoffset:2;stroke-opacity:1"
       d="m 366.4262,262.16042 v 31 h 16 v -31 z"
       id="path134" /><path
       style="fill:none;fill-opacity:0.235294;stroke:#000000;stroke-width:1;stroke-linecap:butt;stroke-linejoin:round;stroke-dasharray:none;stroke-dashoffset:2;stroke-opacity:1"
       d="m 357.4267,267.66042 h 6.9995"
       id="path135" /><path
       style="fill:none;fill-opacity:0.235294;stroke:#000000;stroke-width:1;stroke-linecap:butt;stroke-linejoin:round;stroke-dasharray:none;stroke-dashoffset:2;stroke-opacity:1"
       d="m 357.4262,272.66042 h 7"
       id="path136" /><path
       style="fill:none;fill-opacity:0.235294;stroke:#000000;stroke-width:1;stroke-linecap:butt;stroke-linejoin:round;stroke-dasharray:none;stroke-dashoffset:2;stroke-opacity:1"
       d="m 357.4262,277.66042 h 7"
       id="path137" /><path
       style="fill:none;fill-opacity:0.235294;stroke:#000000;stroke-width:1;stroke-linecap:butt;stroke-linejoin:round;stroke-dasharray:none;stroke-dashoffset:2;stroke-opacity:1"
       d="m 357.4262,282.66042 h 7"
       id="path138" /><path
       style="fill:none;fill-opacity:0.235294;stroke:#000000;stroke-width:1;stroke-linecap:butt;stroke-linejoin:round;stroke-dasharray:none;stroke-dashoffset:2;stroke-opacity:1"
       d="m 357.4262,287.66042 h 7"
       id="path141" /><path
       style="fill:none;fill-opacity:0.235294;stroke:#000000;stroke-width:1;stroke-linecap:butt;stroke-linejoin:round;stroke-dasharray:none;stroke-dashoffset:2;stroke-opacity:1"
       d="m 367.4262,267.66042 h 14.0005"
       id="path142" /><path
       style="fill:none;fill-opacity:0.235294;stroke:#000000;stroke-width:1;stroke-linecap:butt;stroke-linejoin:round;stroke-dasharray:none;stroke-dashoffset:2;stroke-opacity:1"
       d="m 367.4262,272.66042 h 14.0005"
       id="path145" /><path
       style="fill:none;fill-opacity:0.235294;stroke:#000000;stroke-width:1;stroke-linecap:butt;stroke-linejoin:round;stroke-dasharray:none;stroke-dashoffset:2;stroke-opacity:1"
       d="m 367.4262,277.66042 h 14.0005"
       id="path146" /><path
       style="fill:none;fill-opacity:0.235294;stroke:#000000;stroke-width:1;stroke-linecap:butt;stroke-linejoin:round;stroke-dasharray:none;stroke-dashoffset:2;stroke-opacity:1"
       d="m 367.4262,282.66042 h 14.0005"
       id="path147" /><path
       style="fill:none;fill-opacity:0.235294;stroke:#000000;stroke-width:1;stroke-linecap:butt;stroke-linejoin:round;stroke-dasharray:none;stroke-dashoffset:2;stroke-opacity:1"
       d="m 367.4262,287.66042 h 14.0005"
       id="path148" /><path
       id="circle123-3"
       style="stroke-width:1.00968;stroke-dasharray:3.02904, 3.02904"
       transform="scale(-1,1)"
       d="m -387.44226,265.13358 a 1.0000001,1.0000001 0 0 1 -1,1 1.0000001,1.0000001 0 0 1 -1,-1 1.0000001,1.0000001 0 0 1 1,-1 1.0000001,1.0000001 0 0 1 1,1 z" /><path
       id="circle125-1"
       style="stroke-width:1.00968;stroke-dasharray:3.02904, 3.02904"
       transform="scale(-1,1)"
       d="m -387.44226,270.18414 a 1.0000001,1.0000001 0 0 1 -1,1 1.0000001,1.0000001 0 0 1 -1,-1 1.0000001,1.0000001 0 0 1 1,-1 1.0000001,1.0000001 0 0 1 1,1 z" /><path
       id="circle126-7"
       style="stroke-width:1.00968;stroke-dasharray:3.02904, 3.02904"
       transform="scale(-1,1)"
       d="m -387.44226,275.18414 a 1.0000001,1.0000001 0 0 1 -1,1 1.0000001,1.0000001 0 0 1 -1,-1 1.0000001,1.0000001 0 0 1 1,-1 1.0000001,1.0000001 0 0 1 1,1 z" /><path
       id="circle127-1"
       style="stroke-width:1.00968;stroke-dasharray:3.02904, 3.02904"
       transform="scale(-1,1)"
       d="m -387.44226,280.18414 a 1.0000001,1.0000001 0 0 1 -1,1 1.0000001,1.0000001 0 0 1 -1,-1 1.0000001,1.0000001 0 0 1 1,-1 1.0000001,1.0000001 0 0 1 1,1 z" /><path
       id="circle128-0"
       style="stroke-width:1.00968;stroke-dasharray:3.02904, 3.02904"
       transform="scale(-1,1)"
       d="m -387.44226,285.18414 a 1.0000001,1.0000001 0 0 1 -1,1 1.0000001,1.0000001 0 0 1 -1,-1 1.0000001,1.0000001 0 0 1 1,-1 1.0000001,1.0000001 0 0 1 1,1 z" /><path
       id="circle129-9"
       style="stroke-width:1.00968;stroke-dasharray:3.02904, 3.02904"
       transform="scale(-1,1)"
       d="m -387.44226,290.18414 a 1.0000001,1.0000001 0 0 1 -1,1 1.0000001,1.0000001 0 0 1 -1,-1 1.0000001,1.0000001 0 0 1 1,-1 1.0000001,1.0000001 0 0 1 1,1 z" /><path
       style="fill:none;fill-opacity:0.235294;stroke:#000000;stroke-width:2;stroke-linecap:butt;stroke-linejoin:round;stroke-dasharray:none;stroke-dashoffset:2;stroke-opacity:1"
       d="m 384.4262,262.16042 h 8 v 31 h -8"
       id="path131-7" /><path
       style="fill:none;fill-opacity:0.235294;stroke:#000000;stroke-width:1;stroke-linecap:butt;stroke-linejoin:round;stroke-dasharray:none;stroke-dashoffset:2;stroke-opacity:1"
       d="m 391.4422,267.66042 h -7.016"
       id="path135-4" /><path
       style="fill:none;fill-opacity:0.235294;stroke:#000000;stroke-width:1;stroke-linecap:butt;stroke-linejoin:round;stroke-dasharray:none;stroke-dashoffset:2;stroke-opacity:1"
       d="m 391.4422,272.66042 h -7.016"
       id="path136-8" /><path
       style="fill:none;fill-opacity:0.235294;stroke:#000000;stroke-width:1;stroke-linecap:butt;stroke-linejoin:round;stroke-dasharray:none;stroke-dashoffset:2;stroke-opacity:1"
       d="m 391.4422,277.66042 h -7.016"
       id="path137-3" /><path
       style="fill:none;fill-opacity:0.235294;stroke:#000000;stroke-width:1;stroke-linecap:butt;stroke-linejoin:round;stroke-dasharray:none;stroke-dashoffset:2;stroke-opacity:1"
       d="m 391.4422,282.66042 h -7.016"
       id="path138-8" /><path
       style="fill:none;fill-opacity:0.235294;stroke:#000000;stroke-width:1;stroke-linecap:butt;stroke-linejoin:round;stroke-dasharray:none;stroke-dashoffset:2;stroke-opacity:1"
       d="m 391.4422,287.66042 h -7.016"
       id="path141-1" /><path
       style="fill:#000000;fill-opacity:1;stroke:#000000;stroke-width:2;stroke-linecap:round;stroke-linejoin:round;stroke-dasharray:none;stroke-dashoffset:2;stroke-opacity:1"
       d="m 356.4262,296.16042 h 7"
       id="path149" /><path
       style="fill:none;fill-opacity:0.235294;stroke:#000000;stroke-width:2;stroke-linecap:round;stroke-linejoin:round;stroke-dasharray:none;stroke-dashoffset:2;stroke-opacity:1"
       d="m 366.4262,296.16042 h 16"
       id="path150" /><path
       style="fill:#000000;fill-opacity:1;stroke:#000000;stroke-width:2;stroke-linecap:round;stroke-linejoin:round;stroke-dasharray:none;stroke-dashoffset:2;stroke-opacity:1"
       d="m 385.4262,296.18416 7,-0.0237"
       id="path151" /></g><metadata
     id="metadata32"><rdf:RDF><cc:Work
         rdf:about="" /></rdf:RDF></metadata></svg>
