<?xml version="1.0" encoding="UTF-8" standalone="no"?>
<!-- Created with Inkscape (http://www.inkscape.org/) -->

<svg
   width="48"
   height="48"
   viewBox="0 0 48 48"
   version="1.1"
   id="svg1"
   xml:space="preserve"
   xmlns="http://www.w3.org/2000/svg"
   xmlns:svg="http://www.w3.org/2000/svg"
   xmlns:rdf="http://www.w3.org/1999/02/22-rdf-syntax-ns#"
   xmlns:cc="http://creativecommons.org/ns#"><defs
     id="defs1"><linearGradient
       id="swatch76"><stop
         style="stop-color:#000000;stop-opacity:1;"
         offset="0"
         id="stop76" /></linearGradient><linearGradient
       id="swatch75"><stop
         style="stop-color:#000000;stop-opacity:1;"
         offset="0"
         id="stop75" /></linearGradient><linearGradient
       id="swatch74"><stop
         style="stop-color:#000000;stop-opacity:0;"
         offset="0"
         id="stop74" /></linearGradient><linearGradient
       id="swatch64"><stop
         style="stop-color:#000000;stop-opacity:0;"
         offset="0"
         id="stop64" /></linearGradient><linearGradient
       id="swatch61"><stop
         style="stop-color:#000000;stop-opacity:1;"
         offset="0"
         id="stop61" /></linearGradient></defs><path
     style="baseline-shift:baseline;display:inline;overflow:visible;opacity:1;vector-effect:none;stroke-linejoin:round;stroke-dashoffset:2;enable-background:accumulate;stop-color:#000000;stop-opacity:1"
     d="m 12.000033,18.486727 v 11.02539 h 2 v -11.02539 z"
     id="path155-0" /><path
     style="baseline-shift:baseline;display:inline;overflow:visible;opacity:1;vector-effect:none;stroke-linejoin:round;stroke-dashoffset:2;enable-background:accumulate;stop-color:#000000;stop-opacity:1"
     d="m 34.000033,18.486727 v 11.02539 h 2 v -11.02539 z"
     id="path153-1" /><path
     style="baseline-shift:baseline;display:inline;overflow:visible;opacity:1;vector-effect:none;stroke-linejoin:round;stroke-dashoffset:2;enable-background:accumulate;stop-color:#000000;stop-opacity:1"
     d="m 24.000033,14.486727 c -3.11126,0 -5.92584,0.33719 -8.04102,0.91406 -1.05759,0.28843 -1.94064,0.6293 -2.63672,1.07813 -0.69607,0.44883 -1.32226,1.09819 -1.32226,2.00781 0,0.90961 0.62619,1.56093 1.32226,2.00976 0.69608,0.44883 1.57913,0.78774 2.63672,1.07618 2.11518,0.57686 4.92976,0.91406 8.04102,0.91406 3.11126,0 5.92584,-0.3372 8.04101,-0.91406 1.05759,-0.28844 1.94065,-0.62735 2.63672,-1.07618 0.69608,-0.44883 1.32227,-1.10015 1.32227,-2.00976 0,-0.90962 -0.62619,-1.55898 -1.32227,-2.00781 -0.69607,-0.44883 -1.57913,-0.7897 -2.63672,-1.07813 -2.11517,-0.57687 -4.92975,-0.91406 -8.04101,-0.91406 z m 0,2 c 2.96387,0 5.64959,0.33483 7.51562,0.84375 0.93302,0.25446 1.66095,0.56108 2.07813,0.83008 0.41718,0.269 0.40625,0.40736 0.40625,0.32617 0,-0.0812 0.0109,0.0591 -0.40625,0.32812 -0.41718,0.269 -1.14511,0.57367 -2.07813,0.82813 -1.86603,0.50892 -4.55175,0.84375 -7.51562,0.84375 -2.96387,0 -5.64959,-0.33483 -7.51563,-0.84375 -0.93302,-0.25446 -1.66094,-0.55913 -2.07812,-0.82813 -0.41718,-0.269 -0.40625,-0.40931 -0.40625,-0.32812 0,0.0812 -0.0109,-0.0572 0.40625,-0.32617 0.41718,-0.269 1.1451,-0.57562 2.07812,-0.83008 1.86604,-0.50892 4.55176,-0.84375 7.51563,-0.84375 z"
     id="path152-7" /><path
     style="baseline-shift:baseline;display:inline;overflow:visible;opacity:1;vector-effect:none;stroke-linejoin:round;stroke-dashoffset:2;enable-background:accumulate;stop-color:#000000;stop-opacity:1"
     d="m 12.000033,29.512117 c 0,0.90961 0.62619,1.55898 1.32226,2.00781 0.69607,0.44883 1.57914,0.78969 2.63672,1.07813 2.11516,0.57686 4.92977,0.91405 8.04102,0.91406 3.11124,0 5.92583,-0.3372 8.04101,-0.91406 1.05759,-0.28844 1.94064,-0.6293 2.63672,-1.07813 0.69608,-0.44883 1.32227,-1.09819 1.32227,-2.00781 h -2 c 0,-0.0812 0.0109,0.0591 -0.40625,0.32812 -0.41719,0.269 -1.1451,0.57367 -2.07813,0.82813 -1.86604,0.50892 -4.55177,0.84375 -7.51562,0.84375 -2.96386,-10e-6 -5.64961,-0.33483 -7.51563,-0.84375 -0.93301,-0.25446 -1.66095,-0.55913 -2.07812,-0.82813 -0.41718,-0.26899 -0.40625,-0.40931 -0.40625,-0.32812 z"
     id="path152-3-5" /><metadata
     id="metadata32"><rdf:RDF><cc:Work
         rdf:about="" /></rdf:RDF></metadata></svg>
