<?xml version="1.0" encoding="UTF-8" standalone="no"?>
<!-- Created with Inkscape (http://www.inkscape.org/) -->

<svg
   width="48"
   height="48"
   viewBox="0 0 48 48"
   version="1.1"
   id="svg1"
   xml:space="preserve"
   xmlns="http://www.w3.org/2000/svg"
   xmlns:svg="http://www.w3.org/2000/svg"
   xmlns:rdf="http://www.w3.org/1999/02/22-rdf-syntax-ns#"
   xmlns:cc="http://creativecommons.org/ns#"><defs
     id="defs1"><linearGradient
       id="swatch76"><stop
         style="stop-color:#000000;stop-opacity:1;"
         offset="0"
         id="stop76" /></linearGradient><linearGradient
       id="swatch75"><stop
         style="stop-color:#000000;stop-opacity:1;"
         offset="0"
         id="stop75" /></linearGradient><linearGradient
       id="swatch74"><stop
         style="stop-color:#000000;stop-opacity:0;"
         offset="0"
         id="stop74" /></linearGradient><linearGradient
       id="swatch64"><stop
         style="stop-color:#000000;stop-opacity:0;"
         offset="0"
         id="stop64" /></linearGradient><linearGradient
       id="swatch61"><stop
         style="stop-color:#000000;stop-opacity:1;"
         offset="0"
         id="stop61" /></linearGradient></defs><path
     id="path67-4-8"
     style="stroke-width:1.00968;stroke-dasharray:3.02904, 3.02904"
     d="m 20.999998,9.9731598 a 1.0000001,1.0000001 0 0 1 -1,1.0000002 1.0000001,1.0000001 0 0 1 -1,-1.0000002 1.0000001,1.0000001 0 0 1 1,-1 1.0000001,1.0000001 0 0 1 1,1 z" /><path
     id="circle114"
     style="stroke-width:1.00968;stroke-dasharray:3.02904, 3.02904"
     d="m 20.999998,14.97316 a 1.0000001,1.0000001 0 0 1 -1,1 1.0000001,1.0000001 0 0 1 -1,-1 1.0000001,1.0000001 0 0 1 1,-1 1.0000001,1.0000001 0 0 1 1,1 z" /><path
     id="circle115"
     style="stroke-width:1.00968;stroke-dasharray:3.02904, 3.02904"
     d="m 20.999998,19.97316 a 1.0000001,1.0000001 0 0 1 -1,1 1.0000001,1.0000001 0 0 1 -1,-1 1.0000001,1.0000001 0 0 1 1,-1 1.0000001,1.0000001 0 0 1 1,1 z" /><path
     id="circle117"
     style="stroke-width:1.00968;stroke-dasharray:3.02904, 3.02904"
     d="m 20.999998,24.97316 a 1.0000001,1.0000001 0 0 1 -1,1 1.0000001,1.0000001 0 0 1 -1,-1 1.0000001,1.0000001 0 0 1 1,-1 1.0000001,1.0000001 0 0 1 1,1 z" /><path
     id="circle119"
     style="stroke-width:1.00968;stroke-dasharray:3.02904, 3.02904"
     d="m 20.999998,29.97316 a 1.0000001,1.0000001 0 0 1 -1,1 1.0000001,1.0000001 0 0 1 -1,-1 1.0000001,1.0000001 0 0 1 1,-1 1.0000001,1.0000001 0 0 1 1,1 z" /><path
     id="circle121"
     style="stroke-width:1.00968;stroke-dasharray:3.02904, 3.02904"
     d="m 20.999998,34.97316 a 1.0000001,1.0000001 0 0 1 -1,1 1.0000001,1.0000001 0 0 1 -1,-1 1.0000001,1.0000001 0 0 1 1,-1 1.0000001,1.0000001 0 0 1 1,1 z" /><path
     id="circle123"
     style="stroke-width:1.00968;stroke-dasharray:3.02904, 3.02904"
     d="m 10.999998,10.00002 a 1.0000001,1.0000001 0 0 1 -1,1 1.0000001,1.0000001 0 0 1 -1,-1 1.0000001,1.0000001 0 0 1 1,-1.0000002 1.0000001,1.0000001 0 0 1 1,1.0000002 z" /><path
     id="circle125"
     style="stroke-width:1.00968;stroke-dasharray:3.02904, 3.02904"
     d="m 10.999998,15.05055 a 1.0000001,1.0000001 0 0 1 -1,1 1.0000001,1.0000001 0 0 1 -1,-1 1.0000001,1.0000001 0 0 1 1,-1 1.0000001,1.0000001 0 0 1 1,1 z" /><path
     id="circle126"
     style="stroke-width:1.00968;stroke-dasharray:3.02904, 3.02904"
     d="m 10.999998,20.05055 a 1.0000001,1.0000001 0 0 1 -1,1 1.0000001,1.0000001 0 0 1 -1,-1 1.0000001,1.0000001 0 0 1 1,-1 1.0000001,1.0000001 0 0 1 1,1 z" /><path
     id="circle127"
     style="stroke-width:1.00968;stroke-dasharray:3.02904, 3.02904"
     d="m 10.999998,25.05055 a 1.0000001,1.0000001 0 0 1 -1,1 1.0000001,1.0000001 0 0 1 -1,-1 1.0000001,1.0000001 0 0 1 1,-1 1.0000001,1.0000001 0 0 1 1,1 z" /><path
     id="circle128"
     style="stroke-width:1.00968;stroke-dasharray:3.02904, 3.02904"
     d="m 10.999998,30.05055 a 1.0000001,1.0000001 0 0 1 -1,1 1.0000001,1.0000001 0 0 1 -1,-1 1.0000001,1.0000001 0 0 1 1,-1 1.0000001,1.0000001 0 0 1 1,1 z" /><path
     id="circle129"
     style="stroke-width:1.00968;stroke-dasharray:3.02904, 3.02904"
     d="m 10.999998,35.05058 a 1.0000001,1.0000001 0 0 1 -1,1 1.0000001,1.0000001 0 0 1 -1,-1 1.0000001,1.0000001 0 0 1 1,-1 1.0000001,1.0000001 0 0 1 1,1 z" /><path
     style="baseline-shift:baseline;display:inline;overflow:visible;opacity:1;vector-effect:none;stroke-linejoin:round;stroke-dashoffset:2;enable-background:accumulate;stop-color:#000000;stop-opacity:1"
     d="m 5.999998,6.0009498 a 1.0001,1.0001 0 0 0 -1,1 V 38.00095 a 1.0001,1.0001 0 0 0 1,1 h 8 v -2 h -7 V 8.0009498 h 7 v -2 z"
     id="path131" /><path
     style="baseline-shift:baseline;display:inline;overflow:visible;opacity:1;vector-effect:none;stroke-linejoin:round;stroke-dashoffset:2;enable-background:accumulate;stop-color:#000000;stop-opacity:1"
     d="m 15.999998,6.0009498 a 1.0001,1.0001 0 0 0 -1,1 V 38.00095 a 1.0001,1.0001 0 0 0 1,1 H 32 a 1.0001,1.0001 0 0 0 1,-1 V 7.0009498 a 1.0001,1.0001 0 0 0 -1,-1 z m 1,2 H 31 V 37.00095 H 16.999998 Z"
     id="path134" /><path
     style="baseline-shift:baseline;display:inline;overflow:visible;opacity:1;vector-effect:none;stroke-linejoin:round;stroke-dashoffset:2;enable-background:accumulate;stop-color:#000000;stop-opacity:1"
     d="m 6.999998,12.00095 v 1 h 7 v -1 z"
     id="path135" /><path
     style="baseline-shift:baseline;display:inline;overflow:visible;opacity:1;vector-effect:none;stroke-linejoin:round;stroke-dashoffset:2;enable-background:accumulate;stop-color:#000000;stop-opacity:1"
     d="m 6.999998,17.00095 v 1 h 7 v -1 z"
     id="path136" /><path
     style="baseline-shift:baseline;display:inline;overflow:visible;opacity:1;vector-effect:none;stroke-linejoin:round;stroke-dashoffset:2;enable-background:accumulate;stop-color:#000000;stop-opacity:1"
     d="m 6.999998,22.00095 v 1 h 7 v -1 z"
     id="path137" /><path
     style="baseline-shift:baseline;display:inline;overflow:visible;opacity:1;vector-effect:none;stroke-linejoin:round;stroke-dashoffset:2;enable-background:accumulate;stop-color:#000000;stop-opacity:1"
     d="m 6.999998,27.00095 v 1 h 7 v -1 z"
     id="path138" /><path
     style="baseline-shift:baseline;display:inline;overflow:visible;opacity:1;vector-effect:none;stroke-linejoin:round;stroke-dashoffset:2;enable-background:accumulate;stop-color:#000000;stop-opacity:1"
     d="m 6.999998,32.00095 v 1 h 7 v -1 z"
     id="path141" /><path
     style="baseline-shift:baseline;display:inline;overflow:visible;opacity:1;vector-effect:none;stroke-linejoin:round;stroke-dashoffset:2;enable-background:accumulate;stop-color:#000000;stop-opacity:1"
     d="m 16.999998,12.00095 v 1 H 31 v -1 z"
     id="path142" /><path
     style="baseline-shift:baseline;display:inline;overflow:visible;opacity:1;vector-effect:none;stroke-linejoin:round;stroke-dashoffset:2;enable-background:accumulate;stop-color:#000000;stop-opacity:1"
     d="m 16.999998,17.00095 v 1 H 31 v -1 z"
     id="path145" /><path
     style="baseline-shift:baseline;display:inline;overflow:visible;opacity:1;vector-effect:none;stroke-linejoin:round;stroke-dashoffset:2;enable-background:accumulate;stop-color:#000000;stop-opacity:1"
     d="m 16.999998,22.00095 v 1 H 31 v -1 z"
     id="path146" /><path
     style="baseline-shift:baseline;display:inline;overflow:visible;opacity:1;vector-effect:none;stroke-linejoin:round;stroke-dashoffset:2;enable-background:accumulate;stop-color:#000000;stop-opacity:1"
     d="m 16.999998,27.00095 v 1 H 31 v -1 z"
     id="path147" /><path
     style="baseline-shift:baseline;display:inline;overflow:visible;opacity:1;vector-effect:none;stroke-linejoin:round;stroke-dashoffset:2;enable-background:accumulate;stop-color:#000000;stop-opacity:1"
     d="m 16.999998,32.00095 v 1 H 31 v -1 z"
     id="path148" /><path
     id="circle123-3"
     style="stroke-width:1.00968;stroke-dasharray:3.02904, 3.02904"
     d="m 37.01611,9.9731598 a 1.0000001,1.0000001 0 0 0 1,1.0000002 1.0000001,1.0000001 0 0 0 1,-1.0000002 1.0000001,1.0000001 0 0 0 -1,-1 1.0000001,1.0000001 0 0 0 -1,1 z" /><path
     id="circle125-1"
     style="stroke-width:1.00968;stroke-dasharray:3.02904, 3.02904"
     d="m 37.01611,15.02373 a 1.0000001,1.0000001 0 0 0 1,1 1.0000001,1.0000001 0 0 0 1,-1 1.0000001,1.0000001 0 0 0 -1,-1 1.0000001,1.0000001 0 0 0 -1,1 z" /><path
     id="circle126-7"
     style="stroke-width:1.00968;stroke-dasharray:3.02904, 3.02904"
     d="m 37.01611,20.02373 a 1.0000001,1.0000001 0 0 0 1,1 1.0000001,1.0000001 0 0 0 1,-1 1.0000001,1.0000001 0 0 0 -1,-1 1.0000001,1.0000001 0 0 0 -1,1 z" /><path
     id="circle127-1"
     style="stroke-width:1.00968;stroke-dasharray:3.02904, 3.02904"
     d="m 37.01611,25.02373 a 1.0000001,1.0000001 0 0 0 1,1 1.0000001,1.0000001 0 0 0 1,-1 1.0000001,1.0000001 0 0 0 -1,-1 1.0000001,1.0000001 0 0 0 -1,1 z" /><path
     id="circle128-0"
     style="stroke-width:1.00968;stroke-dasharray:3.02904, 3.02904"
     d="m 37.01611,30.02373 a 1.0000001,1.0000001 0 0 0 1,1 1.0000001,1.0000001 0 0 0 1,-1 1.0000001,1.0000001 0 0 0 -1,-1 1.0000001,1.0000001 0 0 0 -1,1 z" /><path
     id="circle129-9"
     style="stroke-width:1.00968;stroke-dasharray:3.02904, 3.02904"
     d="m 37.01611,35.02373 a 1.0000001,1.0000001 0 0 0 1,1 1.0000001,1.0000001 0 0 0 1,-1 1.0000001,1.0000001 0 0 0 -1,-1 1.0000001,1.0000001 0 0 0 -1,1 z" /><path
     style="baseline-shift:baseline;display:inline;overflow:visible;opacity:1;vector-effect:none;stroke-linejoin:round;stroke-dashoffset:2;enable-background:accumulate;stop-color:#000000;stop-opacity:1"
     d="m 34,6.0009498 v 2 h 7 V 37.00095 h -7 v 2 h 8 a 1.0001,1.0001 0 0 0 1,-1 V 7.0009498 a 1.0001,1.0001 0 0 0 -1,-1 z"
     id="path131-7" /><path
     style="baseline-shift:baseline;display:inline;overflow:visible;opacity:1;vector-effect:none;stroke-linejoin:round;stroke-dashoffset:2;enable-background:accumulate;stop-color:#000000;stop-opacity:1"
     d="m 34,12.00095 v 1 h 7.01562 v -1 z"
     id="path135-4" /><path
     style="baseline-shift:baseline;display:inline;overflow:visible;opacity:1;vector-effect:none;stroke-linejoin:round;stroke-dashoffset:2;enable-background:accumulate;stop-color:#000000;stop-opacity:1"
     d="m 34,17.00095 v 1 h 7.01562 v -1 z"
     id="path136-8" /><path
     style="baseline-shift:baseline;display:inline;overflow:visible;opacity:1;vector-effect:none;stroke-linejoin:round;stroke-dashoffset:2;enable-background:accumulate;stop-color:#000000;stop-opacity:1"
     d="m 34,22.00095 v 1 h 7.01562 v -1 z"
     id="path137-3" /><path
     style="baseline-shift:baseline;display:inline;overflow:visible;opacity:1;vector-effect:none;stroke-linejoin:round;stroke-dashoffset:2;enable-background:accumulate;stop-color:#000000;stop-opacity:1"
     d="m 34,27.00095 v 1 h 7.01562 v -1 z"
     id="path138-8" /><path
     style="baseline-shift:baseline;display:inline;overflow:visible;opacity:1;vector-effect:none;stroke-linejoin:round;stroke-dashoffset:2;enable-background:accumulate;stop-color:#000000;stop-opacity:1"
     d="m 34,32.00095 v 1 h 7.01562 v -1 z"
     id="path141-1" /><g
     id="path149"
     style="opacity:1"
     transform="translate(-288,-216.25296)"><path
       style="baseline-shift:baseline;display:inline;overflow:visible;vector-effect:none;stroke-linecap:round;stroke-linejoin:round;stroke-dashoffset:2;enable-background:accumulate;stop-color:#000000;stop-opacity:1"
       d="m 294.00004,257.25296 h 7"
       id="path128" /><path
       style="baseline-shift:baseline;display:inline;overflow:visible;vector-effect:none;stroke-linecap:round;stroke-linejoin:round;stroke-dashoffset:2;enable-background:accumulate;stop-color:#000000;stop-opacity:1"
       d="m 294,256.25391 a 1,1 0 0 0 -1,1 1,1 0 0 0 1,1 h 7 a 1,1 0 0 0 1,-1 1,1 0 0 0 -1,-1 z"
       id="path129" /></g><path
     style="baseline-shift:baseline;display:inline;overflow:visible;opacity:1;vector-effect:none;stroke-linecap:round;stroke-linejoin:round;stroke-dashoffset:2;enable-background:accumulate;stop-color:#000000;stop-opacity:1"
     d="m 15.999998,40.00095 a 1,1 0 0 0 -1,1 1,1 0 0 0 1,1 H 32 a 1,1 0 0 0 1,-1 1,1 0 0 0 -1,-1 z"
     id="path150" /><g
     id="path151"
     style="opacity:1"
     transform="translate(-288,-216.25296)"><path
       style="baseline-shift:baseline;display:inline;overflow:visible;vector-effect:none;stroke-linecap:round;stroke-linejoin:round;stroke-dashoffset:2;enable-background:accumulate;stop-color:#000000;stop-opacity:1"
       d="m 323.00004,257.2767 7,-0.0237"
       id="path126" /><path
       style="baseline-shift:baseline;display:inline;overflow:visible;vector-effect:none;stroke-linecap:round;stroke-linejoin:round;stroke-dashoffset:2;enable-background:accumulate;stop-color:#000000;stop-opacity:1"
       d="m 329.99609,256.25391 -7,0.0234 A 1,1 0 0 0 322,257.2793 a 1,1 0 0 0 1.00391,0.99804 l 7,-0.0234 A 1,1 0 0 0 331,257.25 a 1,1 0 0 0 -1.00391,-0.99609 z"
       id="path127" /></g><metadata
     id="metadata32"><rdf:RDF><cc:Work
         rdf:about="" /></rdf:RDF></metadata></svg>
