<?xml version="1.0" encoding="UTF-8" standalone="no"?>
<!-- Created with Inkscape (http://www.inkscape.org/) -->

<svg
   width="48"
   height="48"
   viewBox="0 0 48 48"
   version="1.1"
   id="svg1"
   xml:space="preserve"
   xmlns="http://www.w3.org/2000/svg"
   xmlns:svg="http://www.w3.org/2000/svg"
   xmlns:rdf="http://www.w3.org/1999/02/22-rdf-syntax-ns#"
   xmlns:cc="http://creativecommons.org/ns#"><defs
     id="defs1"><linearGradient
       id="swatch76"><stop
         style="stop-color:#000000;stop-opacity:1;"
         offset="0"
         id="stop76" /></linearGradient><linearGradient
       id="swatch75"><stop
         style="stop-color:#000000;stop-opacity:1;"
         offset="0"
         id="stop75" /></linearGradient><linearGradient
       id="swatch74"><stop
         style="stop-color:#000000;stop-opacity:0;"
         offset="0"
         id="stop74" /></linearGradient><linearGradient
       id="swatch64"><stop
         style="stop-color:#000000;stop-opacity:0;"
         offset="0"
         id="stop64" /></linearGradient><linearGradient
       id="swatch61"><stop
         style="stop-color:#000000;stop-opacity:1;"
         offset="0"
         id="stop61" /></linearGradient></defs><g
     id="layer1"
     transform="translate(-62.426158,-327.53206)"><g
       style="fill:#000000"
       id="g132"
       transform="matrix(0.28781414,0,0,0.28781414,124.84148,4.2415714)" /><path
       style="fill:none;stroke:#000000;stroke-width:2;stroke-linejoin:round;stroke-dashoffset:2"
       d="m 75.4262,365.53206 v -28"
       id="path155" /><path
       style="fill:none;stroke:#000000;stroke-width:2;stroke-linejoin:round;stroke-dashoffset:2"
       d="m 97.4262,337.53206 v 28"
       id="path153" /><path
       id="path152"
       style="fill:none;stroke:#000000;stroke-width:2;stroke-linejoin:round;stroke-dashoffset:2"
       d="m 97.42614,337.53207 a 10.999992,2.9999993 0 0 1 -10.999993,3 10.999992,2.9999993 0 0 1 -10.999992,-3 10.999992,2.9999993 0 0 1 10.999992,-3 10.999992,2.9999993 0 0 1 10.999993,3 z" /><path
       style="fill:none;stroke:#000000;stroke-width:1.5;stroke-linejoin:round;stroke-dasharray:none;stroke-dashoffset:2"
       d="m 97.4261,347.02439 c 0,1.65686 -4.9249,3 -11,3 -6.0751,-10e-6 -10.9999,-1.34315 -10.9999,-3"
       id="path152-31" /><path
       style="fill:none;stroke:#000000;stroke-width:1.5;stroke-linejoin:round;stroke-dasharray:none;stroke-dashoffset:2"
       d="m 97.4261,356.26672 c 0,1.65686 -4.9249,3 -11,3 -6.0751,-1e-5 -10.9999,-1.34315 -10.9999,-3"
       id="path152-31-9" /><path
       style="fill:none;stroke:#000000;stroke-width:2;stroke-linejoin:round;stroke-dashoffset:2"
       d="m 97.4262,365.53206 c 0,1.65686 -4.9249,3 -11,3 -6.0751,-10e-6 -10.9999,-1.34316 -10.9999,-3"
       id="path152-3" /></g><metadata
     id="metadata32"><rdf:RDF><cc:Work
         rdf:about="" /></rdf:RDF></metadata></svg>
