<?xml version="1.0" encoding="UTF-8" standalone="no"?>
<!-- Created with Inkscape (http://www.inkscape.org/) -->

<svg
   width="48"
   height="48"
   viewBox="0 0 48 48"
   version="1.1"
   id="svg1"
   xml:space="preserve"
   xmlns="http://www.w3.org/2000/svg"
   xmlns:svg="http://www.w3.org/2000/svg"
   xmlns:rdf="http://www.w3.org/1999/02/22-rdf-syntax-ns#"
   xmlns:cc="http://creativecommons.org/ns#"><defs
     id="defs1"><linearGradient
       id="swatch76"><stop
         style="stop-color:#000000;stop-opacity:1;"
         offset="0"
         id="stop76" /></linearGradient><linearGradient
       id="swatch75"><stop
         style="stop-color:#000000;stop-opacity:1;"
         offset="0"
         id="stop75" /></linearGradient><linearGradient
       id="swatch74"><stop
         style="stop-color:#000000;stop-opacity:0;"
         offset="0"
         id="stop74" /></linearGradient><linearGradient
       id="swatch64"><stop
         style="stop-color:#000000;stop-opacity:0;"
         offset="0"
         id="stop64" /></linearGradient><linearGradient
       id="swatch61"><stop
         style="stop-color:#000000;stop-opacity:1;"
         offset="0"
         id="stop61" /></linearGradient></defs><path
     style="baseline-shift:baseline;display:inline;overflow:visible;opacity:1;vector-effect:none;stroke-linejoin:round;stroke-dashoffset:2;enable-background:accumulate;stop-color:#000000;stop-opacity:1"
     d="m 12.000002,10.000397 v 28 h 2 v -28 z"
     id="path155" /><path
     style="baseline-shift:baseline;display:inline;overflow:visible;opacity:1;vector-effect:none;stroke-linejoin:round;stroke-dashoffset:2;enable-background:accumulate;stop-color:#000000;stop-opacity:1"
     d="m 34.000002,10.000397 v 28 h 2 v -28 z"
     id="path153" /><path
     style="baseline-shift:baseline;display:inline;overflow:visible;opacity:1;vector-effect:none;stroke-linejoin:round;stroke-dashoffset:2;enable-background:accumulate;stop-color:#000000;stop-opacity:1"
     d="m 24.000002,6.0003969 c -3.11126,0 -5.92584,0.3372 -8.04101,0.91406 -1.05759,0.28844 -1.94065,0.6293 -2.63672,1.07813 -0.69608,0.44883 -1.32227,1.09819 -1.32227,2.0078101 0,0.90962 0.62619,1.55898 1.32227,2.00781 0.69607,0.44883 1.57913,0.78969 2.63672,1.07813 2.11517,0.57686 4.92975,0.91406 8.04101,0.91406 3.11126,0 5.92584,-0.3372 8.04102,-0.91406 1.05759,-0.28844 1.94064,-0.6293 2.63672,-1.07813 0.69607,-0.44883 1.32226,-1.09819 1.32226,-2.00781 0,-0.9096201 -0.62619,-1.5589801 -1.32226,-2.0078101 -0.69608,-0.44883 -1.57913,-0.78969 -2.63672,-1.07813 -2.11518,-0.57686 -4.92976,-0.91406 -8.04102,-0.91406 z m 0,2 c 2.96387,0 5.64959,0.33483 7.51563,0.84375 0.93302,0.25446 1.66094,0.55913 2.07812,0.82812 0.41719,0.269 0.40625,0.4093201 0.40625,0.3281301 0,-0.0812 0.0109,0.0572 -0.40625,0.32617 -0.41718,0.269 -1.1451,0.57562 -2.07812,0.83008 -1.86604,0.50892 -4.55176,0.84375 -7.51563,0.84375 -2.96387,0 -5.64958,-0.33483 -7.51562,-0.84375 -0.93302,-0.25446 -1.66094,-0.56108 -2.07813,-0.83008 -0.41718,-0.269 -0.40625,-0.4073601 -0.40625,-0.32617 0,0.0812 -0.0109,-0.0591 0.40625,-0.3281301 0.41719,-0.26899 1.14511,-0.57366 2.07813,-0.82812 1.86604,-0.50892 4.55175,-0.84375 7.51562,-0.84375 z"
     id="path152" /><path
     style="baseline-shift:baseline;display:inline;overflow:visible;opacity:1;vector-effect:none;stroke-linejoin:round;stroke-dashoffset:2;enable-background:accumulate;stop-color:#000000;stop-opacity:1"
     d="m 12.250002,19.492587 c 0,0.78576 0.54778,1.37052 1.20899,1.79687 0.66121,0.42635 1.5244,0.76269 2.5664,1.04688 2.08402,0.56837 4.88179,0.90624 7.97461,0.90625 3.09282,0 5.89057,-0.33788 7.97461,-0.90625 1.04202,-0.28419 1.90519,-0.62053 2.56641,-1.04688 0.66122,-0.42635 1.20898,-1.0111 1.20898,-1.79687 h -1.5 c 0,0.0427 -0.0694,0.24563 -0.52148,0.53711 -0.45205,0.29148 -1.19985,0.60262 -2.14844,0.86132 -1.89719,0.51742 -4.5978,0.85157 -7.58008,0.85157 -2.98228,-10e-6 -5.68292,-0.33415 -7.58008,-0.85157 -0.94858,-0.2587 -1.6964,-0.56985 -2.14843,-0.86132 -0.45204,-0.29148 -0.52149,-0.49445 -0.52149,-0.53711 z"
     id="path152-31" /><path
     style="baseline-shift:baseline;display:inline;overflow:visible;opacity:1;vector-effect:none;stroke-linejoin:round;stroke-dashoffset:2;enable-background:accumulate;stop-color:#000000;stop-opacity:1"
     d="m 12.250002,28.734767 c 0,0.78577 0.54778,1.37248 1.20899,1.79883 0.66121,0.42635 1.5244,0.76269 2.5664,1.04688 2.08402,0.56837 4.88179,0.90429 7.97461,0.90429 3.09282,0 5.89057,-0.33592 7.97461,-0.90429 1.04202,-0.28419 1.90519,-0.62053 2.56641,-1.04688 0.66122,-0.42635 1.20898,-1.01306 1.20898,-1.79883 h -1.5 c 0,0.0427 -0.0694,0.24564 -0.52148,0.53711 -0.45205,0.29148 -1.19985,0.60263 -2.14844,0.86133 -1.89719,0.51742 -4.5978,0.85156 -7.58008,0.85156 -2.98228,0 -5.68292,-0.33415 -7.58008,-0.85156 -0.94858,-0.2587 -1.6964,-0.56985 -2.14843,-0.86133 -0.45204,-0.29147 -0.52149,-0.49444 -0.52149,-0.53711 z"
     id="path152-31-9" /><path
     style="baseline-shift:baseline;display:inline;overflow:visible;opacity:1;vector-effect:none;stroke-linejoin:round;stroke-dashoffset:2;enable-background:accumulate;stop-color:#000000;stop-opacity:1"
     d="m 12.000002,38.000397 c 0,0.90961 0.6262,1.55898 1.32227,2.00781 0.69607,0.44883 1.57914,0.78969 2.63672,1.07813 2.11515,0.57687 4.92977,0.91405 8.04101,0.91406 3.11125,0 5.92584,-0.3372 8.04102,-0.91406 1.05759,-0.28844 1.94064,-0.6293 2.63672,-1.07813 0.69608,-0.44883 1.32226,-1.09819 1.32226,-2.00781 h -2 c 0,-0.0812 0.0109,0.0572 -0.40625,0.32617 -0.41718,0.269 -1.1451,0.57562 -2.07812,0.83008 -1.86605,0.50892 -4.55177,0.84375 -7.51563,0.84375 -2.96385,0 -5.6496,-0.33483 -7.51562,-0.84375 -0.93301,-0.25446 -1.66095,-0.56108 -2.07813,-0.83008 -0.41717,-0.269 -0.40625,-0.40736 -0.40625,-0.32617 z"
     id="path152-3" /><metadata
     id="metadata32"><rdf:RDF><cc:Work
         rdf:about="" /></rdf:RDF></metadata></svg>
