<?xml version="1.0" encoding="UTF-8" standalone="no"?>
<!-- Created with Inkscape (http://www.inkscape.org/) -->

<svg
   width="48"
   height="48"
   viewBox="0 0 48 48"
   version="1.1"
   id="svg1"
   xml:space="preserve"
   xmlns="http://www.w3.org/2000/svg"
   xmlns:svg="http://www.w3.org/2000/svg"
   xmlns:rdf="http://www.w3.org/1999/02/22-rdf-syntax-ns#"
   xmlns:cc="http://creativecommons.org/ns#"><defs
     id="defs1"><linearGradient
       id="swatch76"><stop
         style="stop-color:#000000;stop-opacity:1;"
         offset="0"
         id="stop76" /></linearGradient><linearGradient
       id="swatch75"><stop
         style="stop-color:#000000;stop-opacity:1;"
         offset="0"
         id="stop75" /></linearGradient><linearGradient
       id="swatch74"><stop
         style="stop-color:#000000;stop-opacity:0;"
         offset="0"
         id="stop74" /></linearGradient><linearGradient
       id="swatch64"><stop
         style="stop-color:#000000;stop-opacity:0;"
         offset="0"
         id="stop64" /></linearGradient><linearGradient
       id="swatch61"><stop
         style="stop-color:#000000;stop-opacity:1;"
         offset="0"
         id="stop61" /></linearGradient></defs><path
     style="baseline-shift:baseline;display:inline;overflow:visible;opacity:1;vector-effect:none;enable-background:accumulate;stop-color:#000000;stop-opacity:1"
     d="m 4.9996216,1.99986 c -1.64501,0 -3,1.35499 -3,3 v 38.00195 c 0,1.64501 1.35499,3 3,3 H 43.00158 c 1.64501,0 3,-1.35499 3,-3 V 4.99986 c 0,-1.64501 -1.35499,-3 -3,-3 z m 0,2 H 43.00158 c 0.56413,0 1,0.43587 1,1 v 38.00195 c 0,0.56413 -0.43587,1 -1,1 H 4.9996216 c -0.56413,0 -1,-0.43587 -1,-1 V 4.99986 c 0,-0.56413 0.43587,-1 1,-1 z"
     id="rect1-9-6" /><g
     id="path36-1-3-4-1"
     style="opacity:1"
     transform="translate(-71.974668,-144)"><path
       style="baseline-shift:baseline;display:inline;overflow:visible;vector-effect:none;enable-background:accumulate;stop-color:#000000;stop-opacity:1"
       d="m 79.974675,168 h 18"
       id="path133" /><path
       style="baseline-shift:baseline;display:inline;overflow:visible;vector-effect:none;enable-background:accumulate;stop-color:#000000;stop-opacity:1"
       d="m 79.974609,167 v 2 h 18 v -2 z"
       id="path154" /></g><path
     style="fill:#000000;fill-opacity:1;fill-rule:nonzero;stroke:none;stroke-width:2;stroke-linecap:square;stroke-linejoin:round;stroke-dasharray:none;stroke-opacity:1;paint-order:stroke fill markers"
     d="m 31.98616,24 -5.972298,-3 v 6 z"
     id="path51-0" /><path
     id="path67"
     style="stroke-width:3.00001;stroke-dasharray:9.00003, 9.00003"
     d="M 39.94251,23.97125 A 2.9712539,2.9712539 0 0 1 36.97126,26.94251 2.9712539,2.9712539 0 0 1 34.00001,23.97125 2.9712539,2.9712539 0 0 1 36.97126,21 a 2.9712539,2.9712539 0 0 1 2.97125,2.97125 z" /><metadata
     id="metadata32"><rdf:RDF><cc:Work
         rdf:about="" /></rdf:RDF></metadata></svg>
