<?xml version="1.0" encoding="UTF-8" standalone="no"?>
<!-- Created with Inkscape (http://www.inkscape.org/) -->

<svg
   width="48"
   height="48"
   viewBox="0 0 48 48"
   version="1.1"
   id="svg1"
   xml:space="preserve"
   xmlns="http://www.w3.org/2000/svg"
   xmlns:svg="http://www.w3.org/2000/svg"
   xmlns:rdf="http://www.w3.org/1999/02/22-rdf-syntax-ns#"
   xmlns:cc="http://creativecommons.org/ns#"><defs
     id="defs1"><linearGradient
       id="swatch76"><stop
         style="stop-color:#000000;stop-opacity:1;"
         offset="0"
         id="stop76" /></linearGradient><linearGradient
       id="swatch75"><stop
         style="stop-color:#000000;stop-opacity:1;"
         offset="0"
         id="stop75" /></linearGradient><linearGradient
       id="swatch74"><stop
         style="stop-color:#000000;stop-opacity:0;"
         offset="0"
         id="stop74" /></linearGradient><linearGradient
       id="swatch64"><stop
         style="stop-color:#000000;stop-opacity:0;"
         offset="0"
         id="stop64" /></linearGradient><linearGradient
       id="swatch61"><stop
         style="stop-color:#000000;stop-opacity:1;"
         offset="0"
         id="stop61" /></linearGradient></defs><g
     id="layer1"
     transform="translate(-134.40083,-182.90746)"><g
       style="fill:#000000"
       id="g132"
       transform="matrix(0.28781414,0,0,0.28781414,124.84148,4.2415714)" /><path
       id="rect1-9-6"
       transform="translate(13.97467,144.00107)"
       d="m 125.42509,41.906391 h 38.00213 a 2,2 45 0 1 2,2 v 38.00214 a 2,2 135 0 1 -2,2 h -38.00213 a 2,2 45 0 1 -2,-2 v -38.00214 a 2,2 135 0 1 2,-2 z"
       style="fill:none;stroke:#000000;stroke-width:2;stroke-linejoin:miter;stroke-dasharray:none;stroke-opacity:1" /><path
       style="fill:#000000;fill-opacity:1;stroke:#000000;stroke-width:2;stroke-linecap:butt;stroke-linejoin:miter;stroke-dasharray:none;stroke-dashoffset:0;stroke-opacity:1"
       d="m 142.40083,206.90746 h 18"
       id="path36-1-3-4-1" /><path
       style="fill:#000000;fill-opacity:1;fill-rule:nonzero;stroke:none;stroke-width:2;stroke-linecap:square;stroke-linejoin:round;stroke-dasharray:none;stroke-opacity:1;paint-order:stroke fill markers"
       d="m 166.38698,206.90746 -5.9723,-3 v 6 z"
       id="path51-0" /><path
       id="path67"
       style="stroke-width:3.00001;stroke-dasharray:9.00003, 9.00003"
       d="m 174.34334,206.87871 a 2.9712539,2.9712539 0 0 1 -2.97125,2.97125 2.9712539,2.9712539 0 0 1 -2.97126,-2.97125 2.9712539,2.9712539 0 0 1 2.97126,-2.97126 2.9712539,2.9712539 0 0 1 2.97125,2.97126 z" /></g><metadata
     id="metadata32"><rdf:RDF><cc:Work
         rdf:about="" /></rdf:RDF></metadata></svg>
