<?xml version="1.0" encoding="UTF-8" standalone="no"?>
<!-- Created with Inkscape (http://www.inkscape.org/) -->

<svg
   width="48"
   height="48"
   viewBox="0 0 48 48"
   version="1.1"
   id="svg1"
   xml:space="preserve"
   xmlns="http://www.w3.org/2000/svg"
   xmlns:svg="http://www.w3.org/2000/svg"
   xmlns:rdf="http://www.w3.org/1999/02/22-rdf-syntax-ns#"
   xmlns:cc="http://creativecommons.org/ns#"><defs
     id="defs1"><linearGradient
       id="swatch76"><stop
         style="stop-color:#000000;stop-opacity:1;"
         offset="0"
         id="stop76" /></linearGradient><linearGradient
       id="swatch75"><stop
         style="stop-color:#000000;stop-opacity:1;"
         offset="0"
         id="stop75" /></linearGradient><linearGradient
       id="swatch74"><stop
         style="stop-color:#000000;stop-opacity:0;"
         offset="0"
         id="stop74" /></linearGradient><linearGradient
       id="swatch64"><stop
         style="stop-color:#000000;stop-opacity:0;"
         offset="0"
         id="stop64" /></linearGradient><linearGradient
       id="swatch61"><stop
         style="stop-color:#000000;stop-opacity:1;"
         offset="0"
         id="stop61" /></linearGradient></defs><g
     id="path36-1-3-4"
     style="opacity:1"
     transform="translate(2.0019531e-6,-144)"><path
       style="baseline-shift:baseline;display:inline;overflow:visible;vector-effect:none;enable-background:accumulate;stop-color:#000000;stop-opacity:1"
       d="m 4.001065,175 h 40.00001"
       id="path175" /><path
       style="baseline-shift:baseline;display:inline;overflow:visible;vector-effect:none;enable-background:accumulate;stop-color:#000000;stop-opacity:1"
       d="m 4.0019531,174 v 2 H 44.001953 v -2 z"
       id="path190" /></g><g
     id="path54-0"
     style="opacity:1"
     transform="translate(2.0019531e-6,-144)"><path
       style="baseline-shift:baseline;display:inline;overflow:visible;vector-effect:none;enable-background:accumulate;stop-color:#000000;stop-opacity:1"
       d="m 4.001065,161 h 40.00001"
       id="path172" /><path
       style="baseline-shift:baseline;display:inline;overflow:visible;vector-effect:none;enable-background:accumulate;stop-color:#000000;stop-opacity:1"
       d="m 4.0019531,160 v 2 H 44.001953 v -2 z"
       id="path174" /></g><g
     id="path55-2"
     style="opacity:1"
     transform="translate(2.0019531e-6,-144)"><path
       style="baseline-shift:baseline;display:inline;overflow:visible;vector-effect:none;enable-background:accumulate;stop-color:#000000;stop-opacity:1"
       d="m 17.001065,148 v 12"
       id="path168" /><path
       style="baseline-shift:baseline;display:inline;overflow:visible;vector-effect:none;enable-background:accumulate;stop-color:#000000;stop-opacity:1"
       d="m 16.001953,148 v 12 h 2 v -12 z"
       id="path169" /></g><g
     id="path56-4"
     style="opacity:1"
     transform="translate(2.0019531e-6,-144)"><path
       style="baseline-shift:baseline;display:inline;overflow:visible;vector-effect:none;enable-background:accumulate;stop-color:#000000;stop-opacity:1"
       d="m 17.001065,176 v 12"
       id="path166" /><path
       style="baseline-shift:baseline;display:inline;overflow:visible;vector-effect:none;enable-background:accumulate;stop-color:#000000;stop-opacity:1"
       d="m 16.001953,176 v 12 h 2 v -12 z"
       id="path167" /></g><g
     id="path57-4"
     style="opacity:1"
     transform="translate(2.0019531e-6,-144)"><path
       style="baseline-shift:baseline;display:inline;overflow:visible;vector-effect:none;enable-background:accumulate;stop-color:#000000;stop-opacity:1"
       d="m 31.001065,176 v 12"
       id="path164" /><path
       style="baseline-shift:baseline;display:inline;overflow:visible;vector-effect:none;enable-background:accumulate;stop-color:#000000;stop-opacity:1"
       d="m 30.001953,176 v 12 h 2 v -12 z"
       id="path165" /></g><g
     id="path58-1"
     style="opacity:1"
     transform="translate(2.0019531e-6,-144)"><path
       style="baseline-shift:baseline;display:inline;overflow:visible;vector-effect:none;enable-background:accumulate;stop-color:#000000;stop-opacity:1"
       d="m 31.001065,148 v 12"
       id="path162" /><path
       style="baseline-shift:baseline;display:inline;overflow:visible;vector-effect:none;enable-background:accumulate;stop-color:#000000;stop-opacity:1"
       d="m 30.001953,148 v 12 h 2 v -12 z"
       id="path163" /></g><g
     id="path60-9"
     style="opacity:1"
     transform="translate(2.0019531e-6,-144)"><path
       style="baseline-shift:baseline;display:inline;overflow:visible;vector-effect:none;enable-background:accumulate;stop-color:#000000;stop-opacity:1"
       d="m 24.001065,162 v 12"
       id="path160" /><path
       style="baseline-shift:baseline;display:inline;overflow:visible;vector-effect:none;enable-background:accumulate;stop-color:#000000;stop-opacity:1"
       d="m 23.001953,162 v 12 h 2 v -12 z"
       id="path161" /></g><g
     id="path60-3-0"
     style="opacity:1"
     transform="translate(2.0019531e-6,-144)"><path
       style="baseline-shift:baseline;display:inline;overflow:visible;vector-effect:none;enable-background:accumulate;stop-color:#000000;stop-opacity:1"
       d="m 10.001065,162 -0.0178,12"
       id="path158" /><path
       style="baseline-shift:baseline;display:inline;overflow:visible;vector-effect:none;enable-background:accumulate;stop-color:#000000;stop-opacity:1"
       d="m 9.0019531,161.99805 -0.019531,12 1.9999999,0.004 0.01953,-12 z"
       id="path159" /></g><g
     id="path61-2"
     style="opacity:1"
     transform="translate(2.0019531e-6,-144)"><path
       style="baseline-shift:baseline;display:inline;overflow:visible;vector-effect:none;enable-background:accumulate;stop-color:#000000;stop-opacity:1"
       d="m 38.006315,162 v 12"
       id="path156" /><path
       style="baseline-shift:baseline;display:inline;overflow:visible;vector-effect:none;enable-background:accumulate;stop-color:#000000;stop-opacity:1"
       d="m 37.005859,162 v 12 h 2 v -12 z"
       id="path157" /></g><path
     style="baseline-shift:baseline;display:inline;overflow:visible;opacity:1;vector-effect:none;stroke-dasharray:4, 2;stroke-dashoffset:5.6;enable-background:accumulate;stop-color:#000000;stop-opacity:1"
     d="m 46.001212,4.97317 -0.004,-0.12891 -0.0117,-0.15234 -0.0176,-0.13672 -0.002,-0.0137 c -0.0225,-0.14759 -0.0552,-0.2927 -0.0996,-0.43555 -0.0437,-0.14039 -0.0984,-0.27787 -0.1621,-0.41015 -0.084,-0.17441 -0.18516,-0.33955 -0.30079,-0.49414 h 0.002 C 45.261652,3.00937 45.094432,2.83681 44.909332,2.68408 44.760832,2.56151 44.600452,2.452 44.430822,2.35986 l -0.01,-0.006 -0.0352,-0.0176 -0.91211,1.78125 0.0117,0.006 c 0.053,0.0295 0.10329,0.0627 0.15039,0.10156 0.0618,0.051 0.11812,0.11174 0.16601,0.17579 0.0386,0.0515 0.0739,0.10654 0.10157,0.16406 0.0211,0.0437 0.0384,0.0886 0.0527,0.13476 0.014,0.0449 0.0238,0.0919 0.0312,0.13868 l 0.008,0.0566 0.004,0.0508 0.002,0.0781 z m 0,0.42383 h -2 v 4 h 2 z m 0,6 h -2 v 4 h 2 z m 0,6 h -2 v 4 h 2 z m 0,6 h -2 v 4 h 2 z m 0,6 h -2 v 4 h 2 z m 0,6 h -2 v 4 h 2 z m 0,6 h -2 v 1.58984 l -0.002,0.0664 -0.004,0.0508 -0.008,0.0547 c -0.007,0.0468 -0.0173,0.0937 -0.0312,0.13867 -0.0143,0.0461 -0.0317,0.0911 -0.0527,0.13476 -0.0277,0.0575 -0.063,0.11447 -0.10157,0.16602 -0.0479,0.0641 -0.10424,0.12286 -0.16601,0.17383 -0.0485,0.04 -0.0995,0.0754 -0.1543,0.10547 -10e-4,6.9e-4 -0.003,10e-4 -0.004,0.002 l -0.043,0.0215 -0.0449,0.0215 -0.0293,0.01 0.73439,1.86133 0.0742,-0.0293 0.13281,-0.0605 0.11915,-0.0606 0.01,-0.006 c 0.16963,-0.0921 0.33001,-0.19969 0.47851,-0.32226 0.1851,-0.15274 0.35232,-0.32725 0.49609,-0.51953 h -0.002 c 0.11563,-0.1546 0.21676,-0.31973 0.30079,-0.49414 0.0637,-0.13229 0.11844,-0.26976 0.1621,-0.41016 0.0444,-0.14284 0.0771,-0.28796 0.0996,-0.43555 l 0.002,-0.0117 0.0176,-0.13867 0.0117,-0.15234 0.004,-0.14063 z m -4.0332,-39.39844 h -4 v 2 h 4 z m -0.22265,42.00195 h -4 v 2 h 4 z M 35.968012,1.99856 h -4 v 2 h 4 z m -0.22265,42.00195 h -4 v 2 h 4 z M 29.968012,1.99856 h -4 v 2 h 4 z m -0.22265,42.00195 h -4 v 2 h 4 z M 23.968012,1.99856 h -4 v 2 h 4 z m -0.22265,42.00195 h -4 v 2 h 4 z M 17.968012,1.99856 h -4 v 2 h 4 z m -0.22265,42.00195 h -4 v 2 h 4 z M 11.968012,1.99856 h -4 v 2 h 4 z m -0.22265,42.00195 h -4 v 2 h 4 z M 6.141842,3.98294 5.794192,2.01223 c -0.10906,0.0192 -0.47905,-0.0641 -1.10547,0.002 h -0.01 l -0.12305,0.0156 -0.0117,0.002 c -0.14759,0.0226 -0.29466,0.0571 -0.4375,0.10157 -0.1404,0.0437 -0.27592,0.0964 -0.4082,0.16015 -0.17441,0.084 -0.3415,0.18516 -0.4961,0.30078 -0.19183,0.14358 -0.36514,0.30941 -0.51757,0.49415 -0.12257,0.1485 -0.23013,0.30888 -0.32227,0.47851 -0.0697,0.12839 -0.13132,0.26293 -0.18164,0.40039 -0.0511,0.13952 -0.0913,0.28226 -0.12109,0.42774 -0.0293,0.14349 -0.0489,0.29055 -0.0566,0.4414 l 1.99804,0.10156 c 0.002,-0.046 0.007,-0.093 0.0176,-0.14257 0.01,-0.0479 0.0242,-0.0948 0.041,-0.14063 0.0166,-0.0452 0.0355,-0.0903 0.0586,-0.13281 0.0305,-0.0561 0.0684,-0.11053 0.10938,-0.16016 0.051,-0.0618 0.10978,-0.11812 0.17383,-0.16601 0.0515,-0.0386 0.10654,-0.0719 0.16406,-0.0996 0.0437,-0.021 0.0887,-0.0384 0.13476,-0.0527 0.0469,-0.0146 0.0957,-0.0257 0.14453,-0.0332 l 0.0547,-0.008 h 0.006 c 0.15418,-0.0148 0.57456,0.0972 1.23633,-0.0195 z m -0.39648,40.01757 h -0.73438 l -0.0644,-0.002 -0.0508,-0.004 -0.0566,-0.008 c -0.0468,-0.007 -0.0937,-0.0173 -0.13867,-0.0312 -0.0461,-0.0143 -0.0911,-0.0317 -0.13477,-0.0527 v -0.002 c -0.0575,-0.0277 -0.11251,-0.0611 -0.16406,-0.0996 -0.0641,-0.0479 -0.12286,-0.10425 -0.17383,-0.16602 -0.041,-0.0496 -0.0789,-0.10404 -0.10937,-0.16016 -0.0308,-0.0567 -0.0552,-0.11648 -0.0742,-0.17773 -0.014,-0.0449 -0.0238,-0.0919 -0.0312,-0.13867 -3.2e-4,-0.002 -0.002,-0.004 -0.002,-0.006 l -0.006,-0.0488 -0.004,-0.0508 -0.002,-0.0664 v -0.0996 h -2 v 0.125 l 0.004,0.14063 0.0117,0.15234 0.0176,0.13867 0.002,0.0117 c 0.0225,0.14759 0.0552,0.29271 0.0996,0.43555 0.0581,0.18696 0.13523,0.36738 0.22851,0.53906 0.0921,0.16963 0.1997,0.33002 0.32227,0.47852 0.15243,0.18474 0.32574,0.35056 0.51758,0.49414 h 0.002 c 0.15421,0.11521 0.32023,0.217 0.49414,0.30078 0.13228,0.0637 0.26781,0.11845 0.4082,0.16211 0.14285,0.0444 0.28991,0.0771 0.4375,0.0996 l 0.0117,0.002 0.13672,0.0176 0.15234,0.0117 0.14063,0.004 h 0.75977 z M 3.999262,6.88723 h -2 v 4 h 2 z m 0,6 h -2 v 4 h 2 z m 0,6 h -2 v 4 h 2 z m 0,6 h -2 v 4 h 2 z m 0,6 h -2 v 4 h 2 z m 0,6 h -2 v 4 h 2 z"
     id="rect1-7-2-3" /><metadata
     id="metadata32"><rdf:RDF><cc:Work
         rdf:about="" /></rdf:RDF></metadata></svg>
