<?xml version="1.0" encoding="UTF-8" standalone="no"?>
<!-- Created with Inkscape (http://www.inkscape.org/) -->

<svg
   width="48"
   height="48"
   viewBox="0 0 48 48"
   version="1.1"
   id="svg1"
   xml:space="preserve"
   xmlns="http://www.w3.org/2000/svg"
   xmlns:svg="http://www.w3.org/2000/svg"
   xmlns:rdf="http://www.w3.org/1999/02/22-rdf-syntax-ns#"
   xmlns:cc="http://creativecommons.org/ns#"><defs
     id="defs1"><linearGradient
       id="swatch76"><stop
         style="stop-color:#000000;stop-opacity:1;"
         offset="0"
         id="stop76" /></linearGradient><linearGradient
       id="swatch75"><stop
         style="stop-color:#000000;stop-opacity:1;"
         offset="0"
         id="stop75" /></linearGradient><linearGradient
       id="swatch74"><stop
         style="stop-color:#000000;stop-opacity:0;"
         offset="0"
         id="stop74" /></linearGradient><linearGradient
       id="swatch64"><stop
         style="stop-color:#000000;stop-opacity:0;"
         offset="0"
         id="stop64" /></linearGradient><linearGradient
       id="swatch61"><stop
         style="stop-color:#000000;stop-opacity:1;"
         offset="0"
         id="stop61" /></linearGradient></defs><path
     style="baseline-shift:baseline;display:inline;overflow:visible;opacity:1;vector-effect:none;stroke-linecap:round;stroke-linejoin:round;stroke-dashoffset:2;enable-background:accumulate;stop-color:#000000;stop-opacity:1"
     d="m 35.99994,8.9993924 a 1.0001,1.0001 0 0 0 -1,-1 H 12.999942 a 1.0001,1.0001 0 0 0 -1,1 V 38.999395 a 1.0001,1.0001 0 0 0 1,1 H 34.99994 a 1.0001,1.0001 0 0 0 1,-1 z m -2,1 V 37.999395 H 13.999942 V 9.9993924 Z"
     id="rect160-2-8-5" /><g
     id="rect175-4-3-8"
     style="opacity:1"
     transform="rotate(90,144.64968,-216.62435)"><path
       style="baseline-shift:baseline;display:inline;overflow:visible;vector-effect:none;stroke-dashoffset:2;enable-background:accumulate;stop-color:#000000;stop-opacity:1"
       d="m 393.76917,-103.4793 h 1.00972 v 15.009727 h -1.00972 z"
       id="path66" /><path
       style="baseline-shift:baseline;display:inline;overflow:visible;vector-effect:none;stroke-dashoffset:2;enable-background:accumulate;stop-color:#000000;stop-opacity:1"
       d="m 393.26953,-103.97852 v 16.00977 h 2.00977 v -16.00977 z m 1,1 h 0.01 v 14.00977 h -0.01 z"
       id="path68" /></g><path
     style="baseline-shift:baseline;display:inline;overflow:visible;opacity:1;vector-effect:none;stroke-dashoffset:2;enable-background:accumulate;stop-color:#000000;stop-opacity:1"
     d="m 23.999942,11.999392 c -4.40775,0 -8,3.59225 -8,8 0,4.40775 3.59225,8.000003 8,8.000003 4.407748,0 7.999998,-3.592253 7.999998,-8.000003 0,-4.40775 -3.59225,-8 -7.999998,-8 z m 0,1.77929 c 3.44696,10e-6 6.222658,2.77374 6.222658,6.22071 0,3.44696 -2.775698,6.22265 -6.222658,6.22265 -3.44697,0 -6.22266,-2.77569 -6.22266,-6.22265 0,-3.44697 2.77569,-6.22071 6.22266,-6.22071 z"
     id="path212" /><path
     id="path213"
     style="fill:#020202;stroke-width:2.00002;stroke-dashoffset:2"
     d="m 25.000002,20.000002 a 1.0000083,1.0000083 0 0 1 -1.00001,1.00001 1.0000083,1.0000083 0 0 1 -1.00001,-1.00001 1.0000083,1.0000083 0 0 1 1.00001,-1.00001 1.0000083,1.0000083 0 0 1 1.00001,1.00001 z" /><metadata
     id="metadata32"><rdf:RDF><cc:Work
         rdf:about="" /></rdf:RDF></metadata></svg>
