<?xml version="1.0" encoding="UTF-8" standalone="no"?>
<!-- Created with Inkscape (http://www.inkscape.org/) -->

<svg
   width="48"
   height="48"
   viewBox="0 0 48 48"
   version="1.1"
   id="svg1"
   xml:space="preserve"
   xmlns="http://www.w3.org/2000/svg"
   xmlns:svg="http://www.w3.org/2000/svg"
   xmlns:rdf="http://www.w3.org/1999/02/22-rdf-syntax-ns#"
   xmlns:cc="http://creativecommons.org/ns#"><defs
     id="defs1"><linearGradient
       id="swatch76"><stop
         style="stop-color:#000000;stop-opacity:1;"
         offset="0"
         id="stop76" /></linearGradient><linearGradient
       id="swatch75"><stop
         style="stop-color:#000000;stop-opacity:1;"
         offset="0"
         id="stop75" /></linearGradient><linearGradient
       id="swatch74"><stop
         style="stop-color:#000000;stop-opacity:0;"
         offset="0"
         id="stop74" /></linearGradient><linearGradient
       id="swatch64"><stop
         style="stop-color:#000000;stop-opacity:0;"
         offset="0"
         id="stop64" /></linearGradient><linearGradient
       id="swatch61"><stop
         style="stop-color:#000000;stop-opacity:1;"
         offset="0"
         id="stop61" /></linearGradient></defs><g
     id="layer1"
     transform="translate(-134.40083,-400.1815)"><g
       style="fill:#000000"
       id="g132"
       transform="matrix(0.28781414,0,0,0.28781414,124.84148,4.2415714)" /><path
       id="rect160-2-8-5"
       style="fill:none;stroke:#000000;stroke-width:2;stroke-linecap:round;stroke-linejoin:round;stroke-dashoffset:2"
       transform="rotate(90)"
       d="m 409.18152,-169.40082 h 29.99999 v 22.00001 h -29.99999 z" /><path
       id="rect175-4-3-8"
       style="stroke:#000000;stroke-dashoffset:2"
       transform="rotate(90)"
       d="m 432.67664,-165.90546 h 1.00972 v 15.00973 h -1.00972 z" /><path
       id="path212"
       style="fill:none;stroke:#000000;stroke-width:1.77778;stroke-dashoffset:2"
       d="m 165.51193,420.18146 a 7.1111107,7.1111107 0 0 1 -7.11111,7.11111 7.1111107,7.1111107 0 0 1 -7.11111,-7.11111 7.1111107,7.1111107 0 0 1 7.11111,-7.11111 7.1111107,7.1111107 0 0 1 7.11111,7.11111 z" /><path
       id="path213"
       style="fill:#020202;stroke-width:2.00002;stroke-dashoffset:2"
       d="m 159.40083,420.18152 a 1.0000083,1.0000083 0 0 1 -1.00001,1.00001 1.0000083,1.0000083 0 0 1 -1.00001,-1.00001 1.0000083,1.0000083 0 0 1 1.00001,-1.00001 1.0000083,1.0000083 0 0 1 1.00001,1.00001 z" /></g><metadata
     id="metadata32"><rdf:RDF><cc:Work
         rdf:about="" /></rdf:RDF></metadata></svg>
