<?xml version="1.0" encoding="UTF-8" standalone="no"?>
<!-- Created with Inkscape (http://www.inkscape.org/) -->

<svg
   width="48"
   height="48"
   viewBox="0 0 48 48"
   version="1.1"
   id="svg1"
   xml:space="preserve"
   xmlns="http://www.w3.org/2000/svg"
   xmlns:svg="http://www.w3.org/2000/svg"
   xmlns:rdf="http://www.w3.org/1999/02/22-rdf-syntax-ns#"
   xmlns:cc="http://creativecommons.org/ns#"><defs
     id="defs1"><linearGradient
       id="swatch76"><stop
         style="stop-color:#000000;stop-opacity:1;"
         offset="0"
         id="stop76" /></linearGradient><linearGradient
       id="swatch75"><stop
         style="stop-color:#000000;stop-opacity:1;"
         offset="0"
         id="stop75" /></linearGradient><linearGradient
       id="swatch74"><stop
         style="stop-color:#000000;stop-opacity:0;"
         offset="0"
         id="stop74" /></linearGradient><linearGradient
       id="swatch64"><stop
         style="stop-color:#000000;stop-opacity:0;"
         offset="0"
         id="stop64" /></linearGradient><linearGradient
       id="swatch61"><stop
         style="stop-color:#000000;stop-opacity:1;"
         offset="0"
         id="stop61" /></linearGradient></defs><path
     style="baseline-shift:baseline;display:inline;overflow:visible;opacity:1;vector-effect:none;enable-background:accumulate;stop-color:#000000;stop-opacity:1"
     d="m 5.0007228,1.99879 c -1.64501,0 -3,1.35499 -3,3 v 38.00195 c 0,1.64501 1.35499,3 3,3 H 43.002673 c 1.64501,0 3,-1.35499 3,-3 V 4.99879 c 0,-1.64501 -1.35499,-3 -3,-3 z m 0,2 H 43.002673 c 0.56413,0 1,0.43587 1,1 v 38.00195 c 0,0.56413 -0.43587,1 -1,1 H 5.0007228 c -0.56413,0 -1,-0.43587 -1,-1 V 4.99879 c 0,-0.56413 0.43587,-1 1,-1 z"
     id="rect1-9-6-8" /><path
     id="path67-5"
     style="stroke-width:3.00968;stroke-dasharray:9.02904, 9.02904"
     d="m 26.980833,10.98083 a 2.9808297,2.9808297 0 0 1 -2.98083,2.98083 2.9808297,2.9808297 0 0 1 -2.98083,-2.98083 2.9808297,2.9808297 0 0 1 2.98083,-2.98082 2.9808297,2.9808297 0 0 1 2.98083,2.98082 z" /><path
     style="baseline-shift:baseline;display:inline;overflow:visible;vector-effect:none;fill:#000000;stroke-linecap:round;enable-background:accumulate;stop-color:#000000"
     d="M 24.000013,12 V 34"
     id="path82" /><path
     style="baseline-shift:baseline;display:inline;overflow:visible;vector-effect:none;fill:#000000;stroke-linecap:round;enable-background:accumulate;stop-color:#000000"
     d="m 23.999643,11.00074 a 1,1 0 0 0 -1,1 v 22 a 1,1 0 0 0 1,1 1,1 0 0 0 1,-1 v -22 a 1,1 0 0 0 -1,-1 z"
     id="path83" /><path
     style="fill:#000000;fill-opacity:1;fill-rule:nonzero;stroke:none;stroke-width:2;stroke-linecap:square;stroke-linejoin:round;stroke-dasharray:none;stroke-opacity:1;paint-order:stroke fill markers"
     d="m 24.005543,39.98558 2.9977,-5.97346 -6,0.002 z"
     id="path51-0-3" /><path
     style="baseline-shift:baseline;display:inline;overflow:visible;vector-effect:none;fill:#000000;stroke-linejoin:round;enable-background:accumulate;stop-color:#000000"
     d="m 24.000013,19 11.64947,11.59859"
     id="path80" /><path
     style="baseline-shift:baseline;display:inline;overflow:visible;vector-effect:none;fill:#000000;stroke-linejoin:round;enable-background:accumulate;stop-color:#000000"
     d="m 24.704723,18.29176 -1.41016,1.41601 11.64844,11.59961 1.41211,-1.41797 z"
     id="path81" /><path
     style="fill:#000000;fill-opacity:1;fill-rule:nonzero;stroke:none;stroke-width:2;stroke-linecap:square;stroke-linejoin:round;stroke-dasharray:none;stroke-opacity:1;paint-order:stroke fill markers"
     d="m 37.050883,32 -2.10173,-6.34437 -4.24264,4.24264 z"
     id="path51-0-1" /><path
     style="baseline-shift:baseline;display:inline;overflow:visible;vector-effect:none;fill:#000000;stroke-linejoin:round;enable-background:accumulate;stop-color:#000000"
     d="M 24.000013,19 12.501043,30.59859"
     id="path84" /><path
     style="baseline-shift:baseline;display:inline;overflow:visible;vector-effect:none;fill:#000000;stroke-linejoin:round;enable-background:accumulate;stop-color:#000000"
     d="m 23.290663,18.29566 -11.5,11.59961 1.41992,1.40821 11.5,-11.59961 z"
     id="path85" /><path
     style="fill:#000000;fill-opacity:1;fill-rule:nonzero;stroke:none;stroke-width:2;stroke-linecap:square;stroke-linejoin:round;stroke-dasharray:none;stroke-opacity:1;paint-order:stroke fill markers"
     d="m 11.099633,31.99999 6.34437,-2.10173 -4.24264,-4.24264 z"
     id="path69" /><metadata
     id="metadata32"><rdf:RDF><cc:Work
         rdf:about="" /></rdf:RDF></metadata></svg>
