<?xml version="1.0" encoding="UTF-8" standalone="no"?>
<!-- Created with Inkscape (http://www.inkscape.org/) -->

<svg
   width="48"
   height="48"
   viewBox="0 0 48 48"
   version="1.1"
   id="svg1"
   xml:space="preserve"
   xmlns="http://www.w3.org/2000/svg"
   xmlns:svg="http://www.w3.org/2000/svg"
   xmlns:rdf="http://www.w3.org/1999/02/22-rdf-syntax-ns#"
   xmlns:cc="http://creativecommons.org/ns#"><defs
     id="defs1"><linearGradient
       id="swatch76"><stop
         style="stop-color:#000000;stop-opacity:1;"
         offset="0"
         id="stop76" /></linearGradient><linearGradient
       id="swatch75"><stop
         style="stop-color:#000000;stop-opacity:1;"
         offset="0"
         id="stop75" /></linearGradient><linearGradient
       id="swatch74"><stop
         style="stop-color:#000000;stop-opacity:0;"
         offset="0"
         id="stop74" /></linearGradient><linearGradient
       id="swatch64"><stop
         style="stop-color:#000000;stop-opacity:0;"
         offset="0"
         id="stop64" /></linearGradient><linearGradient
       id="swatch61"><stop
         style="stop-color:#000000;stop-opacity:1;"
         offset="0"
         id="stop61" /></linearGradient></defs><g
     id="layer1"
     transform="translate(-206.34996,-182.90746)"><g
       style="fill:#000000"
       id="g132"
       transform="matrix(0.28781414,0,0,0.28781414,124.84148,4.2415714)" /><path
       id="rect1-9-6-8"
       transform="translate(85.924892,144)"
       d="m 125.42509,41.906391 h 38.00213 a 2,2 45 0 1 2,2 v 38.00214 a 2,2 135 0 1 -2,2 h -38.00213 a 2,2 45 0 1 -2,-2 v -38.00214 a 2,2 135 0 1 2,-2 z"
       style="fill:none;stroke:#000000;stroke-width:2;stroke-linejoin:miter;stroke-dasharray:none;stroke-opacity:1" /><path
       id="path67-5"
       style="stroke-width:3.00968;stroke-dasharray:9.02904, 9.02904"
       d="m 233.33077,193.88829 a 2.9808297,2.9808297 0 0 1 -2.98082,2.98083 2.9808297,2.9808297 0 0 1 -2.98083,-2.98083 2.9808297,2.9808297 0 0 1 2.98083,-2.98083 2.9808297,2.9808297 0 0 1 2.98082,2.98083 z" /><g
       id="path36-1-3-4-1-3"
       style="opacity:1;fill:#000000"
       transform="translate(-610.07618,144)"><path
         style="baseline-shift:baseline;display:inline;overflow:visible;vector-effect:none;fill:#000000;stroke-linecap:round;enable-background:accumulate;stop-color:#000000;stop-opacity:1"
         d="m 840.42615,50.90746 v 22"
         id="path82" /><path
         style="baseline-shift:baseline;display:inline;overflow:visible;vector-effect:none;fill:#000000;stroke-linecap:round;enable-background:accumulate;stop-color:#000000;stop-opacity:1"
         d="m 840.42578,49.908203 a 1,1 0 0 0 -1,1 v 22 a 1,1 0 0 0 1,1 1,1 0 0 0 1,-1 v -22 a 1,1 0 0 0 -1,-1 z"
         id="path83" /></g><path
       style="fill:#000000;fill-opacity:1;fill-rule:nonzero;stroke:none;stroke-width:2;stroke-linecap:square;stroke-linejoin:round;stroke-dasharray:none;stroke-opacity:1;paint-order:stroke fill markers"
       d="m 230.3555,222.89304 2.99769,-5.97346 -6,0.002 z"
       id="path51-0-3" /><g
       id="path36-1-3-4-1-9"
       style="opacity:1;fill:#000000"
       transform="translate(-610.07618,144)"><path
         style="baseline-shift:baseline;display:inline;overflow:visible;vector-effect:none;fill:#000000;stroke-linejoin:round;enable-background:accumulate;stop-color:#000000;stop-opacity:1"
         d="m 840.42615,57.90746 11.64947,11.598592"
         id="path80" /><path
         style="baseline-shift:baseline;display:inline;overflow:visible;vector-effect:none;fill:#000000;stroke-linejoin:round;enable-background:accumulate;stop-color:#000000;stop-opacity:1"
         d="m 841.13086,57.199219 -1.41016,1.416015 11.64844,11.59961 1.41211,-1.417969 z"
         id="path81" /></g><path
       style="fill:#000000;fill-opacity:1;fill-rule:nonzero;stroke:none;stroke-width:2;stroke-linecap:square;stroke-linejoin:round;stroke-dasharray:none;stroke-opacity:1;paint-order:stroke fill markers"
       d="m 243.40084,214.90746 -2.10173,-6.34437 -4.24264,4.24264 z"
       id="path51-0-1" /><g
       id="path68"
       style="opacity:1;fill:#000000"
       transform="translate(-610.07618,144)"><path
         style="baseline-shift:baseline;display:inline;overflow:visible;vector-effect:none;fill:#000000;stroke-linejoin:round;enable-background:accumulate;stop-color:#000000;stop-opacity:1"
         d="M 840.42615,57.90746 828.92718,69.506054"
         id="path84" /><path
         style="baseline-shift:baseline;display:inline;overflow:visible;vector-effect:none;fill:#000000;stroke-linejoin:round;enable-background:accumulate;stop-color:#000000;stop-opacity:1"
         d="m 839.7168,57.203125 -11.5,11.599609 1.41992,1.408203 11.5,-11.599609 z"
         id="path85" /></g><path
       style="fill:#000000;fill-opacity:1;fill-rule:nonzero;stroke:none;stroke-width:2;stroke-linecap:square;stroke-linejoin:round;stroke-dasharray:none;stroke-opacity:1;paint-order:stroke fill markers"
       d="m 217.44959,214.90745 6.34437,-2.10173 -4.24264,-4.24264 z"
       id="path69" /></g><metadata
     id="metadata32"><rdf:RDF><cc:Work
         rdf:about="" /></rdf:RDF></metadata></svg>
