<?xml version="1.0" encoding="UTF-8" standalone="no"?>
<!-- Created with Inkscape (http://www.inkscape.org/) -->

<svg
   width="48"
   height="48"
   viewBox="0 0 48 48"
   version="1.1"
   id="svg1"
   xml:space="preserve"
   xmlns="http://www.w3.org/2000/svg"
   xmlns:svg="http://www.w3.org/2000/svg"
   xmlns:rdf="http://www.w3.org/1999/02/22-rdf-syntax-ns#"
   xmlns:cc="http://creativecommons.org/ns#"><defs
     id="defs1"><linearGradient
       id="swatch76"><stop
         style="stop-color:#000000;stop-opacity:1;"
         offset="0"
         id="stop76" /></linearGradient><linearGradient
       id="swatch75"><stop
         style="stop-color:#000000;stop-opacity:1;"
         offset="0"
         id="stop75" /></linearGradient><linearGradient
       id="swatch74"><stop
         style="stop-color:#000000;stop-opacity:0;"
         offset="0"
         id="stop74" /></linearGradient><linearGradient
       id="swatch64"><stop
         style="stop-color:#000000;stop-opacity:0;"
         offset="0"
         id="stop64" /></linearGradient><linearGradient
       id="swatch61"><stop
         style="stop-color:#000000;stop-opacity:1;"
         offset="0"
         id="stop61" /></linearGradient></defs><g
     id="layer1"
     transform="translate(-134.40083,-255.16042)"><g
       style="fill:#000000"
       id="g132"
       transform="matrix(0.28781414,0,0,0.28781414,124.84148,4.2415714)" /><path
       id="path88-1-5"
       transform="translate(13.97357,216.25296)"
       d="m 125.42722,57.907459 h 38 a 2,2 45 0 1 2,2 v 6.000004 a 2,2 135 0 1 -2,2 h -38 a 2,2 45 0 1 -2,-2 v -6.000004 a 2,2 135 0 1 2,-2 z"
       style="fill:none;stroke:#000000;stroke-width:2;stroke-linejoin:miter;stroke-dasharray:none;stroke-opacity:1" /><path
       id="path67-4-3-6"
       style="stroke-width:1.00968;stroke-dasharray:3.02904, 3.02904"
       d="m 144.40082,279.16043 a 1.0000014,1.0000014 0 0 1 -1,1 1.0000014,1.0000014 0 0 1 -1,-1 1.0000014,1.0000014 0 0 1 1,-1 1.0000014,1.0000014 0 0 1 1,1 z" /><path
       id="path236-5"
       style="fill:#020202;stroke:#000000;stroke-width:2;stroke-linecap:square;stroke-linejoin:round;stroke-dashoffset:2"
       d="m 175.41071,279.16281 a 1,1 0 0 1 -1,1 1,1 0 0 1 -1,-1 1,1 0 0 1 1,-1 1,1 0 0 1 1,1 z" /><path
       id="rect236-4"
       style="fill:#020202;stroke:#000000;stroke-width:1.99998;stroke-linecap:square;stroke-dashoffset:2"
       transform="rotate(90)"
       d="m 278.16519,-157.40082 h 1.99049 v 1.99999 h -1.99049 z" /><path
       style="fill:#020202;fill-opacity:1;stroke:#000000;stroke-width:0.908727;stroke-linecap:square;stroke-linejoin:miter;stroke-dasharray:none;stroke-dashoffset:2;stroke-opacity:1"
       d="m 167.22187,280.70606 h -3.6327 l 1.8153,-2.72618 z"
       id="path237-9" /></g><metadata
     id="metadata32"><rdf:RDF><cc:Work
         rdf:about="" /></rdf:RDF></metadata></svg>
