<?xml version="1.0" encoding="UTF-8" standalone="no"?>
<!-- Created with Inkscape (http://www.inkscape.org/) -->

<svg
   width="48"
   height="48"
   viewBox="0 0 48 48"
   version="1.1"
   id="svg1"
   xml:space="preserve"
   xmlns="http://www.w3.org/2000/svg"
   xmlns:svg="http://www.w3.org/2000/svg"
   xmlns:rdf="http://www.w3.org/1999/02/22-rdf-syntax-ns#"
   xmlns:cc="http://creativecommons.org/ns#"><defs
     id="defs1"><linearGradient
       id="swatch76"><stop
         style="stop-color:#000000;stop-opacity:1;"
         offset="0"
         id="stop76" /></linearGradient><linearGradient
       id="swatch75"><stop
         style="stop-color:#000000;stop-opacity:1;"
         offset="0"
         id="stop75" /></linearGradient><linearGradient
       id="swatch74"><stop
         style="stop-color:#000000;stop-opacity:0;"
         offset="0"
         id="stop74" /></linearGradient><linearGradient
       id="swatch64"><stop
         style="stop-color:#000000;stop-opacity:0;"
         offset="0"
         id="stop64" /></linearGradient><linearGradient
       id="swatch61"><stop
         style="stop-color:#000000;stop-opacity:1;"
         offset="0"
         id="stop61" /></linearGradient></defs><path
     style="baseline-shift:baseline;display:inline;overflow:visible;opacity:1;vector-effect:none;enable-background:accumulate;stop-color:#000000;stop-opacity:1"
     d="m 5.0004716,18.00074 c -1.64501,0 -3,1.35499 -3,3 v 6 c 0,1.64501 1.35499,3 3,3 H 43.00048 c 1.64501,0 3,-1.35499 3,-3 v -6 c 0,-1.64501 -1.35499,-3 -3,-3 z m 0,2 H 43.00048 c 0.56413,0 1,0.43587 1,1 v 6 c 0,0.56413 -0.43587,1 -1,1 H 5.0004716 c -0.56413,0 -1,-0.43587 -1,-1 v -6 c 0,-0.56413 0.43587,-1 1,-1 z"
     id="path88-1-5" /><path
     id="path67-4-3-6"
     style="stroke-width:2.01935;stroke-dasharray:6.05804, 6.05804"
     d="m 11.999982,24.00002 a 1.9999907,1.9999907 0 0 1 -1.9999904,1.99999 1.9999907,1.9999907 0 0 1 -1.99999,-1.99999 1.9999907,1.9999907 0 0 1 1.99999,-2 1.9999907,1.9999907 0 0 1 1.9999904,2 z" /><g
     id="path236-5"
     style="opacity:1"
     transform="translate(-71.974668,-216.25296)"><path
       style="baseline-shift:baseline;display:inline;overflow:visible;vector-effect:none;fill:#020202;stroke-linecap:square;stroke-linejoin:round;stroke-dashoffset:2;enable-background:accumulate;stop-color:#000000;stop-opacity:1"
       d="m 112.98455,240.25536 a 1,1 0 0 1 -1,1 1,1 0 0 1 -1,-1 1,1 0 0 1 1,-1 1,1 0 0 1 1,1 z"
       id="path47" /><path
       style="baseline-shift:baseline;display:inline;overflow:visible;vector-effect:none;stroke-linecap:square;stroke-linejoin:round;stroke-dashoffset:2;enable-background:accumulate;stop-color:#000000;stop-opacity:1"
       d="m 111.98438,238.25586 c -1.09273,0 -2,0.90727 -2,2 0,1.09272 0.90727,2 2,2 1.09272,0 1.99999,-0.90728 2,-2 0,-1.09273 -0.90728,-2 -2,-2 z"
       id="path48" /></g><g
     id="rect236-4"
     style="opacity:1"
     transform="rotate(90,72.139145,-144.11381)"><path
       style="baseline-shift:baseline;display:inline;overflow:visible;vector-effect:none;fill:#020202;stroke-linecap:square;stroke-dashoffset:2;enable-background:accumulate;stop-color:#000000;stop-opacity:1"
       d="m 239.25774,-94.974663 h 1.99049 v 1.999986 h -1.99049 z"
       id="path36" /><path
       style="baseline-shift:baseline;display:inline;overflow:visible;vector-effect:none;stroke-linecap:square;stroke-dashoffset:2;enable-background:accumulate;stop-color:#000000;stop-opacity:1"
       d="m 238.25781,-95.974609 v 4 h 3.99024 v -4 z"
       id="path37" /></g><g
     id="path237-9"
     style="opacity:1"
     transform="translate(-71.974668,-216.25296)"><path
       style="baseline-shift:baseline;display:inline;overflow:visible;vector-effect:none;fill:#020202;stroke-linecap:square;stroke-dashoffset:2;enable-background:accumulate;stop-color:#000000;stop-opacity:1"
       d="m 104.79572,241.7986 h -3.6327 l 1.8153,-2.72618 z"
       id="path122" /><path
       style="baseline-shift:baseline;display:inline;overflow:visible;vector-effect:none;stroke-linecap:square;stroke-dashoffset:2;enable-background:accumulate;stop-color:#000000;stop-opacity:1"
       d="m 102.97852,238.25391 -2.66407,4 h 5.33008 z m 0,1.63867 0.96875,1.45117 h -1.93555 z"
       id="path123" /></g><metadata
     id="metadata32"><rdf:RDF><cc:Work
         rdf:about="" /></rdf:RDF></metadata></svg>
