<?xml version="1.0" encoding="UTF-8" standalone="no"?>
<!-- Created with Inkscape (http://www.inkscape.org/) -->

<svg
   width="48"
   height="48"
   viewBox="0 0 48 48"
   version="1.1"
   id="svg1"
   xml:space="preserve"
   xmlns="http://www.w3.org/2000/svg"
   xmlns:svg="http://www.w3.org/2000/svg"
   xmlns:rdf="http://www.w3.org/1999/02/22-rdf-syntax-ns#"
   xmlns:cc="http://creativecommons.org/ns#"><defs
     id="defs1"><linearGradient
       id="swatch76"><stop
         style="stop-color:#000000;stop-opacity:1;"
         offset="0"
         id="stop76" /></linearGradient><linearGradient
       id="swatch75"><stop
         style="stop-color:#000000;stop-opacity:1;"
         offset="0"
         id="stop75" /></linearGradient><linearGradient
       id="swatch74"><stop
         style="stop-color:#000000;stop-opacity:0;"
         offset="0"
         id="stop74" /></linearGradient><linearGradient
       id="swatch64"><stop
         style="stop-color:#000000;stop-opacity:0;"
         offset="0"
         id="stop64" /></linearGradient><linearGradient
       id="swatch61"><stop
         style="stop-color:#000000;stop-opacity:1;"
         offset="0"
         id="stop61" /></linearGradient></defs><path
     style="baseline-shift:baseline;display:inline;overflow:visible;opacity:1;vector-effect:none;stroke-linecap:square;stroke-dashoffset:2;enable-background:accumulate;stop-color:#000000;stop-opacity:1"
     d="m 12.804691,11.836337 -1.9668,0.35937 0.17773,0.98242 4.1504,22.82227 h 17.667957 l 4.15039,-22.82227 0.17774,-0.98242 -1.9668,-0.35937 -0.17969,0.98437 -3.8496,21.17969 H 16.833981 l -3.84961,-21.17969 z"
     id="path235" /><g
     id="path236"
     style="opacity:1"
     transform="translate(-216,-288.6246)"><path
       style="baseline-shift:baseline;display:inline;overflow:visible;vector-effect:none;fill:#020202;stroke-linecap:square;stroke-linejoin:round;stroke-dashoffset:2;enable-background:accumulate;stop-color:#000000;stop-opacity:1"
       d="m 236.5,305.6246 a 1.4999974,1.4999974 0 0 1 -1.5,1.5 1.4999974,1.4999974 0 0 1 -1.5,-1.5 1.4999974,1.4999974 0 0 1 1.5,-1.49999 1.4999974,1.4999974 0 0 1 1.5,1.49999 z"
       id="path64" /><path
       style="baseline-shift:baseline;display:inline;overflow:visible;vector-effect:none;stroke-linecap:square;stroke-linejoin:round;stroke-dashoffset:2;enable-background:accumulate;stop-color:#000000;stop-opacity:1"
       d="m 235,302.625 c -1.63908,0 -2.99999,1.36092 -3,3 0,1.63909 1.36091,3 3,3 1.63909,0 3,-1.36091 3,-3 -1e-5,-1.63908 -1.36092,-3 -3,-3 z"
       id="path65" /></g><g
     id="rect236"
     style="opacity:1"
     transform="rotate(45,240.40072,-405.04735)"><path
       style="baseline-shift:baseline;display:inline;overflow:visible;vector-effect:none;fill:#020202;stroke-linecap:square;stroke-dashoffset:2;enable-background:accumulate;stop-color:#000000;stop-opacity:1"
       d="m 389.4433,44.017765 h 2.99287 v 3.007144 h -2.99287 z"
       id="path59" /><path
       style="baseline-shift:baseline;display:inline;overflow:visible;vector-effect:none;stroke-linecap:square;stroke-dashoffset:2;enable-background:accumulate;stop-color:#000000;stop-opacity:1"
       d="m 387.93945,42.513672 v 6.015625 h 6 v -6.015625 z"
       id="path63" /></g><g
     id="path237"
     style="opacity:1"
     transform="translate(-216,-288.6246)"><path
       style="baseline-shift:baseline;display:inline;overflow:visible;vector-effect:none;fill:#020202;stroke-linecap:square;stroke-dashoffset:2;enable-background:accumulate;stop-color:#000000;stop-opacity:1"
       d="m 240.61387,319.90221 -5.06916,-3.16873 4.91059,-2.21775 z"
       id="path124" /><path
       style="baseline-shift:baseline;display:inline;overflow:visible;vector-effect:none;stroke-linecap:square;stroke-dashoffset:2;enable-background:accumulate;stop-color:#000000;stop-opacity:1"
       d="m 241.16992,313.37305 -7.20508,3.2539 7.4375,4.64844 z m -1.42773,2.28515 0.084,2.8711 -2.70117,-1.68946 z"
       id="path125" /></g><metadata
     id="metadata32"><rdf:RDF><cc:Work
         rdf:about="" /></rdf:RDF></metadata></svg>
