<?xml version="1.0" encoding="UTF-8" standalone="no"?>
<!-- Created with Inkscape (http://www.inkscape.org/) -->

<svg
   width="48"
   height="48"
   viewBox="0 0 48 48"
   version="1.1"
   id="svg1"
   xml:space="preserve"
   xmlns="http://www.w3.org/2000/svg"
   xmlns:svg="http://www.w3.org/2000/svg"
   xmlns:rdf="http://www.w3.org/1999/02/22-rdf-syntax-ns#"
   xmlns:cc="http://creativecommons.org/ns#"><defs
     id="defs1"><linearGradient
       id="swatch76"><stop
         style="stop-color:#000000;stop-opacity:1;"
         offset="0"
         id="stop76" /></linearGradient><linearGradient
       id="swatch75"><stop
         style="stop-color:#000000;stop-opacity:1;"
         offset="0"
         id="stop75" /></linearGradient><linearGradient
       id="swatch74"><stop
         style="stop-color:#000000;stop-opacity:0;"
         offset="0"
         id="stop74" /></linearGradient><linearGradient
       id="swatch64"><stop
         style="stop-color:#000000;stop-opacity:0;"
         offset="0"
         id="stop64" /></linearGradient><linearGradient
       id="swatch61"><stop
         style="stop-color:#000000;stop-opacity:1;"
         offset="0"
         id="stop61" /></linearGradient></defs><path
     style="baseline-shift:baseline;display:inline;overflow:visible;opacity:1;vector-effect:none;stroke-linejoin:round;stroke-dashoffset:2;enable-background:accumulate;stop-color:#000000;stop-opacity:1"
     d="m 9.9999416,12.000397 v 2 H 37.99994 v -2 z"
     id="path155-1" /><path
     style="baseline-shift:baseline;display:inline;overflow:visible;opacity:1;vector-effect:none;stroke-linejoin:round;stroke-dashoffset:2;enable-background:accumulate;stop-color:#000000;stop-opacity:1"
     d="m 9.9999416,34.000397 v 2 H 37.99994 v -2 z"
     id="path153-5" /><path
     style="baseline-shift:baseline;display:inline;overflow:visible;opacity:1;vector-effect:none;stroke-linejoin:round;stroke-dashoffset:2;enable-background:accumulate;stop-color:#000000;stop-opacity:1"
     d="m 41.99994,24.000397 c 0,-3.11126 -0.3372,-5.92584 -0.91406,-8.04102 -0.28844,-1.05758 -0.6293,-1.94064 -1.07813,-2.63671 -0.44883,-0.69608 -1.09819,-1.32227 -2.00781,-1.32227 -0.90962,0 -1.55898,0.62619 -2.00781,1.32227 -0.44883,0.69607 -0.78969,1.57913 -1.07813,2.63671 -0.57686,2.11518 -0.91406,4.92976 -0.91406,8.04102 0,3.11126 0.3372,5.92584 0.91406,8.04102 0.28844,1.05758 0.6293,1.94064 1.07813,2.63671 0.44883,0.69608 1.09819,1.32227 2.00781,1.32227 0.90962,0 1.55898,-0.62619 2.00781,-1.32227 0.44883,-0.69607 0.78969,-1.57913 1.07813,-2.63671 0.57686,-2.11518 0.91406,-4.92976 0.91406,-8.04102 z m -2,0 c 0,2.96387 -0.33483,5.64959 -0.84375,7.51562 -0.25446,0.93302 -0.55913,1.66095 -0.82813,2.07813 -0.269,0.41718 -0.40931,0.40625 -0.32812,0.40625 0.0812,0 -0.0591,0.0109 -0.32813,-0.40625 -0.269,-0.41718 -0.57366,-1.14511 -0.82812,-2.07813 -0.50892,-1.86603 -0.84375,-4.55175 -0.84375,-7.51562 0,-2.96387 0.33483,-5.64959 0.84375,-7.51563 0.25446,-0.93301 0.55912,-1.66094 0.82812,-2.07812 0.269,-0.41718 0.40932,-0.40625 0.32813,-0.40625 -0.0812,0 0.0591,-0.0109 0.32812,0.40625 0.269,0.41718 0.57367,1.14511 0.82813,2.07812 0.50892,1.86604 0.84375,4.55176 0.84375,7.51563 z"
     id="path152-8" /><path
     style="baseline-shift:baseline;display:inline;overflow:visible;opacity:1;vector-effect:none;stroke-linejoin:round;stroke-dashoffset:2;enable-background:accumulate;stop-color:#000000;stop-opacity:1"
     d="m 21.113222,12.250397 c -0.78576,0 -1.37053,0.54582 -1.79687,1.20703 -0.42635,0.66121 -0.76269,1.5244 -1.04688,2.56641 -0.56838,2.08401 -0.90625,4.88374 -0.90625,7.97656 0,3.09282 0.33787,5.89057 0.90625,7.97461 0.28419,1.04202 0.62053,1.90519 1.04688,2.56641 0.42634,0.66121 1.0111,1.20898 1.79687,1.20898 v -1.5 c -0.0426,0 -0.24563,-0.0694 -0.53711,-0.52148 -0.29148,-0.45205 -0.60066,-1.19985 -0.85937,-2.14844 -0.51742,-1.89719 -0.85352,-4.5978 -0.85352,-7.58008 0,-2.98228 0.3361,-5.68487 0.85352,-7.58203 0.25871,-0.94858 0.56789,-1.69445 0.85937,-2.14649 0.29148,-0.45204 0.49447,-0.52148 0.53711,-0.52148 z"
     id="path152-31-9-7" /><path
     style="baseline-shift:baseline;display:inline;overflow:visible;opacity:1;vector-effect:none;stroke-linejoin:round;stroke-dashoffset:2;enable-background:accumulate;stop-color:#000000;stop-opacity:1"
     d="m 15.568302,12.250397 c -0.78576,0 -1.37248,0.54582 -1.79883,1.20703 -0.42635,0.66121 -0.76073,1.5244 -1.04492,2.56641 -0.56838,2.08401 -0.90625,4.88374 -0.90625,7.97656 0,3.09282 0.33787,5.89057 0.90625,7.97461 0.28419,1.04202 0.61857,1.90519 1.04492,2.56641 0.42635,0.66121 1.01306,1.20898 1.79883,1.20898 v -1.5 c -0.0426,0 -0.24563,-0.0694 -0.53711,-0.52148 -0.29148,-0.45205 -0.60262,-1.19985 -0.86133,-2.14844 -0.51742,-1.89719 -0.85156,-4.5978 -0.85156,-7.58008 0,-2.98228 0.33414,-5.68487 0.85156,-7.58203 0.25871,-0.94858 0.56985,-1.69445 0.86133,-2.14649 0.29148,-0.45204 0.49447,-0.52148 0.53711,-0.52148 z"
     id="path152-31-9-7-8" /><path
     style="baseline-shift:baseline;display:inline;overflow:visible;opacity:1;vector-effect:none;stroke-linejoin:round;stroke-dashoffset:2;enable-background:accumulate;stop-color:#000000;stop-opacity:1"
     d="m 26.660102,12.250397 c -0.78576,0 -1.37248,0.54582 -1.79883,1.20703 -0.42635,0.66121 -0.76269,1.5244 -1.04688,2.56641 -0.56838,2.08401 -0.90429,4.88374 -0.90429,7.97656 0,3.09282 0.33591,5.89057 0.90429,7.97461 0.28419,1.04202 0.62053,1.90519 1.04688,2.56641 0.42634,0.66121 1.01306,1.20898 1.79883,1.20898 v -1.5 c -0.0426,0 -0.24759,-0.0694 -0.53907,-0.52148 -0.29147,-0.45205 -0.60066,-1.19985 -0.85937,-2.14844 -0.51742,-1.89719 -0.85156,-4.5978 -0.85156,-7.58008 0,-2.98228 0.33414,-5.68487 0.85156,-7.58203 0.25871,-0.94858 0.5679,-1.69445 0.85937,-2.14649 0.29148,-0.45204 0.49643,-0.52148 0.53907,-0.52148 z"
     id="path152-31-9-7-1" /><path
     style="baseline-shift:baseline;display:inline;overflow:visible;opacity:1;vector-effect:none;stroke-linejoin:round;stroke-dashoffset:2;enable-background:accumulate;stop-color:#000000;stop-opacity:1"
     d="m 32.20502,12.250397 c -0.78576,0 -1.37248,0.54582 -1.79883,1.20703 -0.42635,0.66121 -0.76269,1.5244 -1.04688,2.56641 -0.56838,2.08401 -0.90429,4.88374 -0.90429,7.97656 0,3.09282 0.33591,5.89057 0.90429,7.97461 0.28419,1.04202 0.62053,1.90519 1.04688,2.56641 0.42635,0.66121 1.01306,1.20898 1.79883,1.20898 v -1.5 c -0.0426,0 -0.24563,-0.0694 -0.53711,-0.52148 -0.29148,-0.45205 -0.60262,-1.19985 -0.86133,-2.14844 -0.51742,-1.89719 -0.85156,-4.5978 -0.85156,-7.58008 0,-2.98228 0.33414,-5.68487 0.85156,-7.58203 0.25871,-0.94858 0.56985,-1.69445 0.86133,-2.14649 0.29148,-0.45204 0.49447,-0.52148 0.53711,-0.52148 z"
     id="path152-31-9-7-81" /><path
     style="baseline-shift:baseline;display:inline;overflow:visible;opacity:1;vector-effect:none;stroke-linejoin:round;stroke-dashoffset:2;enable-background:accumulate;stop-color:#000000;stop-opacity:1"
     d="m 9.9999416,12.000397 c -0.90961,0 -1.55899,0.6262 -2.00781,1.32227 -0.44883,0.69606 -0.78969,1.57914 -1.07813,2.63671 -0.57687,2.11516 -0.91406,4.92977 -0.91406,8.04102 0,3.11125 0.33719,5.92584 0.91406,8.04102 0.28844,1.05759 0.6293,1.94064 1.07813,2.63671 0.44882,0.69608 1.09819,1.32227 2.00781,1.32227 v -2 c 0.0812,0 -0.0591,0.0109 -0.32813,-0.40625 -0.269,-0.41719 -0.57366,-1.14706 -0.82812,-2.08008 -0.50893,-1.86604 -0.84375,-4.54982 -0.84375,-7.51367 0,-2.96385 0.33482,-5.64961 0.84375,-7.51563 0.25446,-0.933 0.55913,-1.66094 0.82812,-2.07812 0.269,-0.41718 0.4093404,-0.40625 0.32813,-0.40625 z"
     id="path152-3-2" /><metadata
     id="metadata32"><rdf:RDF><cc:Work
         rdf:about="" /></rdf:RDF></metadata></svg>
