<?xml version="1.0" encoding="UTF-8" standalone="no"?>
<!-- Created with Inkscape (http://www.inkscape.org/) -->

<svg
   width="48"
   height="48"
   viewBox="0 0 48 48"
   version="1.1"
   id="svg1"
   xml:space="preserve"
   xmlns="http://www.w3.org/2000/svg"
   xmlns:svg="http://www.w3.org/2000/svg"
   xmlns:rdf="http://www.w3.org/1999/02/22-rdf-syntax-ns#"
   xmlns:cc="http://creativecommons.org/ns#"><defs
     id="defs1"><linearGradient
       id="swatch76"><stop
         style="stop-color:#000000;stop-opacity:1;"
         offset="0"
         id="stop76" /></linearGradient><linearGradient
       id="swatch75"><stop
         style="stop-color:#000000;stop-opacity:1;"
         offset="0"
         id="stop75" /></linearGradient><linearGradient
       id="swatch74"><stop
         style="stop-color:#000000;stop-opacity:0;"
         offset="0"
         id="stop74" /></linearGradient><linearGradient
       id="swatch64"><stop
         style="stop-color:#000000;stop-opacity:0;"
         offset="0"
         id="stop64" /></linearGradient><linearGradient
       id="swatch61"><stop
         style="stop-color:#000000;stop-opacity:1;"
         offset="0"
         id="stop61" /></linearGradient></defs><g
     id="layer1"
     transform="translate(-134.40083,-327.53206)"><g
       style="fill:#000000"
       id="g132"
       transform="matrix(0.28781414,0,0,0.28781414,124.84148,4.2415714)" /><path
       style="fill:none;stroke:#000000;stroke-width:2;stroke-linejoin:round;stroke-dashoffset:2"
       d="m 144.40087,340.53206 27.9999,10e-6"
       id="path155-1" /><path
       style="fill:none;stroke:#000000;stroke-width:2;stroke-linejoin:round;stroke-dashoffset:2"
       d="m 172.40087,362.53206 h -28"
       id="path153-5" /><path
       id="path152-8"
       style="fill:none;stroke:#000000;stroke-width:2;stroke-linejoin:round;stroke-dashoffset:2"
       transform="rotate(90)"
       d="m 362.53207,-172.40082 a 10.999992,2.9999993 0 0 1 -11,3 10.999992,2.9999993 0 0 1 -10.99999,-3 10.999992,2.9999993 0 0 1 10.99999,-3 10.999992,2.9999993 0 0 1 11,3 z" /><path
       style="fill:none;stroke:#000000;stroke-width:1.5;stroke-linejoin:round;stroke-dasharray:none;stroke-dashoffset:2"
       d="m 155.51467,362.53204 c -1.6568,0 -3,-4.9249 -3,-11 0,-6.0751 1.3432,-10.9999 3,-10.9999"
       id="path152-31-9-7" /><path
       style="fill:none;stroke:#000000;stroke-width:1.5;stroke-linejoin:round;stroke-dasharray:none;stroke-dashoffset:2"
       d="m 149.96927,362.53206 c -1.6568,0 -3,-4.9249 -3,-11 0,-6.0751 1.3432,-10.9999 3,-10.9999"
       id="path152-31-9-7-8" /><path
       style="fill:none;stroke:#000000;stroke-width:1.5;stroke-linejoin:round;stroke-dasharray:none;stroke-dashoffset:2"
       d="m 161.06007,362.53201 c -1.6568,0 -3,-4.9249 -3,-11 0,-6.0751 1.3432,-10.9999 3,-10.9999"
       id="path152-31-9-7-1" /><path
       style="fill:none;stroke:#000000;stroke-width:1.5;stroke-linejoin:round;stroke-dasharray:none;stroke-dashoffset:2"
       d="m 166.60547,362.53204 c -1.6568,0 -3,-4.9249 -3,-11 0,-6.0751 1.3432,-10.9999 3,-10.9999"
       id="path152-31-9-7-81" /><path
       style="fill:none;stroke:#000000;stroke-width:2;stroke-linejoin:round;stroke-dashoffset:2"
       d="m 144.40087,362.53206 c -1.6568,0 -3,-4.9249 -3,-11 0,-6.0751 1.3432,-10.9999 3,-10.9999"
       id="path152-3-2" /></g><metadata
     id="metadata32"><rdf:RDF><cc:Work
         rdf:about="" /></rdf:RDF></metadata></svg>
