<?xml version="1.0" encoding="UTF-8" standalone="no"?>
<!-- Created with Inkscape (http://www.inkscape.org/) -->

<svg
   width="48"
   height="48"
   viewBox="0 0 48 48"
   version="1.1"
   id="svg1"
   xml:space="preserve"
   xmlns="http://www.w3.org/2000/svg"
   xmlns:svg="http://www.w3.org/2000/svg"
   xmlns:rdf="http://www.w3.org/1999/02/22-rdf-syntax-ns#"
   xmlns:cc="http://creativecommons.org/ns#"><defs
     id="defs1"><linearGradient
       id="swatch76"><stop
         style="stop-color:#000000;stop-opacity:1;"
         offset="0"
         id="stop76" /></linearGradient><linearGradient
       id="swatch75"><stop
         style="stop-color:#000000;stop-opacity:1;"
         offset="0"
         id="stop75" /></linearGradient><linearGradient
       id="swatch74"><stop
         style="stop-color:#000000;stop-opacity:0;"
         offset="0"
         id="stop74" /></linearGradient><linearGradient
       id="swatch64"><stop
         style="stop-color:#000000;stop-opacity:0;"
         offset="0"
         id="stop64" /></linearGradient><linearGradient
       id="swatch61"><stop
         style="stop-color:#000000;stop-opacity:1;"
         offset="0"
         id="stop61" /></linearGradient></defs><g
     id="layer1"
     transform="translate(-422.02946,-255.16042)"><g
       style="fill:#000000"
       id="g132"
       transform="matrix(0.28781414,0,0,0.28781414,124.84148,4.2415714)" /><path
       id="circle114-5-3"
       style="stroke-width:1.00968;stroke-dasharray:3.02904, 3.02904"
       d="m 442.97427,265.16043 a 1.0000001,1.0000001 0 0 1 -1,1 1.0000001,1.0000001 0 0 1 -1,-1 1.0000001,1.0000001 0 0 1 1,-1 1.0000001,1.0000001 0 0 1 1,1 z" /><path
       id="circle115-5-0"
       style="stroke-width:1.00968;stroke-dasharray:3.02904, 3.02904"
       d="m 442.97427,270.16043 a 1.0000001,1.0000001 0 0 1 -1,1 1.0000001,1.0000001 0 0 1 -1,-1 1.0000001,1.0000001 0 0 1 1,-1 1.0000001,1.0000001 0 0 1 1,1 z" /><path
       id="circle117-4-2"
       style="stroke-width:1.00968;stroke-dasharray:3.02904, 3.02904"
       d="m 442.97427,275.16043 a 1.0000001,1.0000001 0 0 1 -1,1 1.0000001,1.0000001 0 0 1 -1,-1 1.0000001,1.0000001 0 0 1 1,-1 1.0000001,1.0000001 0 0 1 1,1 z" /><path
       id="circle119-3-6"
       style="stroke-width:1.00968;stroke-dasharray:3.02904, 3.02904"
       d="m 442.97427,280.16043 a 1.0000001,1.0000001 0 0 1 -1,1 1.0000001,1.0000001 0 0 1 -1,-1 1.0000001,1.0000001 0 0 1 1,-1 1.0000001,1.0000001 0 0 1 1,1 z" /><path
       id="circle121-4-4"
       style="stroke-width:1.02323;stroke-dasharray:3.06969, 3.06969"
       d="m 442.98769,285.17386 a 1.0134166,1.0134166 0 0 1 -1.01342,1.01342 1.0134166,1.0134166 0 0 1 -1.01341,-1.01342 1.0134166,1.0134166 0 0 1 1.01341,-1.01342 1.0134166,1.0134166 0 0 1 1.01342,1.01342 z" /><path
       style="fill:none;fill-opacity:0.235294;stroke:#000000;stroke-width:2;stroke-linecap:butt;stroke-linejoin:round;stroke-dasharray:none;stroke-dashoffset:2;stroke-opacity:1"
       d="m 438.02951,262.16043 v 31 h 16 v -31 z"
       id="path134-9-6" /><path
       style="fill:none;fill-opacity:0.235294;stroke:#000000;stroke-width:1;stroke-linecap:butt;stroke-linejoin:round;stroke-dasharray:none;stroke-dashoffset:2;stroke-opacity:1"
       d="m 439.02921,267.66043 h 14.0005"
       id="path142-8-4" /><path
       style="fill:none;fill-opacity:0.235294;stroke:#000000;stroke-width:1;stroke-linecap:butt;stroke-linejoin:round;stroke-dasharray:none;stroke-dashoffset:2;stroke-opacity:1"
       d="m 439.02921,272.66043 h 14.0005"
       id="path145-6-4" /><path
       style="fill:none;fill-opacity:0.235294;stroke:#000000;stroke-width:1;stroke-linecap:butt;stroke-linejoin:round;stroke-dasharray:none;stroke-dashoffset:2;stroke-opacity:1"
       d="m 439.02921,277.66043 h 14.0005"
       id="path146-6-7" /><path
       style="fill:none;fill-opacity:0.235294;stroke:#000000;stroke-width:1;stroke-linecap:butt;stroke-linejoin:round;stroke-dasharray:none;stroke-dashoffset:2;stroke-opacity:1"
       d="m 439.02921,282.66043 h 14.0005"
       id="path147-2-3" /><path
       style="fill:none;fill-opacity:0.235294;stroke:#000000;stroke-width:1;stroke-linecap:butt;stroke-linejoin:round;stroke-dasharray:none;stroke-dashoffset:2;stroke-opacity:1"
       d="m 439.02921,287.66043 h 14.0005"
       id="path148-4-2" /><path
       style="fill:none;fill-opacity:0.235294;stroke:#000000;stroke-width:2;stroke-linecap:round;stroke-linejoin:round;stroke-dasharray:none;stroke-dashoffset:2;stroke-opacity:1"
       d="m 438.02921,296.16043 h 16"
       id="path150-2-6" /><path
       id="circle270"
       style="stroke-width:1.02323;stroke-dasharray:3.06969, 3.06969"
       d="m 442.98769,290.20068 a 1.0134166,1.0134166 0 0 1 -1.01342,1.01342 1.0134166,1.0134166 0 0 1 -1.01341,-1.01342 1.0134166,1.0134166 0 0 1 1.01341,-1.01341 1.0134166,1.0134166 0 0 1 1.01342,1.01341 z" /></g><metadata
     id="metadata32"><rdf:RDF><cc:Work
         rdf:about="" /></rdf:RDF></metadata></svg>
