<?xml version="1.0" encoding="UTF-8" standalone="no"?>
<!-- Created with Inkscape (http://www.inkscape.org/) -->

<svg
   width="48"
   height="48"
   viewBox="0 0 48 48"
   version="1.1"
   id="svg1"
   xml:space="preserve"
   xmlns="http://www.w3.org/2000/svg"
   xmlns:svg="http://www.w3.org/2000/svg"
   xmlns:rdf="http://www.w3.org/1999/02/22-rdf-syntax-ns#"
   xmlns:cc="http://creativecommons.org/ns#"><defs
     id="defs1"><linearGradient
       id="swatch76"><stop
         style="stop-color:#000000;stop-opacity:1;"
         offset="0"
         id="stop76" /></linearGradient><linearGradient
       id="swatch75"><stop
         style="stop-color:#000000;stop-opacity:1;"
         offset="0"
         id="stop75" /></linearGradient><linearGradient
       id="swatch74"><stop
         style="stop-color:#000000;stop-opacity:0;"
         offset="0"
         id="stop74" /></linearGradient><linearGradient
       id="swatch64"><stop
         style="stop-color:#000000;stop-opacity:0;"
         offset="0"
         id="stop64" /></linearGradient><linearGradient
       id="swatch61"><stop
         style="stop-color:#000000;stop-opacity:1;"
         offset="0"
         id="stop61" /></linearGradient></defs><path
     id="circle114-5-3"
     style="stroke-width:1.00968;stroke-dasharray:3.02904, 3.02904"
     d="m 20.944828,10.00002 a 1.0000001,1.0000001 0 0 1 -1,1 1.0000001,1.0000001 0 0 1 -1,-1 1.0000001,1.0000001 0 0 1 1,-1.0000002 1.0000001,1.0000001 0 0 1 1,1.0000002 z" /><path
     id="circle115-5-0"
     style="stroke-width:1.00968;stroke-dasharray:3.02904, 3.02904"
     d="m 20.944828,15.00002 a 1.0000001,1.0000001 0 0 1 -1,1 1.0000001,1.0000001 0 0 1 -1,-1 1.0000001,1.0000001 0 0 1 1,-1 1.0000001,1.0000001 0 0 1 1,1 z" /><path
     id="circle117-4-2"
     style="stroke-width:1.00968;stroke-dasharray:3.02904, 3.02904"
     d="m 20.944828,20.00002 a 1.0000001,1.0000001 0 0 1 -1,1 1.0000001,1.0000001 0 0 1 -1,-1 1.0000001,1.0000001 0 0 1 1,-1 1.0000001,1.0000001 0 0 1 1,1 z" /><path
     id="circle119-3-6"
     style="stroke-width:1.00968;stroke-dasharray:3.02904, 3.02904"
     d="m 20.944828,25.00002 a 1.0000001,1.0000001 0 0 1 -1,1 1.0000001,1.0000001 0 0 1 -1,-1 1.0000001,1.0000001 0 0 1 1,-1 1.0000001,1.0000001 0 0 1 1,1 z" /><path
     id="circle121-4-4"
     style="stroke-width:1.02323;stroke-dasharray:3.06969, 3.06969"
     d="m 20.958238,30.01344 a 1.0134166,1.0134166 0 0 1 -1.01341,1.01342 1.0134166,1.0134166 0 0 1 -1.01342,-1.01342 1.0134166,1.0134166 0 0 1 1.01342,-1.01341 1.0134166,1.0134166 0 0 1 1.01341,1.01341 z" /><path
     style="baseline-shift:baseline;display:inline;overflow:visible;opacity:1;vector-effect:none;stroke-linejoin:round;stroke-dashoffset:2;enable-background:accumulate;stop-color:#000000;stop-opacity:1"
     d="m 16.000218,6.0009498 a 1.0001,1.0001 0 0 0 -1,1 V 38.00095 a 1.0001,1.0001 0 0 0 1,1 h 16 a 1.0001,1.0001 0 0 0 1,-1 V 7.0009498 a 1.0001,1.0001 0 0 0 -1,-1 z m 1,2 h 14 V 37.00095 h -14 z"
     id="path134-9-6" /><path
     style="baseline-shift:baseline;display:inline;overflow:visible;opacity:1;vector-effect:none;stroke-linejoin:round;stroke-dashoffset:2;enable-background:accumulate;stop-color:#000000;stop-opacity:1"
     d="m 17.000218,12.00095 v 1 h 14 v -1 z"
     id="path142-8-4" /><path
     style="baseline-shift:baseline;display:inline;overflow:visible;opacity:1;vector-effect:none;stroke-linejoin:round;stroke-dashoffset:2;enable-background:accumulate;stop-color:#000000;stop-opacity:1"
     d="m 17.000218,17.00095 v 1 h 14 v -1 z"
     id="path145-6-4" /><path
     style="baseline-shift:baseline;display:inline;overflow:visible;opacity:1;vector-effect:none;stroke-linejoin:round;stroke-dashoffset:2;enable-background:accumulate;stop-color:#000000;stop-opacity:1"
     d="m 17.000218,22.00095 v 1 h 14 v -1 z"
     id="path146-6-7" /><path
     style="baseline-shift:baseline;display:inline;overflow:visible;opacity:1;vector-effect:none;stroke-linejoin:round;stroke-dashoffset:2;enable-background:accumulate;stop-color:#000000;stop-opacity:1"
     d="m 17.000218,27.00095 v 1 h 14 v -1 z"
     id="path147-2-3" /><path
     style="baseline-shift:baseline;display:inline;overflow:visible;opacity:1;vector-effect:none;stroke-linejoin:round;stroke-dashoffset:2;enable-background:accumulate;stop-color:#000000;stop-opacity:1"
     d="m 17.000218,32.00095 v 1 h 14 v -1 z"
     id="path148-4-2" /><path
     style="baseline-shift:baseline;display:inline;overflow:visible;opacity:1;vector-effect:none;stroke-linecap:round;stroke-linejoin:round;stroke-dashoffset:2;enable-background:accumulate;stop-color:#000000;stop-opacity:1"
     d="m 16.000218,40.00095 a 1,1 0 0 0 -1,1 1,1 0 0 0 1,1 h 16 a 1,1 0 0 0 1,-1 1,1 0 0 0 -1,-1 z"
     id="path150-2-6" /><path
     id="circle270"
     style="stroke-width:1.02323;stroke-dasharray:3.06969, 3.06969"
     d="m 20.958238,35.04027 a 1.0134166,1.0134166 0 0 1 -1.01341,1.01341 1.0134166,1.0134166 0 0 1 -1.01342,-1.01341 1.0134166,1.0134166 0 0 1 1.01342,-1.01342 1.0134166,1.0134166 0 0 1 1.01341,1.01342 z" /><metadata
     id="metadata32"><rdf:RDF><cc:Work
         rdf:about="" /></rdf:RDF></metadata></svg>
