<?xml version="1.0" encoding="UTF-8" standalone="no"?>
<!-- Created with Inkscape (http://www.inkscape.org/) -->

<svg
   width="48"
   height="48"
   viewBox="0 0 48 48"
   version="1.1"
   id="svg1"
   xml:space="preserve"
   xmlns="http://www.w3.org/2000/svg"
   xmlns:svg="http://www.w3.org/2000/svg"
   xmlns:rdf="http://www.w3.org/1999/02/22-rdf-syntax-ns#"
   xmlns:cc="http://creativecommons.org/ns#"><defs
     id="defs1"><linearGradient
       id="swatch76"><stop
         style="stop-color:#000000;stop-opacity:1;"
         offset="0"
         id="stop76" /></linearGradient><linearGradient
       id="swatch75"><stop
         style="stop-color:#000000;stop-opacity:1;"
         offset="0"
         id="stop75" /></linearGradient><linearGradient
       id="swatch74"><stop
         style="stop-color:#000000;stop-opacity:0;"
         offset="0"
         id="stop74" /></linearGradient><linearGradient
       id="swatch64"><stop
         style="stop-color:#000000;stop-opacity:0;"
         offset="0"
         id="stop64" /></linearGradient><linearGradient
       id="swatch61"><stop
         style="stop-color:#000000;stop-opacity:1;"
         offset="0"
         id="stop61" /></linearGradient></defs><path
     style="baseline-shift:baseline;display:inline;overflow:visible;opacity:1;vector-effect:none;stroke-linejoin:round;stroke-dasharray:4, 2;stroke-dashoffset:4.8;paint-order:stroke fill markers;enable-background:accumulate;stop-color:#000000;stop-opacity:1"
     d="m 22.144471,2.078125 0.167968,1.9921875 c 1.265753,-0.1061955 2.541717,-0.092205 3.804688,0.041016 L 26.328064,2.1230469 C 24.939296,1.976557 23.535827,1.9613915 22.144471,2.078125 Z M 20.068299,2.3496094 C 18.69315,2.5973868 17.342041,2.9774407 16.039002,3.484375 l 0.726562,1.8652344 c 1.182107,-0.4598866 2.409097,-0.8061832 3.658203,-1.03125 z m 8.328121,0.089844 -0.396481,1.9609375 c 1.243871,0.2520885 2.464731,0.6239365 3.636721,1.109375 L 32.40033,3.6621094 C 31.10867,3.1271001 29.766,2.7170168 28.39642,2.4394534 Z M 14.126892,4.3359375 C 12.87787,4.9633644 11.690085,5.7096838 10.583924,6.5625 l 1.220703,1.5839844 C 12.810255,7.3711767 13.88953,6.6926169 15.023377,6.1230469 Z M 34.29486,4.5527344 33.35931,6.3203125 c 1.12127,0.5941751 2.18647,1.2971188 3.17579,2.09375 L 37.789,6.8574219 C 36.70139,5.9816403 35.52989,5.2071965 34.29486,4.5527344 Z M 8.9882206,7.9179687 c -1.021328,0.9531371 -1.95243,2.0025321 -2.775391,3.1308593 l 1.617187,1.179688 c 0.748433,-1.026145 1.593225,-1.981373 2.5214854,-2.8476566 z M 39.35541,8.2460938 37.95892,9.6777344 c 0.90957,0.8865396 1.73563,1.8605536 2.46094,2.9023436 l 1.64258,-1.144531 C 41.26408,10.288836 40.35543,9.2207978 39.35541,8.2460938 Z M 5.0624386,12.798828 c -0.712321,1.20156 -1.310995,2.470299 -1.78125,3.787109 l 1.882813,0.673829 c 0.426581,-1.194515 0.969692,-2.349196 1.617187,-3.441407 z m 38.1132814,0.410156 -1.74219,0.982422 c 0.62389,1.105246 1.14223,2.270926 1.54297,3.47461 l 1.89844,-0.63086 c -0.44159,-1.326373 -1.01231,-2.609292 -1.69922,-3.826172 z m -40.5039064,5.38086 c -0.343438,1.35501 -0.556016,2.741982 -0.634765,4.136718 l 1.996093,0.113282 c 0.07157,-1.267504 0.264469,-2.529963 0.576172,-3.759766 z M 45.44135,19.050781 43.49213,19.5 c 0.28456,1.236797 0.44935,2.502396 0.49414,3.771484 l 2,-0.07031 c -0.0493,-1.395848 -0.23156,-2.788418 -0.54492,-4.150391 z m -41.4277394,5.695313 -1.998047,0.07227 c 0.05055,1.395792 0.232562,2.786779 0.546875,4.148438 l 1.949219,-0.449219 C 4.2261826,27.28085 4.0595686,26.015201 4.0136106,24.746094 Z M 43.96674,25.144531 c -0.0706,1.26762 -0.26156,2.527835 -0.57227,3.757813 l 1.93945,0.490234 c 0.34239,-1.355354 0.55325,-2.741986 0.63086,-4.136719 z m -38.9375044,5.205078 -1.896484,0.632813 c 0.442785,1.325824 1.013073,2.60786 1.701172,3.824219 l 1.740234,-0.984375 c -0.624854,-1.104561 -1.143012,-2.269225 -1.544922,-3.472657 z m 37.8125044,0.375 c -0.42556,1.194833 -0.96874,2.350355 -1.61524,3.44336 l 1.72071,1.017578 c 0.71104,-1.202134 1.30817,-2.471781 1.77734,-3.789063 z m -35.2519574,4.710938 -1.640625,1.142578 c 0.799255,1.14608 1.707958,2.215639 2.708984,3.189453 L 10.052674,38.333984 C 9.1423426,37.448401 8.3158956,36.476746 7.5897826,35.435547 Z M 40.17963,35.757812 c -0.74735,1.026766 -1.59197,1.98265 -2.51953,2.84961 l 1.36523,1.46289 c 1.02061,-0.953921 1.94956,-2.005548 2.77148,-3.134765 z m -28.701175,3.837891 -1.253906,1.558594 c 1.088422,0.875297 2.260891,1.647281 3.496093,2.300781 L 14.656189,41.6875 c -1.121903,-0.593558 -2.18814,-1.295976 -3.177734,-2.091797 z m 24.730465,0.246094 c -1.00481,0.776179 -2.08535,1.456792 -3.21875,2.027344 l 0.90039,1.787109 c 1.24844,-0.628464 2.43557,-1.37656 3.54102,-2.230469 z m -19.830074,2.654297 -0.763672,1.849609 c 1.29199,0.533691 2.635792,0.942514 4.005859,1.21875 l 0.394531,-1.960937 c -1.243913,-0.250801 -2.464102,-0.623042 -3.636718,-1.107422 z m 14.873044,0.148437 c -1.18188,0.46085 -2.40944,0.807287 -3.658201,1.033203 l 0.355469,1.96875 c 1.375172,-0.248785 2.726802,-0.63079 4.029302,-1.138672 z m -9.353513,1.246094 -0.207031,1.990234 c 1.388804,0.145189 2.790337,0.158895 4.18164,0.04102 l -0.167969,-1.994141 c -1.265646,0.107233 -2.543432,0.09495 -3.80664,-0.03711 z"
     id="path139-7" /><path
     style="baseline-shift:baseline;display:inline;overflow:visible;opacity:1;vector-effect:none;stroke-linejoin:round;paint-order:stroke fill markers;enable-background:accumulate;stop-color:#000000;stop-opacity:1"
     d="M 22.999939,11.972656 V 36 h 2 V 11.972656 Z"
     id="path140-8" /><path
     style="baseline-shift:baseline;display:inline;overflow:visible;opacity:1;vector-effect:none;stroke-linejoin:round;paint-order:stroke fill markers;enable-background:accumulate;stop-color:#000000;stop-opacity:1"
     d="m 5.9999386,23 v 2 h 9.0273444 v -2 z"
     id="path143-2" /><path
     style="baseline-shift:baseline;display:inline;overflow:visible;opacity:1;vector-effect:none;stroke-linejoin:round;paint-order:stroke fill markers;enable-background:accumulate;stop-color:#000000;stop-opacity:1"
     d="m 32.9726,23 v 2 h 9.02734 v -2 z"
     id="path144-5" /><path
     style="fill:#000000;fill-opacity:1;fill-rule:nonzero;stroke:none;stroke-width:2;stroke-linecap:square;stroke-linejoin:round;stroke-dasharray:none;stroke-opacity:1;paint-order:stroke fill markers"
     d="m 26.999975,24 5.972285,3 v -6 z"
     id="path11-5-4" /><path
     style="fill:#000000;fill-opacity:1;fill-rule:nonzero;stroke:none;stroke-width:2;stroke-linecap:square;stroke-linejoin:round;stroke-dasharray:none;stroke-opacity:1;paint-order:stroke fill markers"
     d="m 20.999975,24 -5.97228,-3 v 6 z"
     id="path15-4-5" /><path
     style="fill:#000000;fill-opacity:1;fill-rule:nonzero;stroke:none;stroke-width:2;stroke-linecap:square;stroke-linejoin:round;stroke-dasharray:none;stroke-opacity:1;paint-order:stroke fill markers"
     d="m 23.999975,6 -3,5.97228 h 6 z"
     id="path16-3" /><path
     style="fill:#000000;fill-opacity:1;fill-rule:nonzero;stroke:none;stroke-width:2;stroke-linecap:square;stroke-linejoin:round;stroke-dasharray:none;stroke-opacity:1;paint-order:stroke fill markers"
     d="m 23.999975,42 3,-5.97228 h -6 z"
     id="path17-0" /><metadata
     id="metadata32"><rdf:RDF><cc:Work
         rdf:about="" /></rdf:RDF></metadata></svg>
