<?xml version="1.0" encoding="UTF-8" standalone="no"?>
<!-- Created with Inkscape (http://www.inkscape.org/) -->

<svg
   width="48"
   height="48"
   viewBox="0 0 48 48"
   version="1.1"
   id="svg1"
   xml:space="preserve"
   xmlns="http://www.w3.org/2000/svg"
   xmlns:svg="http://www.w3.org/2000/svg"
   xmlns:rdf="http://www.w3.org/1999/02/22-rdf-syntax-ns#"
   xmlns:cc="http://creativecommons.org/ns#"><defs
     id="defs1"><linearGradient
       id="swatch76"><stop
         style="stop-color:#000000;stop-opacity:1;"
         offset="0"
         id="stop76" /></linearGradient><linearGradient
       id="swatch75"><stop
         style="stop-color:#000000;stop-opacity:1;"
         offset="0"
         id="stop75" /></linearGradient><linearGradient
       id="swatch74"><stop
         style="stop-color:#000000;stop-opacity:0;"
         offset="0"
         id="stop74" /></linearGradient><linearGradient
       id="swatch64"><stop
         style="stop-color:#000000;stop-opacity:0;"
         offset="0"
         id="stop64" /></linearGradient><linearGradient
       id="swatch61"><stop
         style="stop-color:#000000;stop-opacity:1;"
         offset="0"
         id="stop61" /></linearGradient></defs><g
     id="layer1"
     transform="translate(-422.02946,-182.90746)"><g
       style="fill:#000000"
       id="g132"
       transform="matrix(0.28781414,0,0,0.28781414,124.84148,4.2415714)" /><path
       id="path88-9"
       transform="translate(301.60223,129.99999)"
       d="m 125.42722,57.907459 h 38 a 2,2 45 0 1 2,2 v 6.000004 a 2,2 135 0 1 -2,2 h -38 a 2,2 45 0 1 -2,-2 v -6.000004 a 2,2 135 0 1 2,-2 z"
       style="fill:none;stroke:#000000;stroke-width:2;stroke-linejoin:miter;stroke-dasharray:none;stroke-opacity:1" /><path
       id="path67-4-1"
       style="stroke-width:1.00968;stroke-dasharray:3.02904, 3.02904"
       d="m 432.02945,192.90746 a 1.0000014,1.0000014 0 0 1 -1,1 1.0000014,1.0000014 0 0 1 -1,-1 1.0000014,1.0000014 0 0 1 1,-1.00001 1.0000014,1.0000014 0 0 1 1,1.00001 z" /><path
       id="path93"
       transform="translate(301.60224,158)"
       d="m 125.42722,57.907459 h 38 a 2,2 45 0 1 2,2 v 6.000004 a 2,2 135 0 1 -2,2 h -38 a 2,2 45 0 1 -2,-2 v -6.000004 a 2,2 135 0 1 2,-2 z"
       style="fill:none;stroke:#000000;stroke-width:2;stroke-linejoin:miter;stroke-dasharray:none;stroke-opacity:1" /><path
       id="circle93"
       style="stroke-width:1.00968;stroke-dasharray:3.02904, 3.02904"
       d="m 432.02945,220.90747 a 1.0000014,1.0000014 0 0 1 -1,1 1.0000014,1.0000014 0 0 1 -1,-1 1.0000014,1.0000014 0 0 1 1,-1 1.0000014,1.0000014 0 0 1 1,1 z" /><path
       id="path95"
       transform="translate(301.60225,144)"
       d="m 125.42722,57.907459 h 38 a 2,2 45 0 1 2,2 v 6.000004 a 2,2 135 0 1 -2,2 h -38 a 2,2 45 0 1 -2,-2 v -6.000004 a 2,2 135 0 1 2,-2 z"
       style="fill:none;stroke:#000000;stroke-width:2;stroke-linejoin:miter;stroke-dasharray:none;stroke-opacity:1" /><path
       id="circle95"
       style="stroke-width:1.00968;stroke-dasharray:3.02904, 3.02904"
       d="m 432.02945,206.90747 a 1.0000014,1.0000014 0 0 1 -1,1 1.0000014,1.0000014 0 0 1 -1,-1 1.0000014,1.0000014 0 0 1 1,-1 1.0000014,1.0000014 0 0 1 1,1 z" /><path
       style="fill:none;fill-opacity:1;stroke:#000000;stroke-width:2;stroke-linecap:butt;stroke-linejoin:miter;stroke-dasharray:none;stroke-dashoffset:0;stroke-opacity:1"
       d="m 434.02948,198.90746 v 2"
       id="path86-8" /><path
       style="fill:none;fill-opacity:1;stroke:#000000;stroke-width:2;stroke-linecap:butt;stroke-linejoin:miter;stroke-dasharray:none;stroke-dashoffset:0;stroke-opacity:1"
       d="m 446.02948,198.90746 v 2"
       id="path97" /><path
       style="fill:none;fill-opacity:1;stroke:#000000;stroke-width:2;stroke-linecap:butt;stroke-linejoin:miter;stroke-dasharray:none;stroke-dashoffset:0;stroke-opacity:1"
       d="m 458.02948,198.90746 v 2"
       id="path98" /><path
       style="fill:none;fill-opacity:1;stroke:#000000;stroke-width:2;stroke-linecap:butt;stroke-linejoin:miter;stroke-dasharray:none;stroke-dashoffset:0;stroke-opacity:1"
       d="m 458.02948,212.90746 v 2"
       id="path99" /><path
       style="fill:none;fill-opacity:1;stroke:#000000;stroke-width:2;stroke-linecap:butt;stroke-linejoin:miter;stroke-dasharray:none;stroke-dashoffset:0;stroke-opacity:1"
       d="m 446.02948,212.90746 v 2"
       id="path100" /><path
       style="fill:none;fill-opacity:1;stroke:#000000;stroke-width:2;stroke-linecap:butt;stroke-linejoin:miter;stroke-dasharray:none;stroke-dashoffset:0;stroke-opacity:1"
       d="m 434.02948,212.90746 v 2"
       id="path101" /></g><metadata
     id="metadata32"><rdf:RDF><cc:Work
         rdf:about="" /></rdf:RDF></metadata></svg>
