<?xml version="1.0" encoding="UTF-8" standalone="no"?>
<!-- Created with Inkscape (http://www.inkscape.org/) -->

<svg
   width="48"
   height="48"
   viewBox="0 0 48 48"
   version="1.1"
   id="svg1"
   xml:space="preserve"
   xmlns="http://www.w3.org/2000/svg"
   xmlns:svg="http://www.w3.org/2000/svg"
   xmlns:rdf="http://www.w3.org/1999/02/22-rdf-syntax-ns#"
   xmlns:cc="http://creativecommons.org/ns#"><defs
     id="defs1"><linearGradient
       id="swatch76"><stop
         style="stop-color:#000000;stop-opacity:1;"
         offset="0"
         id="stop76" /></linearGradient><linearGradient
       id="swatch75"><stop
         style="stop-color:#000000;stop-opacity:1;"
         offset="0"
         id="stop75" /></linearGradient><linearGradient
       id="swatch74"><stop
         style="stop-color:#000000;stop-opacity:0;"
         offset="0"
         id="stop74" /></linearGradient><linearGradient
       id="swatch64"><stop
         style="stop-color:#000000;stop-opacity:0;"
         offset="0"
         id="stop64" /></linearGradient><linearGradient
       id="swatch61"><stop
         style="stop-color:#000000;stop-opacity:1;"
         offset="0"
         id="stop61" /></linearGradient></defs><path
     style="baseline-shift:baseline;display:inline;overflow:visible;opacity:1;vector-effect:none;enable-background:accumulate;stop-color:#000000;stop-opacity:1"
     d="m 5.000508,18.00074 c -1.64501,0 -3,1.35499 -3,3 v 6 c 0,1.64501 1.35499,3 3,3 H 43.00051 c 1.64501,0 3,-1.35499 3,-3 v -6 c 0,-1.64501 -1.35499,-3 -3,-3 z m 0,2 H 43.00051 c 0.56413,0 1,0.43587 1,1 v 6 c 0,0.56413 -0.43587,1 -1,1 H 5.000508 c -0.56413,0 -1,-0.43587 -1,-1 v -6 c 0,-0.56413 0.43587,-1 1,-1 z"
     id="path88" /><path
     id="path67-4"
     style="stroke-width:2.01935;stroke-dasharray:6.05804, 6.05804"
     d="M 11.999988,24 A 1.9999907,1.9999907 0 0 1 9.999998,25.99999 1.9999907,1.9999907 0 0 1 8.000008,24 1.9999907,1.9999907 0 0 1 9.999998,22.00001 1.9999907,1.9999907 0 0 1 11.999988,24 Z" /><metadata
     id="metadata32"><rdf:RDF><cc:Work
         rdf:about="" /></rdf:RDF></metadata></svg>
