<?xml version="1.0" encoding="UTF-8" standalone="no"?>
<!-- Created with Inkscape (http://www.inkscape.org/) -->

<svg
   width="48"
   height="48"
   viewBox="0 0 48 48"
   version="1.1"
   id="svg1"
   xml:space="preserve"
   xmlns="http://www.w3.org/2000/svg"
   xmlns:svg="http://www.w3.org/2000/svg"
   xmlns:rdf="http://www.w3.org/1999/02/22-rdf-syntax-ns#"
   xmlns:cc="http://creativecommons.org/ns#"><defs
     id="defs1"><linearGradient
       id="swatch76"><stop
         style="stop-color:#000000;stop-opacity:1;"
         offset="0"
         id="stop76" /></linearGradient><linearGradient
       id="swatch75"><stop
         style="stop-color:#000000;stop-opacity:1;"
         offset="0"
         id="stop75" /></linearGradient><linearGradient
       id="swatch74"><stop
         style="stop-color:#000000;stop-opacity:0;"
         offset="0"
         id="stop74" /></linearGradient><linearGradient
       id="swatch64"><stop
         style="stop-color:#000000;stop-opacity:0;"
         offset="0"
         id="stop64" /></linearGradient><linearGradient
       id="swatch61"><stop
         style="stop-color:#000000;stop-opacity:1;"
         offset="0"
         id="stop61" /></linearGradient></defs><path
     style="baseline-shift:baseline;display:inline;overflow:visible;opacity:1;vector-effect:none;enable-background:accumulate;stop-color:#000000;stop-opacity:1"
     d="m 5.000532,18.00074 c -1.64501,0 -3,1.35499 -3,3 v 6 c 0,1.64501 1.35499,3 3,3 h 38 c 1.64501,0 3,-1.35499 3,-3 v -6 c 0,-1.64501 -1.35499,-3 -3,-3 z m 0,2 h 38 c 0.56413,0 1,0.43587 1,1 v 6 c 0,0.56413 -0.43587,1 -1,1 h -38 c -0.56413,0 -1,-0.43587 -1,-1 v -6 c 0,-0.56413 0.43587,-1 1,-1 z"
     id="path88-1" /><path
     id="path67-4-3"
     style="stroke-width:2.01935;stroke-dasharray:6.05804, 6.05804"
     d="m 11.999982,24.00002 a 1.9999907,1.9999907 0 0 1 -1.99999,1.99999 1.9999907,1.9999907 0 0 1 -1.99999,-1.99999 1.9999907,1.9999907 0 0 1 1.99999,-2 1.9999907,1.9999907 0 0 1 1.99999,2 z" /><g
     id="path35"
     style="opacity:1"
     transform="translate(2.0019531e-6,-216.25296)"><path
       style="baseline-shift:baseline;display:inline;overflow:visible;vector-effect:none;fill:#020202;stroke-linecap:round;stroke-dashoffset:2;enable-background:accumulate;stop-color:#000000;stop-opacity:1"
       d="m 37,242.25364 v -4.00068"
       id="path120" /><path
       style="baseline-shift:baseline;display:inline;overflow:visible;vector-effect:none;stroke-linecap:round;stroke-dashoffset:2;enable-background:accumulate;stop-color:#000000;stop-opacity:1"
       d="m 37,237.25391 a 0.99983001,0.99983001 0 0 0 -1,1 v 4 a 0.99983001,0.99983001 0 0 0 1,1 0.99983001,0.99983001 0 0 0 1,-1 v -4 a 0.99983001,0.99983001 0 0 0 -1,-1 z"
       id="path121" /></g><g
     id="path38"
     style="opacity:1"
     transform="translate(2.0019531e-6,-216.25296)"><path
       style="baseline-shift:baseline;display:inline;overflow:visible;vector-effect:none;fill:#020202;stroke-linecap:round;stroke-dashoffset:2;enable-background:accumulate;stop-color:#000000;stop-opacity:1"
       d="m 40.999995,242.25364 v -4.00068"
       id="path118" /><path
       style="baseline-shift:baseline;display:inline;overflow:visible;vector-effect:none;stroke-linecap:round;stroke-dashoffset:2;enable-background:accumulate;stop-color:#000000;stop-opacity:1"
       d="m 41,237.25391 a 0.99983001,0.99983001 0 0 0 -1,1 v 4 a 0.99983001,0.99983001 0 0 0 1,1 0.99983001,0.99983001 0 0 0 1,-1 v -4 a 0.99983001,0.99983001 0 0 0 -1,-1 z"
       id="path119" /></g><g
     id="path39"
     style="opacity:1"
     transform="translate(2.0019531e-6,-216.25296)"><path
       style="baseline-shift:baseline;display:inline;overflow:visible;vector-effect:none;fill:#020202;stroke-linecap:round;stroke-dashoffset:2;enable-background:accumulate;stop-color:#000000;stop-opacity:1"
       d="m 33,242.25364 v -4.00068"
       id="path116" /><path
       style="baseline-shift:baseline;display:inline;overflow:visible;vector-effect:none;stroke-linecap:round;stroke-dashoffset:2;enable-background:accumulate;stop-color:#000000;stop-opacity:1"
       d="m 33,237.25391 a 0.99983001,0.99983001 0 0 0 -1,1 v 4 a 0.99983001,0.99983001 0 0 0 1,1 0.99983001,0.99983001 0 0 0 1,-1 v -4 a 0.99983001,0.99983001 0 0 0 -1,-1 z"
       id="path117" /></g><g
     id="path40"
     style="opacity:1"
     transform="translate(2.0019531e-6,-216.25296)"><path
       style="baseline-shift:baseline;display:inline;overflow:visible;vector-effect:none;fill:#020202;stroke-linecap:round;stroke-dashoffset:2;enable-background:accumulate;stop-color:#000000;stop-opacity:1"
       d="m 29,242.25364 v -4.00068"
       id="path114" /><path
       style="baseline-shift:baseline;display:inline;overflow:visible;vector-effect:none;stroke-linecap:round;stroke-dashoffset:2;enable-background:accumulate;stop-color:#000000;stop-opacity:1"
       d="m 29,237.25391 a 0.99983001,0.99983001 0 0 0 -1,1 v 4 a 0.99983001,0.99983001 0 0 0 1,1 0.99983001,0.99983001 0 0 0 1,-1 v -4 a 0.99983001,0.99983001 0 0 0 -1,-1 z"
       id="path115" /></g><g
     id="path41"
     style="opacity:1"
     transform="translate(2.0019531e-6,-216.25296)"><path
       style="baseline-shift:baseline;display:inline;overflow:visible;vector-effect:none;fill:#020202;stroke-linecap:round;stroke-dashoffset:2;enable-background:accumulate;stop-color:#000000;stop-opacity:1"
       d="m 25,242.2533 v -4.00068"
       id="path94" /><path
       style="baseline-shift:baseline;display:inline;overflow:visible;vector-effect:none;stroke-linecap:round;stroke-dashoffset:2;enable-background:accumulate;stop-color:#000000;stop-opacity:1"
       d="m 25,237.25195 a 0.99983001,0.99983001 0 0 0 -1,1 v 4.00196 a 0.99983001,0.99983001 0 0 0 1,1 0.99983001,0.99983001 0 0 0 1,-1 v -4.00196 a 0.99983001,0.99983001 0 0 0 -1,-1 z"
       id="path96" /></g><g
     id="path42"
     style="opacity:1"
     transform="translate(2.0019531e-6,-216.25296)"><path
       style="baseline-shift:baseline;display:inline;overflow:visible;vector-effect:none;fill:#020202;stroke-linecap:round;stroke-dashoffset:2;enable-background:accumulate;stop-color:#000000;stop-opacity:1"
       d="m 21,242.25364 v -4.00068"
       id="path91" /><path
       style="baseline-shift:baseline;display:inline;overflow:visible;vector-effect:none;stroke-linecap:round;stroke-dashoffset:2;enable-background:accumulate;stop-color:#000000;stop-opacity:1"
       d="m 21,237.25391 a 0.99983001,0.99983001 0 0 0 -1,1 v 4 a 0.99983001,0.99983001 0 0 0 1,1 0.99983001,0.99983001 0 0 0 1,-1 v -4 a 0.99983001,0.99983001 0 0 0 -1,-1 z"
       id="path92" /></g><g
     id="path46"
     style="opacity:1"
     transform="translate(2.0019531e-6,-216.25296)"><path
       style="baseline-shift:baseline;display:inline;overflow:visible;vector-effect:none;fill:#020202;stroke-linecap:round;stroke-dashoffset:2;enable-background:accumulate;stop-color:#000000;stop-opacity:1"
       d="m 17,242.25364 v -4.00068"
       id="path89" /><path
       style="baseline-shift:baseline;display:inline;overflow:visible;vector-effect:none;stroke-linecap:round;stroke-dashoffset:2;enable-background:accumulate;stop-color:#000000;stop-opacity:1"
       d="m 17,237.25391 a 0.99983001,0.99983001 0 0 0 -1,1 v 4 a 0.99983001,0.99983001 0 0 0 1,1 0.99983001,0.99983001 0 0 0 1,-1 v -4 a 0.99983001,0.99983001 0 0 0 -1,-1 z"
       id="path90" /></g><metadata
     id="metadata32"><rdf:RDF><cc:Work
         rdf:about="" /></rdf:RDF></metadata></svg>
