<?xml version="1.0" encoding="UTF-8" standalone="no"?>
<!-- Created with Inkscape (http://www.inkscape.org/) -->

<svg
   width="48"
   height="48"
   viewBox="0 0 48 48"
   version="1.1"
   id="svg1"
   xml:space="preserve"
   xmlns="http://www.w3.org/2000/svg"
   xmlns:svg="http://www.w3.org/2000/svg"
   xmlns:rdf="http://www.w3.org/1999/02/22-rdf-syntax-ns#"
   xmlns:cc="http://creativecommons.org/ns#"><defs
     id="defs1"><linearGradient
       id="swatch76"><stop
         style="stop-color:#000000;stop-opacity:1;"
         offset="0"
         id="stop76" /></linearGradient><linearGradient
       id="swatch75"><stop
         style="stop-color:#000000;stop-opacity:1;"
         offset="0"
         id="stop75" /></linearGradient><linearGradient
       id="swatch74"><stop
         style="stop-color:#000000;stop-opacity:0;"
         offset="0"
         id="stop74" /></linearGradient><linearGradient
       id="swatch64"><stop
         style="stop-color:#000000;stop-opacity:0;"
         offset="0"
         id="stop64" /></linearGradient><linearGradient
       id="swatch61"><stop
         style="stop-color:#000000;stop-opacity:1;"
         offset="0"
         id="stop61" /></linearGradient></defs><path
     style="baseline-shift:baseline;display:inline;overflow:visible;opacity:1;vector-effect:none;stroke-dasharray:4, 2;stroke-dashoffset:5.6;enable-background:accumulate;stop-color:#000000;stop-opacity:1"
     d="m 46.003161,4.97441 -0.004,-0.12891 -0.0117,-0.15234 -0.0176,-0.13672 -0.002,-0.0137 c -0.0225,-0.14759 -0.0552,-0.2927 -0.0996,-0.43555 -0.0437,-0.14039 -0.0984,-0.27787 -0.16211,-0.41015 -0.084,-0.17441 -0.18515,-0.33955 -0.30078,-0.49414 h 0.002 c -0.14369,-0.19229 -0.3109,-0.36485 -0.496,-0.51758 -0.14851,-0.12257 -0.30889,-0.23208 -0.47852,-0.32422 l -0.01,-0.006 -0.0352,-0.0176 -0.91211,1.78125 0.0117,0.006 c 0.053,0.0295 0.1033,0.0627 0.15039,0.10156 0.0618,0.051 0.11813,0.11174 0.16602,0.17579 0.0386,0.0515 0.0739,0.10654 0.10156,0.16406 0.0211,0.0437 0.0384,0.0886 0.0527,0.13476 0.014,0.0449 0.0238,0.0919 0.0312,0.13868 l 0.008,0.0566 0.004,0.0508 0.002,0.0781 z m 0,0.42383 h -2 v 4 h 2 z m 0,6 h -2 v 4 h 2 z m 0,6 h -2 v 4 h 2 z m 0,6 h -2 v 4 h 2 z m 0,6 h -2 v 4 h 2 z m 0,6 h -2 v 4 h 2 z m 0,6 h -2 v 1.58984 l -0.002,0.0664 -0.004,0.0508 -0.008,0.0547 c -0.007,0.0468 -0.0173,0.0937 -0.0312,0.13867 -0.0143,0.0461 -0.0317,0.0911 -0.0527,0.13476 -0.0277,0.0575 -0.063,0.11447 -0.10156,0.16602 -0.0479,0.0641 -0.10425,0.12286 -0.16602,0.17383 -0.0485,0.04 -0.0996,0.0754 -0.1543,0.10547 -0.001,6.9e-4 -0.003,0.001 -0.004,0.002 l -0.043,0.0215 -0.0449,0.0215 -0.0293,0.01 0.73438,1.86133 0.0742,-0.0293 0.13281,-0.0605 0.11914,-0.0606 0.01,-0.006 c 0.16963,-0.0921 0.33002,-0.19969 0.47852,-0.32226 0.1851,-0.15274 0.35232,-0.32725 0.49609,-0.51953 h -0.002 c 0.11563,-0.1546 0.21676,-0.31973 0.30078,-0.49414 0.0637,-0.13229 0.11845,-0.26976 0.16211,-0.41016 0.0444,-0.14284 0.0771,-0.28796 0.0996,-0.43555 l 0.002,-0.0117 0.0176,-0.13867 0.0117,-0.15234 0.004,-0.14063 z M 41.969961,1.9998 h -4 v 2 h 4 z m -0.22266,42.00195 h -4 v 2 h 4 z M 35.969961,1.9998 h -4 v 2 h 4 z m -0.22266,42.00195 h -4 v 2 h 4 z M 29.969961,1.9998 h -4.000002 v 2 h 4.000002 z m -0.22266,42.00195 h -4.000002 v 2 h 4.000002 z M 23.969959,1.9998 h -4 v 2 h 4 z m -0.22266,42.00195 h -4 v 2 h 4 z M 17.969959,1.9998 h -4 v 2 h 4 z m -0.22266,42.00195 h -4 v 2 h 4 z M 11.969959,1.9998 H 7.9699594 v 2 h 3.9999996 z m -0.22266,42.00195 H 7.7472994 v 2 H 11.747299 Z M 6.1437794,3.98418 5.7961294,2.01347 c -0.10905,0.0192 -0.47905,-0.0641 -1.10547,0.002 h -0.01 l -0.12305,0.0156 -0.0117,0.002 c -0.14759,0.0226 -0.29465,0.0571 -0.4375,0.10157 -0.14039,0.0437 -0.27592,0.0964 -0.4082,0.16015 -0.17441,0.084 -0.3415,0.18516 -0.49609,0.30078 -0.19184,0.14358 -0.36515,0.30941 -0.51758,0.49415 -0.12257,0.1485 -0.23013,0.30888 -0.32227,0.47851 -0.0697,0.12839 -0.13131,0.26293 -0.18164,0.40039 -0.0511,0.13952 -0.0913,0.28226 -0.12109,0.42774 -0.0293,0.14349 -0.0489,0.29055 -0.0566,0.4414 l 1.99805,0.10156 c 0.002,-0.046 0.007,-0.093 0.0176,-0.14257 0.01,-0.0479 0.0242,-0.0948 0.041,-0.14063 0.0165,-0.0452 0.0355,-0.0903 0.0586,-0.13281 0.0305,-0.0561 0.0684,-0.11053 0.10937,-0.16016 0.051,-0.0618 0.10978,-0.11812 0.17383,-0.16601 0.0515,-0.0386 0.10655,-0.0719 0.16406,-0.0996 0.0437,-0.021 0.0887,-0.0384 0.13477,-0.0527 0.0469,-0.0146 0.0957,-0.0257 0.14453,-0.0332 l 0.0547,-0.008 h 0.006 c 0.15417,-0.0148 0.57455,0.0972 1.23633,-0.0195 z m -0.39648,40.01757 h -0.73437 l -0.0644,-0.002 -0.0508,-0.004 -0.0566,-0.008 c -0.0468,-0.007 -0.0937,-0.0173 -0.13868,-0.0312 -0.0461,-0.0143 -0.0911,-0.0317 -0.13476,-0.0527 v -0.002 c -0.0575,-0.0277 -0.11251,-0.0611 -0.16406,-0.0996 -0.0641,-0.0479 -0.12286,-0.10425 -0.17383,-0.16602 -0.041,-0.0496 -0.0789,-0.10404 -0.10938,-0.16016 -0.0308,-0.0567 -0.0552,-0.11648 -0.0742,-0.17773 -0.014,-0.0449 -0.0238,-0.0919 -0.0312,-0.13867 -3.2e-4,-0.002 -0.002,-0.004 -0.002,-0.006 l -0.006,-0.0488 -0.004,-0.0508 -0.002,-0.0664 v -0.0996 h -2 v 0.125 l 0.004,0.14063 0.0117,0.15234 0.0176,0.13867 0.002,0.0117 c 0.0225,0.14759 0.0552,0.29271 0.0996,0.43555 0.0581,0.18696 0.13524,0.36738 0.22852,0.53906 0.0921,0.16963 0.1997,0.33002 0.32226,0.47852 0.15243,0.18474 0.32575,0.35056 0.51758,0.49414 h 0.002 c 0.15421,0.11521 0.32023,0.217 0.49414,0.30078 0.13228,0.0637 0.26781,0.11845 0.40821,0.16211 0.14284,0.0444 0.2899,0.0771 0.4375,0.0996 l 0.0117,0.002 0.13671,0.0176 0.15235,0.0117 0.14062,0.004 h 0.75977 z M 4.0012094,6.88847 h -2 v 4 h 2 z m 0,6 h -2 v 4 h 2 z m 0,6 h -2 v 4 h 2 z m 0,6 h -2 v 4 h 2 z m 0,6 h -2 v 4 h 2 z m 0,6 h -2 v 4 h 2 z"
     id="rect1-7" /><path
     style="baseline-shift:baseline;display:inline;overflow:visible;opacity:1;vector-effect:none;stroke-linejoin:round;paint-order:stroke fill markers;enable-background:accumulate;stop-color:#000000;stop-opacity:1"
     d="m 13.973839,36.001953 v 2 h 8.06055 v -2 z"
     id="path4-6" /><path
     style="fill:#000000;fill-opacity:1;fill-rule:nonzero;stroke:none;stroke-width:2;stroke-linecap:square;stroke-linejoin:round;stroke-dasharray:none;stroke-opacity:1;paint-order:stroke fill markers"
     d="m 8.0010394,37.001069 5.9722796,3 v -6 z"
     id="path5-8" /><path
     style="baseline-shift:baseline;display:inline;overflow:visible;opacity:1;vector-effect:none;stroke-linejoin:round;paint-order:stroke fill markers;enable-background:accumulate;stop-color:#000000;stop-opacity:1"
     d="m 17.940639,18.001953 v 2 h 8.06055 v -2 z"
     id="path10-2" /><path
     style="fill:#000000;fill-opacity:1;fill-rule:nonzero;stroke:none;stroke-width:2;stroke-linecap:square;stroke-linejoin:round;stroke-dasharray:none;stroke-opacity:1;paint-order:stroke fill markers"
     d="m 11.968119,19.001069 5.97229,3 v -6 z"
     id="path11-9" /><path
     style="baseline-shift:baseline;display:inline;overflow:visible;opacity:1;vector-effect:none;stroke-linejoin:round;paint-order:stroke fill markers;enable-background:accumulate;stop-color:#000000;stop-opacity:1"
     d="m 25.940639,10.001953 v 2 h 8.060552 v -2 z"
     id="path12-9" /><path
     style="fill:#000000;fill-opacity:1;fill-rule:nonzero;stroke:none;stroke-width:2;stroke-linecap:square;stroke-linejoin:round;stroke-dasharray:none;stroke-opacity:1;paint-order:stroke fill markers"
     d="m 39.973321,11.001069 -5.97228,-3 v 6 z"
     id="path13-8" /><path
     style="baseline-shift:baseline;display:inline;overflow:visible;opacity:1;vector-effect:none;stroke-linejoin:round;paint-order:stroke fill markers;enable-background:accumulate;stop-color:#000000;stop-opacity:1"
     d="m 21.940639,28.001953 v 2 h 8.060552 v -2 z"
     id="path14-3" /><path
     style="fill:#000000;fill-opacity:1;fill-rule:nonzero;stroke:none;stroke-width:2;stroke-linecap:square;stroke-linejoin:round;stroke-dasharray:none;stroke-opacity:1;paint-order:stroke fill markers"
     d="m 35.973321,29.001069 -5.97228,-3 v 6 z"
     id="path15-7" /><metadata
     id="metadata32"><rdf:RDF><cc:Work
         rdf:about="" /></rdf:RDF></metadata></svg>
