<?xml version="1.0" encoding="UTF-8" standalone="no"?>
<!-- Created with Inkscape (http://www.inkscape.org/) -->

<svg
   width="48"
   height="48"
   viewBox="0 0 48 48"
   version="1.1"
   id="svg1"
   xml:space="preserve"
   xmlns="http://www.w3.org/2000/svg"
   xmlns:svg="http://www.w3.org/2000/svg"
   xmlns:rdf="http://www.w3.org/1999/02/22-rdf-syntax-ns#"
   xmlns:cc="http://creativecommons.org/ns#"><defs
     id="defs1"><linearGradient
       id="swatch76"><stop
         style="stop-color:#000000;stop-opacity:1;"
         offset="0"
         id="stop76" /></linearGradient><linearGradient
       id="swatch75"><stop
         style="stop-color:#000000;stop-opacity:1;"
         offset="0"
         id="stop75" /></linearGradient><linearGradient
       id="swatch74"><stop
         style="stop-color:#000000;stop-opacity:0;"
         offset="0"
         id="stop74" /></linearGradient><linearGradient
       id="swatch64"><stop
         style="stop-color:#000000;stop-opacity:0;"
         offset="0"
         id="stop64" /></linearGradient><linearGradient
       id="swatch61"><stop
         style="stop-color:#000000;stop-opacity:1;"
         offset="0"
         id="stop61" /></linearGradient></defs><path
     style="baseline-shift:baseline;display:inline;overflow:visible;opacity:1;vector-effect:none;enable-background:accumulate;stop-color:#000000;stop-opacity:1"
     d="m 5.000702,1.999859 c -1.64501,0 -3,1.35499 -3,3 V 43.00181 c 0,1.64501 1.35499,3 3,3 h 38.00195 c 1.64501,0 3,-1.35499 3,-3 V 4.999859 c 0,-1.64501 -1.35499,-3 -3,-3 z m 0,2 h 38.00195 c 0.56413,0 1,0.435871 1,1 V 43.00181 c 0,0.56413 -0.43587,1 -1,1 H 5.000702 c -0.56413,0 -1,-0.43587 -1,-1 V 4.999859 c 0,-0.564129 0.43587,-1 1,-1 z"
     id="rect1-3" /><path
     style="baseline-shift:baseline;display:inline;overflow:visible;opacity:1;vector-effect:none;stroke-linejoin:round;paint-order:stroke fill markers;enable-background:accumulate;stop-color:#000000;stop-opacity:1"
     d="m 27.966802,23 v 2 h 8.06055 v -2 z"
     id="path12-6" /><path
     style="fill:#000000;fill-opacity:1;fill-rule:nonzero;stroke:none;stroke-width:2;stroke-linecap:square;stroke-linejoin:round;stroke-dasharray:none;stroke-opacity:1;paint-order:stroke fill markers"
     d="m 42.000002,24 -5.97229,-3 v 6 z"
     id="path13-7" /><path
     style="baseline-shift:baseline;display:inline;overflow:visible;opacity:1;vector-effect:none;stroke-linejoin:round;paint-order:stroke fill markers;enable-background:accumulate;stop-color:#000000;stop-opacity:1"
     d="m 11.972662,23 v 2 h 8.06055 v -2 z"
     id="path18" /><path
     style="fill:#000000;fill-opacity:1;fill-rule:nonzero;stroke:none;stroke-width:2;stroke-linecap:square;stroke-linejoin:round;stroke-dasharray:none;stroke-opacity:1;paint-order:stroke fill markers"
     d="m 6.000002,24 5.97229,3 v -6 z"
     id="path19" /><path
     style="baseline-shift:baseline;display:inline;overflow:visible;opacity:1;vector-effect:none;stroke-linejoin:round;paint-order:stroke fill markers;enable-background:accumulate;stop-color:#000000;stop-opacity:1"
     d="m 23.000002,27.966797 v 8.060543 h 2 v -8.060543 z"
     id="path20" /><path
     style="fill:#000000;fill-opacity:1;fill-rule:nonzero;stroke:none;stroke-width:2;stroke-linecap:square;stroke-linejoin:round;stroke-dasharray:none;stroke-opacity:1;paint-order:stroke fill markers"
     d="m 24.000002,42 3,-5.97229 h -6 z"
     id="path21" /><path
     style="baseline-shift:baseline;display:inline;overflow:visible;opacity:1;vector-effect:none;stroke-linejoin:round;paint-order:stroke fill markers;enable-background:accumulate;stop-color:#000000;stop-opacity:1"
     d="m 23.000002,11.972656 v 8.060547 h 2 v -8.060547 z"
     id="path22" /><path
     style="fill:#000000;fill-opacity:1;fill-rule:nonzero;stroke:none;stroke-width:2;stroke-linecap:square;stroke-linejoin:round;stroke-dasharray:none;stroke-opacity:1;paint-order:stroke fill markers"
     d="m 24.000002,6 -3,5.97229 h 6 z"
     id="path23" /><path
     style="baseline-shift:baseline;display:inline;overflow:visible;opacity:1;vector-effect:none;stroke-linejoin:round;paint-order:stroke fill markers;enable-background:accumulate;stop-color:#000000;stop-opacity:1"
     d="m 16.929692,15.515625 -1.41406,1.414062 5.69922,5.701172 1.41406,-1.416015 z"
     id="path24" /><path
     style="fill:#000000;fill-opacity:1;fill-rule:nonzero;stroke:none;stroke-width:2;stroke-linecap:square;stroke-linejoin:round;stroke-dasharray:none;stroke-opacity:1;paint-order:stroke fill markers"
     d="m 12.000002,12 2.10172,6.34436 4.24263,-4.24264 z"
     id="path25" /><path
     style="baseline-shift:baseline;display:inline;overflow:visible;opacity:1;vector-effect:none;stroke-linejoin:round;paint-order:stroke fill markers;enable-background:accumulate;stop-color:#000000;stop-opacity:1"
     d="m 31.070312,15.515625 -5.70117,5.699219 1.41602,1.414062 5.69922,-5.699219 z"
     id="path26" /><path
     style="fill:#000000;fill-opacity:1;fill-rule:nonzero;stroke:none;stroke-width:2;stroke-linecap:square;stroke-linejoin:round;stroke-dasharray:none;stroke-opacity:1;paint-order:stroke fill markers"
     d="m 36.000002,12 -6.34437,2.10172 4.24264,4.24263 z"
     id="path27" /><path
     style="baseline-shift:baseline;display:inline;overflow:visible;opacity:1;vector-effect:none;stroke-linejoin:round;paint-order:stroke fill markers;enable-background:accumulate;stop-color:#000000;stop-opacity:1"
     d="m 21.214852,25.371094 -5.69922,5.699216 1.41406,1.41407 5.70117,-5.699224 z"
     id="path28" /><path
     style="fill:#000000;fill-opacity:1;fill-rule:nonzero;stroke:none;stroke-width:2;stroke-linecap:square;stroke-linejoin:round;stroke-dasharray:none;stroke-opacity:1;paint-order:stroke fill markers"
     d="m 12.000002,36 6.34437,-2.10172 -4.24264,-4.24263 z"
     id="path29" /><path
     style="baseline-shift:baseline;display:inline;overflow:visible;opacity:1;vector-effect:none;stroke-linejoin:round;paint-order:stroke fill markers;enable-background:accumulate;stop-color:#000000;stop-opacity:1"
     d="m 26.785162,25.369141 -1.41406,1.416015 5.69921,5.699224 1.41407,-1.41407 z"
     id="path30" /><path
     style="fill:#000000;fill-opacity:1;fill-rule:nonzero;stroke:none;stroke-width:2;stroke-linecap:square;stroke-linejoin:round;stroke-dasharray:none;stroke-opacity:1;paint-order:stroke fill markers"
     d="m 36.000002,36 -2.10172,-6.34437 -4.24263,4.24264 z"
     id="path31" /><g
     id="path32"
     style="opacity:1"
     transform="translate(2.0019531e-6,-72)"><path
       style="baseline-shift:baseline;display:inline;overflow:visible;vector-effect:none;enable-background:accumulate;stop-color:#000000;stop-opacity:1"
       d="m 28.195886,95.999992 a 4.1958933,4.1958933 0 0 1 -4.195894,4.195898 4.1958933,4.1958933 0 0 1 -4.195893,-4.195898 4.1958933,4.1958933 0 0 1 4.195893,-4.195893 4.1958933,4.1958933 0 0 1 4.195894,4.195893 z"
       id="path78" /><path
       style="baseline-shift:baseline;display:inline;overflow:visible;vector-effect:none;enable-background:accumulate;stop-color:#000000;stop-opacity:1"
       d="m 24,90.125 c -3.224381,0 -5.875,2.650619 -5.875,5.875 -4e-6,3.224383 2.650617,5.875 5.875,5.875 3.224384,0 5.875004,-2.650616 5.875,-5.875 0,-3.224381 -2.650619,-5.875001 -5.875,-5.875 z m 0,3.357422 c 1.410275,0 2.517578,1.107303 2.517578,2.517578 2e-6,1.410276 -1.107302,2.517578 -2.517578,2.517578 -1.410276,0 -2.51758,-1.107302 -2.517578,-2.517578 0,-1.410275 1.107303,-2.517578 2.517578,-2.517578 z"
       id="path79" /></g><metadata
     id="metadata32"><rdf:RDF><cc:Work
         rdf:about="" /></rdf:RDF></metadata></svg>
