<?xml version="1.0" encoding="UTF-8" standalone="no"?>
<!-- Created with Inkscape (http://www.inkscape.org/) -->

<svg
   width="48"
   height="48"
   viewBox="0 0 48 48"
   version="1.1"
   id="svg1"
   xml:space="preserve"
   xmlns="http://www.w3.org/2000/svg"
   xmlns:svg="http://www.w3.org/2000/svg"
   xmlns:rdf="http://www.w3.org/1999/02/22-rdf-syntax-ns#"
   xmlns:cc="http://creativecommons.org/ns#"><defs
     id="defs1"><linearGradient
       id="swatch76"><stop
         style="stop-color:#000000;stop-opacity:1;"
         offset="0"
         id="stop76" /></linearGradient><linearGradient
       id="swatch75"><stop
         style="stop-color:#000000;stop-opacity:1;"
         offset="0"
         id="stop75" /></linearGradient><linearGradient
       id="swatch74"><stop
         style="stop-color:#000000;stop-opacity:0;"
         offset="0"
         id="stop74" /></linearGradient><linearGradient
       id="swatch64"><stop
         style="stop-color:#000000;stop-opacity:0;"
         offset="0"
         id="stop64" /></linearGradient><linearGradient
       id="swatch61"><stop
         style="stop-color:#000000;stop-opacity:1;"
         offset="0"
         id="stop61" /></linearGradient></defs><path
     style="baseline-shift:baseline;display:inline;overflow:visible;opacity:1;vector-effect:none;enable-background:accumulate;stop-color:#000000;stop-opacity:1"
     d="m 4.9996228,1.9998598 c -1.64501,0 -3,1.35499 -3,3 V 43.00181 c 0,1.64501 1.35499,3 3,3 H 43.001573 c 1.64501,0 3,-1.35499 3,-3 V 4.9998598 c 0,-1.64501 -1.35499,-3 -3,-3 z m 0,2 H 43.001573 c 0.56413,0 1,0.43587 1,1 V 43.00181 c 0,0.56413 -0.43587,1 -1,1 H 4.9996228 c -0.56413,0 -1,-0.43587 -1,-1 V 4.9998598 c 0,-0.56413 0.43587,-1 1,-1 z"
     id="rect1-9-6-8-7-3" /><path
     style="font-weight:800;font-size:14px;font-family:Inter;-inkscape-font-specification:'Inter Ultra-Bold';text-align:center;letter-spacing:0.4px;text-anchor:middle;stroke-dashoffset:2"
     d="m 16.240253,29 -3.5,-10 h 2.68649 l 1.4287,4.38477 c 0.2233,0.72917 0.4466,1.48796 0.66991,2.27637 0.2279,0.78841 0.46029,1.60872 0.6973,2.46093 h -0.7178 c 0.23249,-0.85221 0.4558,-1.67252 0.66999,-2.46093 0.2141,-0.78841 0.4283,-1.5472 0.64251,-2.27637 L 20.191453,19 h 2.65909 l -3.4111,10 z m 7.61029,0 V 19 h 3.6367 l 1.3125,3.90625 c 0.073,0.24154 0.1595,0.53776 0.25981,0.88867 0.1003,0.35092 0.20279,0.72006 0.3076,1.10743 0.10489,0.38281 0.2029,0.74967 0.294,1.10058 0.091,0.35091 0.164,0.64486 0.2187,0.88184 h -0.622 c 0.055,-0.23698 0.1253,-0.53093 0.2119,-0.88184 0.091,-0.35091 0.1891,-0.71777 0.2939,-1.10058 0.1048,-0.38737 0.2051,-0.75651 0.3008,-1.10743 0.1003,-0.35091 0.1846,-0.64713 0.2529,-0.88867 L 31.616253,19 h 3.6435 v 10 h -2.4131 v -4.31641 c 0,-0.22786 0,-0.51269 0.014,-0.85449 0.01,-0.3418 0.018,-0.71094 0.027,-1.10742 0.013,-0.39648 0.025,-0.79753 0.034,-1.20313 0.014,-0.40559 0.021,-0.78841 0.021,-1.14843 h 0.2871 c -0.1003,0.37825 -0.2074,0.77246 -0.3213,1.18261 -0.1139,0.41016 -0.2256,0.81348 -0.3349,1.20997 -0.10481,0.39192 -0.2051,0.75423 -0.3008,1.08691 -0.096,0.32812 -0.18001,0.60612 -0.25291,0.83398 L 30.556953,29 h -1.98931 l -1.4902,-4.31641 c -0.068,-0.22786 -0.1526,-0.50586 -0.2529,-0.83398 -0.1003,-0.33268 -0.20509,-0.69499 -0.3145,-1.08691 -0.1094,-0.39649 -0.2233,-0.79981 -0.3418,-1.20997 -0.1139,-0.41015 -0.2233,-0.80436 -0.3281,-1.18261 h 0.3281 c 0.01,0.36002 0.014,0.74284 0.021,1.14843 0.01,0.4056 0.018,0.80665 0.027,1.20313 0.014,0.39648 0.025,0.76562 0.034,1.10742 0.01,0.3418 0.014,0.62663 0.014,0.85449 V 29 Z"
     id="text101"
     aria-label="VM" /><metadata
     id="metadata32"><rdf:RDF><cc:Work
         rdf:about="" /></rdf:RDF></metadata></svg>
