<?xml version="1.0" encoding="UTF-8" standalone="no"?>
<!-- Created with Inkscape (http://www.inkscape.org/) -->

<svg
   width="48"
   height="48"
   viewBox="0 0 48 48"
   version="1.1"
   id="svg1"
   xml:space="preserve"
   xmlns="http://www.w3.org/2000/svg"
   xmlns:svg="http://www.w3.org/2000/svg"
   xmlns:rdf="http://www.w3.org/1999/02/22-rdf-syntax-ns#"
   xmlns:cc="http://creativecommons.org/ns#"><defs
     id="defs1"><linearGradient
       id="swatch76"><stop
         style="stop-color:#000000;stop-opacity:1;"
         offset="0"
         id="stop76" /></linearGradient><linearGradient
       id="swatch75"><stop
         style="stop-color:#000000;stop-opacity:1;"
         offset="0"
         id="stop75" /></linearGradient><linearGradient
       id="swatch74"><stop
         style="stop-color:#000000;stop-opacity:0;"
         offset="0"
         id="stop74" /></linearGradient><linearGradient
       id="swatch64"><stop
         style="stop-color:#000000;stop-opacity:0;"
         offset="0"
         id="stop64" /></linearGradient><linearGradient
       id="swatch61"><stop
         style="stop-color:#000000;stop-opacity:1;"
         offset="0"
         id="stop61" /></linearGradient></defs><g
     id="path36-1"
     style="opacity:1"
     transform="translate(-143.9238,-72)"><path
       style="baseline-shift:baseline;display:inline;overflow:visible;vector-effect:none;stroke-dasharray:4, 2;enable-background:accumulate;stop-color:#000000;stop-opacity:1"
       d="m 150.92379,96 h 34"
       id="path218" /><path
       style="baseline-shift:baseline;display:inline;overflow:visible;vector-effect:none;stroke-dasharray:4, 2;enable-background:accumulate;stop-color:#000000;stop-opacity:1"
       d="m 150.92383,95 v 2 h 4 v -2 z m 6,0 v 2 h 4 v -2 z m 6,0 v 2 h 4 v -2 z m 6,0 v 2 h 4 v -2 z m 6,0 v 2 h 4 v -2 z m 6,0 v 2 h 4 v -2 z"
       id="path219" /></g><path
     style="baseline-shift:baseline;display:inline;overflow:visible;opacity:1;vector-effect:none;enable-background:accumulate;stop-color:#000000;stop-opacity:1"
     d="m 5.0006928,1.999859 c -1.64501,0 -3,1.35499 -3,3 V 43.00181 c 0,1.64501 1.35499,3 3,3 H 43.002643 c 1.64501,0 3,-1.35499 3,-3 V 4.999859 c 0,-1.64501 -1.35499,-3 -3,-3 z m 0,2 H 43.002643 c 0.56413,0 1,0.435871 1,1 V 43.00181 c 0,0.56413 -0.43587,1 -1,1 H 5.0006928 c -0.56413,0 -1,-0.43587 -1,-1 V 4.999859 c 0,-0.564129 0.43587,-1 1,-1 z"
     id="rect1-9" /><path
     style="baseline-shift:baseline;display:inline;overflow:visible;opacity:1;vector-effect:none;stroke-linejoin:round;paint-order:stroke fill markers;enable-background:accumulate;stop-color:#000000;stop-opacity:1"
     d="m 13.939483,36.00195 v 2 h 8.06055 v -2 z"
     id="path4-7" /><path
     style="fill:#000000;fill-opacity:1;fill-rule:nonzero;stroke:none;stroke-width:2;stroke-linecap:square;stroke-linejoin:round;stroke-dasharray:none;stroke-opacity:1;paint-order:stroke fill markers"
     d="m 7.9670728,37.00214 5.9722902,3 v -6 z"
     id="path5-5" /><path
     style="baseline-shift:baseline;display:inline;overflow:visible;opacity:1;vector-effect:none;stroke-linejoin:round;paint-order:stroke fill markers;enable-background:accumulate;stop-color:#000000;stop-opacity:1"
     d="m 17.968783,16 v 2 h 8.0625 v -2 z"
     id="path10-6" /><path
     style="fill:#000000;fill-opacity:1;fill-rule:nonzero;stroke:none;stroke-width:2;stroke-linecap:square;stroke-linejoin:round;stroke-dasharray:none;stroke-opacity:1;paint-order:stroke fill markers"
     d="m 11.997413,17 5.97228,3 v -6 z"
     id="path11-53" /><path
     style="baseline-shift:baseline;display:inline;overflow:visible;opacity:1;vector-effect:none;stroke-linejoin:round;paint-order:stroke fill markers;enable-background:accumulate;stop-color:#000000;stop-opacity:1"
     d="m 25.939483,10 v 2 h 8.06055 v -2 z"
     id="path12-0" /><path
     style="fill:#000000;fill-opacity:1;fill-rule:nonzero;stroke:none;stroke-width:2;stroke-linecap:square;stroke-linejoin:round;stroke-dasharray:none;stroke-opacity:1;paint-order:stroke fill markers"
     d="m 39.972273,11 -5.97228,-3 v 6 z"
     id="path13-4" /><path
     style="baseline-shift:baseline;display:inline;overflow:visible;opacity:1;vector-effect:none;stroke-linejoin:round;paint-order:stroke fill markers;enable-background:accumulate;stop-color:#000000;stop-opacity:1"
     d="m 21.968783,30 v 2 h 8.0625 v -2 z"
     id="path14-8" /><path
     style="fill:#000000;fill-opacity:1;fill-rule:nonzero;stroke:none;stroke-width:2;stroke-linecap:square;stroke-linejoin:round;stroke-dasharray:none;stroke-opacity:1;paint-order:stroke fill markers"
     d="m 36.002603,31 -5.97229,-3 v 6 z"
     id="path15-5" /><metadata
     id="metadata32"><rdf:RDF><cc:Work
         rdf:about="" /></rdf:RDF></metadata></svg>
