<?xml version="1.0" encoding="UTF-8" standalone="no"?>
<!-- Created with Inkscape (http://www.inkscape.org/) -->

<svg
   width="48"
   height="48"
   viewBox="0 0 48 48"
   version="1.1"
   id="svg1"
   xml:space="preserve"
   xmlns="http://www.w3.org/2000/svg"
   xmlns:svg="http://www.w3.org/2000/svg"
   xmlns:rdf="http://www.w3.org/1999/02/22-rdf-syntax-ns#"
   xmlns:cc="http://creativecommons.org/ns#"><defs
     id="defs1"><linearGradient
       id="swatch76"><stop
         style="stop-color:#000000;stop-opacity:1;"
         offset="0"
         id="stop76" /></linearGradient><linearGradient
       id="swatch75"><stop
         style="stop-color:#000000;stop-opacity:1;"
         offset="0"
         id="stop75" /></linearGradient><linearGradient
       id="swatch74"><stop
         style="stop-color:#000000;stop-opacity:0;"
         offset="0"
         id="stop74" /></linearGradient><linearGradient
       id="swatch64"><stop
         style="stop-color:#000000;stop-opacity:0;"
         offset="0"
         id="stop64" /></linearGradient><linearGradient
       id="swatch61"><stop
         style="stop-color:#000000;stop-opacity:1;"
         offset="0"
         id="stop61" /></linearGradient></defs><path
     style="baseline-shift:baseline;display:inline;overflow:visible;opacity:1;vector-effect:none;stroke-linecap:square;stroke-linejoin:round;paint-order:stroke fill markers;enable-background:accumulate;stop-color:#000000;stop-opacity:1"
     d="m 24.000033,2.0136719 c -12.13842,0 -22.0000002,9.8615801 -22.0000002,22.0000001 0,12.13842 9.8615802,22 22.0000002,22 12.13842,0 22,-9.86158 22,-22 0,-12.13842 -9.86158,-22.0000001 -22,-22.0000001 z m 0,2 c 11.05754,0 20,8.9424601 20,20.0000001 0,11.05754 -8.94246,20 -20,20 -11.05754,0 -20.0000002,-8.94246 -20.0000002,-20 0,-11.05754 8.9424602,-20.0000001 20.0000002,-20.0000001 z"
     id="path139-4" /><path
     style="baseline-shift:baseline;display:inline;overflow:visible;opacity:1;vector-effect:none;stroke-linejoin:round;stroke-dasharray:4, 2;stroke-dashoffset:2;paint-order:stroke fill markers;enable-background:accumulate;stop-color:#000000;stop-opacity:1"
     d="m 23.000033,11.986328 v 2 h 2 v -2 z m 0,4 v 4 h 2 v -4 z m 0,6 v 4 h 2 v -4 z m 0,6 v 4 h 2 v -4 z m 0,6 v 2.054688 h 2 v -2.054688 z"
     id="path140-1" /><path
     style="baseline-shift:baseline;display:inline;overflow:visible;opacity:1;vector-effect:none;stroke-linejoin:round;stroke-dasharray:4, 2;paint-order:stroke fill markers;enable-background:accumulate;stop-color:#000000;stop-opacity:1"
     d="m 6.0000328,23.013672 v 2 h 4.0000002 v -2 z m 6.0000002,0 v 2 h 3.02734 v -2 z"
     id="path143-9" /><path
     style="baseline-shift:baseline;display:inline;overflow:visible;opacity:1;vector-effect:none;stroke-linejoin:round;stroke-dasharray:4, 2;paint-order:stroke fill markers;enable-background:accumulate;stop-color:#000000;stop-opacity:1"
     d="m 32.972683,23.013672 v 2 h 3.02735 v -2 z m 5.02735,0 v 2 h 4 v -2 z"
     id="path144-59" /><path
     style="fill:#000000;fill-opacity:1;fill-rule:nonzero;stroke:none;stroke-width:2;stroke-linecap:square;stroke-linejoin:round;stroke-dasharray:none;stroke-opacity:1;paint-order:stroke fill markers"
     d="m 26.999983,24.01386 5.97229,3 v -6 z"
     id="path11-5-8" /><path
     style="fill:#000000;fill-opacity:1;fill-rule:nonzero;stroke:none;stroke-width:2;stroke-linecap:square;stroke-linejoin:round;stroke-dasharray:none;stroke-opacity:1;paint-order:stroke fill markers"
     d="m 20.999983,24.01386 -5.97228,-3 v 6 z"
     id="path15-4-8" /><path
     style="fill:#000000;fill-opacity:1;fill-rule:nonzero;stroke:none;stroke-width:2;stroke-linecap:square;stroke-linejoin:round;stroke-dasharray:none;stroke-opacity:1;paint-order:stroke fill markers"
     d="m 23.999983,6.01386 -3,5.97228 h 6 z"
     id="path16-8" /><path
     style="fill:#000000;fill-opacity:1;fill-rule:nonzero;stroke:none;stroke-width:2;stroke-linecap:square;stroke-linejoin:round;stroke-dasharray:none;stroke-opacity:1;paint-order:stroke fill markers"
     d="m 23.999983,42.01386 3,-5.97228 h -6 z"
     id="path17-7" /><metadata
     id="metadata32"><rdf:RDF><cc:Work
         rdf:about="" /></rdf:RDF></metadata></svg>
