<?xml version="1.0" encoding="UTF-8" standalone="no"?>
<!-- Created with Inkscape (http://www.inkscape.org/) -->

<svg
   width="48"
   height="48"
   viewBox="0 0 48 48"
   version="1.1"
   id="svg1"
   xml:space="preserve"
   xmlns="http://www.w3.org/2000/svg"
   xmlns:svg="http://www.w3.org/2000/svg"
   xmlns:rdf="http://www.w3.org/1999/02/22-rdf-syntax-ns#"
   xmlns:cc="http://creativecommons.org/ns#"><defs
     id="defs1"><linearGradient
       id="swatch76"><stop
         style="stop-color:#000000;stop-opacity:1;"
         offset="0"
         id="stop76" /></linearGradient><linearGradient
       id="swatch75"><stop
         style="stop-color:#000000;stop-opacity:1;"
         offset="0"
         id="stop75" /></linearGradient><linearGradient
       id="swatch74"><stop
         style="stop-color:#000000;stop-opacity:0;"
         offset="0"
         id="stop74" /></linearGradient><linearGradient
       id="swatch64"><stop
         style="stop-color:#000000;stop-opacity:0;"
         offset="0"
         id="stop64" /></linearGradient><linearGradient
       id="swatch61"><stop
         style="stop-color:#000000;stop-opacity:1;"
         offset="0"
         id="stop61" /></linearGradient></defs><path
     style="baseline-shift:baseline;display:inline;overflow:visible;opacity:1;vector-effect:none;enable-background:accumulate;stop-color:#000000;stop-opacity:1"
     d="m 5.004238,2.000801 c -1.64501,0 -3,1.35499 -3,3 V 43.00275 c 0,1.64501 1.35499,3 3,3 H 43.00619 c 1.64501,0 3,-1.35499 3,-3 V 5.000801 c 0,-1.64501 -1.35499,-3 -3,-3 z m 0,2 H 43.00619 c 0.56413,0 1,0.435871 1,1 V 43.00275 c 0,0.56413 -0.43587,1 -1,1 H 5.004238 c -0.56413,0 -1,-0.43587 -1,-1 V 5.000801 c 0,-0.564129 0.43587,-1 1,-1 z"
     id="rect1-3-4-5" /><path
     style="baseline-shift:baseline;display:inline;overflow:visible;opacity:1;vector-effect:none;stroke-dasharray:4, 2;stroke-dashoffset:1.2;enable-background:accumulate;stop-color:#000000;stop-opacity:1"
     d="m 10.033198,6 v 2 h 2.80078 V 6 Z m 4.80078,0 v 2 h 4 V 6 Z m 6,0 v 2 h 4 V 6 Z m 6,0 V 8 H 30.83398 V 6 Z m 6.000002,0 v 2 h 4 V 6 Z m 6,0 v 2 h 0.39454 l 0.0605,0.002 0.0469,0.0039 0.0449,0.0059 0.0449,0.0059 0.043,0.0098 0.043,0.01172 0.041,0.01367 0.041,0.01367 0.0391,0.01758 0.0371,0.01758 0.0371,0.01953 0.0352,0.02148 0.0332,0.02148 0.0312,0.02344 0.0312,0.02539 0.0273,0.02539 0.0274,0.02539 0.0254,0.02734 0.0234,0.0293 0.0234,0.02734 0.0195,0.0293 0.0176,0.0293 0.0176,0.03125 0.0137,0.0293 0.0137,0.03125 0.0117,0.03125 0.01,0.03125 0.008,0.03125 0.006,0.0332 0.004,0.03711 c 0.009,0.07572 -0.0842,0.424102 0.0195,1.019532 l 1.9707,-0.341797 c -0.007,-0.03853 0.0617,-0.340124 -0.002,-0.902344 l -0.002,-0.01172 -0.0156,-0.125 -0.0273,-0.136719 -0.0332,-0.134765 -0.041,-0.132813 -0.0469,-0.128906 -0.0527,-0.126953 -0.0586,-0.121094 -0.0664,-0.11914 -0.0703,-0.115235 -0.0762,-0.111328 -0.0801,-0.105469 -0.0879,-0.103515 -0.0899,-0.09766 -0.0957,-0.0918 -0.0996,-0.08984 -0.10352,-0.08398 -0.10742,-0.07813 -0.11133,-0.07422 -0.11523,-0.06836 -0.11914,-0.06445 -0.1211,-0.05859 -0.125,-0.05273 -0.1289,-0.04687 -0.13086,-0.04102 -0.13281,-0.03516 -0.13477,-0.0293 -0.13672,-0.02148 -0.14062,-0.01758 -0.14063,-0.0098 -0.13132,-0.004 z m 1.25586,5.511719 v 4 h 2 v -4 z m 0,6 v 4 h 2 v -4 z m 0,6 v 4 h 2 v -4 z m 0,6.000001 v 4 h 2 v -4 z m 0,6 v 3.70312 l -0.002,0.0488 -0.002,0.0332 -0.002,0.0254 1.96289,0.375 0.01,-0.0449 0.0176,-0.13867 0.0117,-0.14258 0.004,-0.1289 v -3.73047 z m -0.60547,4.41016 c -0.022,0.006 -0.0583,0.0143 -0.10742,0.0215 l -0.041,0.006 -0.0469,0.002 -0.0605,0.002 h -3.4629 v 2 h 3.48633 l 0.13086,-0.004 0.14063,-0.01 0.13086,-0.0156 0.0117,-0.002 c 0.11127,-0.0163 0.23529,-0.0378 0.36914,-0.0762 z m -27.718752,0.0312 v 2 h 3.62305 0.37695 v -2 h -0.37695 z m 6,0 v 2 h 4 v -2 z m 6,0 v 2 h 4 v -2 z m 6.000002,0 v 2 h 4 v -2 z"
     id="rect1-3-4-8-6" /><path
     style="baseline-shift:baseline;display:inline;overflow:visible;opacity:1;vector-effect:none;stroke-linejoin:round;paint-order:stroke fill markers;enable-background:accumulate;stop-color:#000000;stop-opacity:1"
     d="m 17.972658,34 v 2 h 8.06054 v -2 z"
     id="path43-3" /><path
     style="fill:#000000;fill-opacity:1;fill-rule:nonzero;stroke:none;stroke-width:2;stroke-linecap:square;stroke-linejoin:round;stroke-dasharray:none;stroke-opacity:1;paint-order:stroke fill markers"
     d="m 11.999998,35 5.97228,3 v -6 z"
     id="path44-4" /><path
     style="baseline-shift:baseline;display:inline;overflow:visible;opacity:1;vector-effect:none;stroke-linejoin:round;paint-order:stroke fill markers;enable-background:accumulate;stop-color:#000000;stop-opacity:1"
     d="m 19.972658,18 v 2 H 28.0332 v -2 z"
     id="path45-0" /><path
     style="fill:#000000;fill-opacity:1;fill-rule:nonzero;stroke:none;stroke-width:2;stroke-linecap:square;stroke-linejoin:round;stroke-dasharray:none;stroke-opacity:1;paint-order:stroke fill markers"
     d="m 13.999998,19 5.97228,3 v -6 z"
     id="path49-6" /><path
     style="baseline-shift:baseline;display:inline;overflow:visible;opacity:1;vector-effect:none;stroke-linejoin:round;paint-order:stroke fill markers;enable-background:accumulate;stop-color:#000000;stop-opacity:1"
     d="m 24.031248,12 v 2 H 32.0918 v -2 z"
     id="path50-0" /><path
     style="fill:#000000;fill-opacity:1;fill-rule:nonzero;stroke:none;stroke-width:2;stroke-linecap:square;stroke-linejoin:round;stroke-dasharray:none;stroke-opacity:1;paint-order:stroke fill markers"
     d="m 38.06326,13 -5.97228,-3 v 6 z"
     id="path51-4" /><path
     style="baseline-shift:baseline;display:inline;overflow:visible;opacity:1;vector-effect:none;stroke-linejoin:round;paint-order:stroke fill markers;enable-background:accumulate;stop-color:#000000;stop-opacity:1"
     d="m 21.999998,28 v 2 h 8.060552 v -2 z"
     id="path52-0" /><path
     style="fill:#000000;fill-opacity:1;fill-rule:nonzero;stroke:none;stroke-width:2;stroke-linecap:square;stroke-linejoin:round;stroke-dasharray:none;stroke-opacity:1;paint-order:stroke fill markers"
     d="m 36.03293,29 -5.97228,-3 v 6 z"
     id="path53-5" /><path
     id="rect53"
     style="stroke-width:2;stroke-dashoffset:1.8"
     d="m 7.033858,5.999999 h 3.00001 V 42 H 6.999988 A 0.966135,0.966135 0 0 1 6.033858,41.03386 V 7 a 1.000001,1.000001 0 0 1 1,-1.000001 z" /><metadata
     id="metadata32"><rdf:RDF><cc:Work
         rdf:about="" /></rdf:RDF></metadata></svg>
