<?xml version="1.0" encoding="UTF-8" standalone="no"?>
<!-- Created with Inkscape (http://www.inkscape.org/) -->

<svg
   width="48"
   height="48"
   viewBox="0 0 48 48"
   version="1.1"
   id="svg1"
   xml:space="preserve"
   xmlns="http://www.w3.org/2000/svg"
   xmlns:svg="http://www.w3.org/2000/svg"
   xmlns:rdf="http://www.w3.org/1999/02/22-rdf-syntax-ns#"
   xmlns:cc="http://creativecommons.org/ns#"><defs
     id="defs1"><linearGradient
       id="swatch76"><stop
         style="stop-color:#000000;stop-opacity:1;"
         offset="0"
         id="stop76" /></linearGradient><linearGradient
       id="swatch75"><stop
         style="stop-color:#000000;stop-opacity:1;"
         offset="0"
         id="stop75" /></linearGradient><linearGradient
       id="swatch74"><stop
         style="stop-color:#000000;stop-opacity:0;"
         offset="0"
         id="stop74" /></linearGradient><linearGradient
       id="swatch64"><stop
         style="stop-color:#000000;stop-opacity:0;"
         offset="0"
         id="stop64" /></linearGradient><linearGradient
       id="swatch61"><stop
         style="stop-color:#000000;stop-opacity:1;"
         offset="0"
         id="stop61" /></linearGradient></defs><g
     id="layer1"
     transform="translate(-278.42616,-110.90746)"><g
       style="fill:#000000"
       id="g132"
       transform="matrix(0.28781414,0,0,0.28781414,124.84148,4.2415714)" /><path
       id="rect1-3-4"
       transform="translate(158.00107,72.001069)"
       d="m 125.42509,41.906391 h 38.00213 a 2,2 45 0 1 2,2 v 38.00214 a 2,2 135 0 1 -2,2 h -38.00213 a 2,2 45 0 1 -2,-2 v -38.00214 a 2,2 135 0 1 2,-2 z"
       style="fill:none;stroke:#000000;stroke-width:2;stroke-linejoin:miter;stroke-dasharray:none;stroke-opacity:1" /><path
       id="rect1-3-4-8"
       transform="matrix(0.86363639,0,0,0.86363639,177.55719,80.440999)"
       d="m 126.9009,43.382217 h 35.36842 a 2,2 45 0 1 2,2 v 35.36842 a 2,2 135 0 1 -2,2 H 126.9009 a 2,2 45 0 1 -2,-2 v -35.36842 a 2,2 135 0 1 2,-2 z"
       style="fill:none;stroke:#000000;stroke-width:2.31579;stroke-linejoin:miter;stroke-dasharray:4.63158, 2.31579;stroke-dashoffset:1.38947;stroke-opacity:1" /><path
       style="fill:none;fill-opacity:1;fill-rule:nonzero;stroke:#000000;stroke-width:2;stroke-linecap:butt;stroke-linejoin:round;stroke-dasharray:none;stroke-opacity:1;paint-order:stroke fill markers"
       d="m 302.48941,145.90746 h -8.06065"
       id="path43" /><path
       style="fill:#000000;fill-opacity:1;fill-rule:nonzero;stroke:none;stroke-width:2;stroke-linecap:square;stroke-linejoin:round;stroke-dasharray:none;stroke-opacity:1;paint-order:stroke fill markers"
       d="m 288.45648,145.90746 5.97228,3 v -6 z"
       id="path44" /><path
       style="fill:none;fill-opacity:1;fill-rule:nonzero;stroke:#000000;stroke-width:2;stroke-linecap:butt;stroke-linejoin:round;stroke-dasharray:none;stroke-opacity:1;paint-order:stroke fill markers"
       d="m 304.45648,129.90746 h -8.06066"
       id="path45" /><path
       style="fill:#000000;fill-opacity:1;fill-rule:nonzero;stroke:none;stroke-width:2;stroke-linecap:square;stroke-linejoin:round;stroke-dasharray:none;stroke-opacity:1;paint-order:stroke fill markers"
       d="m 290.42355,129.90746 5.97229,3 v -6 z"
       id="path49" /><path
       style="fill:none;fill-opacity:1;fill-rule:nonzero;stroke:#000000;stroke-width:2;stroke-linecap:butt;stroke-linejoin:round;stroke-dasharray:none;stroke-opacity:1;paint-order:stroke fill markers"
       d="m 302.39322,123.90746 h 8.06065"
       id="path50" /><path
       style="fill:#000000;fill-opacity:1;fill-rule:nonzero;stroke:none;stroke-width:2;stroke-linecap:square;stroke-linejoin:round;stroke-dasharray:none;stroke-opacity:1;paint-order:stroke fill markers"
       d="m 316.42615,123.90746 -5.97229,-3 v 6 z"
       id="path51" /><path
       style="fill:none;fill-opacity:1;fill-rule:nonzero;stroke:#000000;stroke-width:2;stroke-linecap:butt;stroke-linejoin:round;stroke-dasharray:none;stroke-opacity:1;paint-order:stroke fill markers"
       d="m 300.39582,139.90746 h 8.06066"
       id="path52" /><path
       style="fill:#000000;fill-opacity:1;fill-rule:nonzero;stroke:none;stroke-width:2;stroke-linecap:square;stroke-linejoin:round;stroke-dasharray:none;stroke-opacity:1;paint-order:stroke fill markers"
       d="m 314.42875,139.90746 -5.97228,-3 v 6 z"
       id="path53" /></g><metadata
     id="metadata32"><rdf:RDF><cc:Work
         rdf:about="" /></rdf:RDF></metadata></svg>
