<?xml version="1.0" encoding="UTF-8" standalone="no"?>
<!-- Created with Inkscape (http://www.inkscape.org/) -->

<svg
   width="48"
   height="48"
   viewBox="0 0 48 48"
   version="1.1"
   id="svg1"
   xml:space="preserve"
   xmlns="http://www.w3.org/2000/svg"
   xmlns:svg="http://www.w3.org/2000/svg"
   xmlns:rdf="http://www.w3.org/1999/02/22-rdf-syntax-ns#"
   xmlns:cc="http://creativecommons.org/ns#"><defs
     id="defs1"><linearGradient
       id="swatch76"><stop
         style="stop-color:#000000;stop-opacity:1;"
         offset="0"
         id="stop76" /></linearGradient><linearGradient
       id="swatch75"><stop
         style="stop-color:#000000;stop-opacity:1;"
         offset="0"
         id="stop75" /></linearGradient><linearGradient
       id="swatch74"><stop
         style="stop-color:#000000;stop-opacity:0;"
         offset="0"
         id="stop74" /></linearGradient><linearGradient
       id="swatch64"><stop
         style="stop-color:#000000;stop-opacity:0;"
         offset="0"
         id="stop64" /></linearGradient><linearGradient
       id="swatch61"><stop
         style="stop-color:#000000;stop-opacity:1;"
         offset="0"
         id="stop61" /></linearGradient></defs><path
     style="baseline-shift:baseline;display:inline;overflow:visible;opacity:1;vector-effect:none;enable-background:accumulate;stop-color:#000000;stop-opacity:1"
     d="m 5.0006906,1.999859 c -1.64501,0 -3,1.35499 -3,3 V 43.00181 c 0,1.64501 1.35499,3 3,3 H 43.002638 c 1.64501,0 3,-1.35499 3,-3 V 4.999859 c 0,-1.64501 -1.35499,-3 -3,-3 z m 0,2 H 43.002638 c 0.56413,0 1,0.435871 1,1 V 43.00181 c 0,0.56413 -0.43587,1 -1,1 H 5.0006906 c -0.56413,0 -1,-0.43587 -1,-1 V 4.999859 c 0,-0.564129 0.43587,-1 1,-1 z"
     id="rect1-3-4" /><path
     style="baseline-shift:baseline;display:inline;overflow:visible;opacity:1;vector-effect:none;stroke-width:0.863636;stroke-dasharray:4, 2;stroke-dashoffset:1.2;enable-background:accumulate;stop-color:#000000;stop-opacity:1"
     d="M 8.7268206,6.000248 V 8.000781 H 11.145681 V 6.000248 Z m 4.1461304,0 v 2.000533 h 3.45455 V 6.000248 Z m 5.18182,0 v 2.000533 h 3.45455 V 6.000248 Z m 5.18182,0 v 2.000533 h 3.45454 V 6.000248 Z m 5.181817,0 v 2.000533 h 3.45454 V 6.000248 Z m 5.18182,0 v 2.000533 h 3.45454 V 6.000248 Z m 5.18181,0 v 2.000533 h 0.47737 0.0522 l 0.0371,0.0034 0.0354,0.0051 0.0354,0.0051 0.0354,0.0085 0.0338,0.01012 0.0338,0.01181 0.0338,0.01181 0.032,0.01518 c 0.0314,0.01511 0.062,0.03262 0.0911,0.05229 0.0289,0.01957 0.0566,0.04045 0.0827,0.0641 0.026,0.02362 0.0502,0.05054 0.0725,0.07759 0.0224,0.02712 0.0426,0.0562 0.0607,0.08603 0.0182,0.03002 0.0337,0.0607 0.0472,0.09277 l 0.0135,0.03205 0.0118,0.03373 0.009,0.03543 0.009,0.03373 0.007,0.03543 0.005,0.04723 c 0.003,0.02543 -0.002,0.136963 0.003,0.339045 l 2.00053,-0.04723 c -0.002,-0.08003 0.0131,-0.251506 -0.0152,-0.511097 l -0.002,-0.01012 -0.0152,-0.119762 -0.0236,-0.134943 -0.0304,-0.13157 -0.0371,-0.129883 -0.0421,-0.126509 -0.0455,-0.113015 -0.005,-0.01181 c -0.0516,-0.122108 -0.11179,-0.239498 -0.18049,-0.352539 -0.0682,-0.112239 -0.14427,-0.219396 -0.22771,-0.32049 -0.0833,-0.100828 -0.17318,-0.195485 -0.26989,-0.283381 -0.0968,-0.08802 -0.20008,-0.169536 -0.30868,-0.242897 -0.1092,-0.07378 -0.22341,-0.138329 -0.34242,-0.195668 l -0.0101,-0.0067 -0.11132,-0.04892 -0.12314,-0.04892 -0.12819,-0.04386 -0.1282,-0.03543 -0.13325,-0.03037 -0.13495,-0.0253 -0.13663,-0.01687 -0.13663,-0.01012 -0.1282,-0.0034 z m -31.6374174,0.506037 -0.0506,0.03543 -0.0928,0.07422 -0.009,0.0067 c -0.10083,0.0832 -0.19548,0.173175 -0.28338,0.269886 -0.088,0.09684 -0.16954,0.200088 -0.2429,0.308683 -0.0738,0.109198 -0.14001,0.223412 -0.19735,0.342419 l -0.005,0.01181 -0.0489,0.109641 -0.0489,0.124822 -0.0439,0.126509 -0.0371,0.129883 -0.0304,0.13157 -0.0236,0.134943 -0.0168,0.13663 -0.0118,0.138317 -0.003,0.126509 v 1.825107 h 2.00053 V 8.739559 l 0.002,-0.0506 0.003,-0.03711 0.003,-0.03711 0.007,-0.03543 0.009,-0.03373 0.0101,-0.03543 0.0101,-0.03373 0.0135,-0.03205 0.0135,-0.03205 0.002,-0.0034 c 0.0148,-0.03019 0.0316,-0.05964 0.0506,-0.08771 0.0196,-0.02897 0.0421,-0.05664 0.0658,-0.08265 0.0225,-0.0248 0.0468,-0.04766 0.0725,-0.06916 8.7e-4,-10e-4 0.002,-0.0023 0.003,-0.0034 l 0.0287,-0.02193 0.0101,-0.0067 z m 32.8552874,4.19842 v 3.454546 h 2.00053 V 10.704705 Z M 5.9992906,12.266673 v 3.454545 h 2.00053 v -3.454545 z m 34.0006174,3.61985 v 3.454546 h 2.00053 V 15.886523 Z M 5.9992906,17.448491 v 3.454546 h 2.00053 v -3.454546 z m 34.0006174,3.619851 v 3.454545 h 2.00053 V 21.068342 Z M 5.9992906,22.630309 v 3.454546 h 2.00053 V 22.630309 Z M 39.999908,26.25016 v 3.45455 h 2.00053 V 26.25016 Z M 5.9992906,27.812128 v 3.454542 h 2.00053 V 27.812128 Z M 39.999908,31.43198 v 3.45454 h 2.00053 V 31.43198 Z M 5.9992906,32.99395 v 3.45454 h 2.00053 V 32.99395 Z M 39.999908,36.6138 v 2.64657 l -0.002,0.0506 -0.002,0.0371 -0.005,0.0371 -0.007,0.0354 -0.009,0.0354 -0.009,0.0337 -0.0118,0.0337 -0.0135,0.032 -0.0118,0.0287 1.77956,0.91256 0.0202,-0.0405 0.0557,-0.12145 0.0489,-0.12482 0.0421,-0.12651 0.0371,-0.12989 0.0304,-0.13156 0.0236,-0.13495 0.0186,-0.13663 0.0101,-0.13831 0.003,-0.12651 v -2.67188 z m -32.0186474,1.37136 -1.96342,0.3829 c 0.0248,0.12718 -0.13712,0.64011 0.0388,1.46244 l 0.002,0.007 0.0269,0.11639 0.0371,0.12988 0.0439,0.12651 0.0439,0.11302 0.005,0.0118 c 0.0516,0.12211 0.1118,0.2395 0.18049,0.35254 0.0682,0.11224 0.14428,0.2194 0.22771,0.32049 0.0833,0.10083 0.17318,0.19549 0.26989,0.28338 0.0968,0.088 0.20008,0.16954 0.30869,0.2429 0.10919,0.0738 0.2234,0.13833 0.34241,0.19567 l 0.0118,0.007 0.10965,0.0489 0.12313,0.0489 0.1282,0.0439 0.12988,0.0354 0.10289,0.0253 0.44869,-1.94993 -0.054,-0.0118 -0.0338,-0.0101 -0.0338,-0.0118 -0.032,-0.0118 -0.032,-0.0152 c -0.0313,-0.0151 -0.062,-0.0326 -0.0911,-0.0523 -0.029,-0.0196 -0.0583,-0.0405 -0.0844,-0.0641 -0.026,-0.0236 -0.0502,-0.0505 -0.0726,-0.0776 -0.0224,-0.0271 -0.0426,-0.0562 -0.0607,-0.086 -0.0182,-0.03 -0.0337,-0.0607 -0.0472,-0.0928 l -0.0135,-0.032 -0.0101,-0.0337 -0.0101,-0.0337 -0.0101,-0.0438 v -0.002 c -0.0263,-0.12564 0.12601,-0.61384 -0.032,-1.42534 z m 31.3557374,2.01234 -0.0253,0.002 h -0.0522 -3.25046 v 2.00054 h 3.27575 l 0.1282,-0.003 0.13663,-0.0101 0.0388,-0.005 z m -29.237127,0.002 v 2.00054 h 3.45454 V 39.9995 Z m 5.18182,0 v 2.00054 h 3.45454 V 39.9995 Z m 5.18181,0 v 2.00054 h 3.45455 V 39.9995 Z m 5.18182,0 v 2.00054 h 3.454547 V 39.9995 Z m 5.181817,0 v 2.00054 h 3.45455 V 39.9995 Z"
     id="rect1-3-4-8" /><path
     style="baseline-shift:baseline;display:inline;overflow:visible;opacity:1;vector-effect:none;stroke-linejoin:round;paint-order:stroke fill markers;enable-background:accumulate;stop-color:#000000;stop-opacity:1"
     d="m 16.001951,34 v 2 h 8.06055 v -2 z"
     id="path43" /><path
     style="fill:#000000;fill-opacity:1;fill-rule:nonzero;stroke:none;stroke-width:2;stroke-linecap:square;stroke-linejoin:round;stroke-dasharray:none;stroke-opacity:1;paint-order:stroke fill markers"
     d="m 10.030321,35 5.97229,3 v -6 z"
     id="path44" /><path
     style="baseline-shift:baseline;display:inline;overflow:visible;opacity:1;vector-effect:none;stroke-linejoin:round;paint-order:stroke fill markers;enable-background:accumulate;stop-color:#000000;stop-opacity:1"
     d="m 17.968751,18 v 2 h 8.0625 v -2 z"
     id="path45" /><path
     style="fill:#000000;fill-opacity:1;fill-rule:nonzero;stroke:none;stroke-width:2;stroke-linecap:square;stroke-linejoin:round;stroke-dasharray:none;stroke-opacity:1;paint-order:stroke fill markers"
     d="m 11.997391,19 5.97229,3 v -6 z"
     id="path49" /><path
     style="baseline-shift:baseline;display:inline;overflow:visible;opacity:1;vector-effect:none;stroke-linejoin:round;paint-order:stroke fill markers;enable-background:accumulate;stop-color:#000000;stop-opacity:1"
     d="m 23.966801,12 v 2 h 8.060537 v -2 z"
     id="path50" /><path
     style="fill:#000000;fill-opacity:1;fill-rule:nonzero;stroke:none;stroke-width:2;stroke-linecap:square;stroke-linejoin:round;stroke-dasharray:none;stroke-opacity:1;paint-order:stroke fill markers"
     d="m 37.999998,13 -5.97229,-3 v 6 z"
     id="path51" /><path
     style="baseline-shift:baseline;display:inline;overflow:visible;opacity:1;vector-effect:none;stroke-linejoin:round;paint-order:stroke fill markers;enable-background:accumulate;stop-color:#000000;stop-opacity:1"
     d="m 21.968751,28 v 2 h 8.062497 v -2 z"
     id="path52" /><path
     style="fill:#000000;fill-opacity:1;fill-rule:nonzero;stroke:none;stroke-width:2;stroke-linecap:square;stroke-linejoin:round;stroke-dasharray:none;stroke-opacity:1;paint-order:stroke fill markers"
     d="m 36.002588,29 -5.97228,-3 v 6 z"
     id="path53" /><metadata
     id="metadata32"><rdf:RDF><cc:Work
         rdf:about="" /></rdf:RDF></metadata></svg>
