<svg xmlns="http://www.w3.org/2000/svg" xml:space="preserve" width="48" height="48" fill="currentColor" viewBox="0 0 48 48"><path fill="none" stroke="currentColor" stroke-dashoffset="2" stroke-linecap="round" stroke-linejoin="round" stroke-width="2.735" d="M27.207 13.367c-3.885.01-7.432 2.502-9.168 6.44-1.387-1.332-3.145-2.067-4.963-2.073-4.257 0-7.708 3.911-7.708 8.735 0 2.888 1.258 5.589 3.362 7.217q.406.48.981.921h30.342c.18.077 1.096-.553 1.285-.858 1.284-1.456 1.284-4.437 1.284-5.824 0-3.216-2.3-5.823-5.138-5.823q-.165.007-.33.025c-1.162-5.151-5.255-8.756-9.947-8.76"/></svg>