<svg xmlns="http://www.w3.org/2000/svg" xml:space="preserve" width="48" height="48" fill="currentColor"><path d="M27.203 12c-3.963.01-7.487 2.349-9.598 5.912-1.375-.904-2.891-1.54-4.525-1.545h-.004C7.982 16.367 4 20.994 4 26.47c0 3.244 1.393 6.297 3.81 8.217.318.356.666.697 1.069 1.006a1.37 1.37 0 0 0 .832.283h30.342l-.532-.107c.525.221.78.108.957.064.178-.044.292-.094.4-.145.218-.1.4-.21.58-.334.34-.23.62-.39.975-.923.875-1.056 1.208-2.336 1.381-3.522.18-1.228.176-2.39.176-3.084 0-3.63-2.53-6.673-5.875-7.047-1.574-5.161-5.842-8.874-10.908-8.879zm.002 2.736h.006c3.99.007 7.569 3.083 8.61 7.693a1.37 1.37 0 0 0 1.49 1.057c.055-.006.119-.01.181-.014 1.997.005 3.762 1.893 3.762 4.453 0 .694-.005 1.717-.146 2.69-.142.972-.46 1.85-.795 2.23a1.4 1.4 0 0 0-.139.186c.205-.333-.062.032-.248.158-.04.027-.05.03-.084.05H10.24c-.163-.146-.346-.294-.466-.437a1.4 1.4 0 0 0-.207-.197c-1.734-1.342-2.831-3.645-2.83-6.135 0-4.171 2.919-7.365 6.337-7.367 1.452.006 2.868.586 4.018 1.691a1.368 1.368 0 0 0 2.197-.435c1.544-3.502 4.616-5.612 7.916-5.623"/></svg>