<svg xmlns="http://www.w3.org/2000/svg" xml:space="preserve" width="48" height="48" fill="currentColor" viewBox="0 0 48 48"><path fill="none" stroke="currentColor" stroke-dashoffset="2.028" stroke-linecap="square" stroke-width="1.137" d="m22.52 20.827-7.024 4.055-7.024-4.055v-8.11l7.024-4.055 7.024 4.055z"/><path fill="none" stroke="currentColor" stroke-dashoffset="2" stroke-linecap="square" stroke-width=".569" d="M15.149 16.767v5.689m-5.47-8.848 5.408 3.121m.06 0 5.408-3.122"/><path fill="none" stroke="currentColor" stroke-dashoffset="2.028" stroke-linecap="square" stroke-width="1.137" d="M39.624 20.827 32.6 24.883l-7.024-4.056v-8.11L32.6 8.662l7.024 4.055z"/><path fill="none" stroke="currentColor" stroke-dashoffset="2" stroke-linecap="square" stroke-width=".569" d="M32.852 16.767v5.689m-5.47-8.848 5.408 3.121m.06 0 5.408-3.122"/><path fill="none" stroke="currentColor" stroke-dashoffset="2.028" stroke-linecap="square" stroke-width="1.137" d="m31.038 35.292-7.024 4.056-7.024-4.055v-8.11l7.024-4.056 7.024 4.055z"/><path fill="none" stroke="currentColor" stroke-dashoffset="2" stroke-linecap="square" stroke-width=".569" d="M24.007 31.232v5.69m-5.47-8.849 5.408 3.122m.06 0 5.408-3.122"/></svg>