<svg xmlns="http://www.w3.org/2000/svg" xml:space="preserve" width="48" height="48" fill="currentColor" viewBox="0 0 48 48"><path fill="none" stroke="currentColor" stroke-dashoffset="2.028" stroke-linecap="square" stroke-width="2" d="m22.008 20.271-7.024 4.056-7.024-4.055V12.16l7.024-4.055 7.024 4.055zm18.047-.001-7.024 4.057-7.023-4.055V12.16l7.024-4.055 7.023 4.055z"/><path fill="none" stroke="currentColor" stroke-dashoffset="2" stroke-linecap="square" stroke-width="1.5" d="m32.988 16.346.024 5.2m-4.524-7.968 4.439 2.73m.06 0 4.501-2.73"/><path fill="none" stroke="currentColor" stroke-dashoffset="2.028" stroke-linecap="square" stroke-width="2" d="m31.032 35.848-7.024 4.056-7.024-4.055v-8.111l7.024-4.055 7.023 4.055z"/><path fill="none" stroke="currentColor" stroke-dashoffset="2" stroke-linecap="square" stroke-width="1.5" d="m14.964 16.346.024 5.2m-4.524-7.968 4.44 2.73m.06 0 4.5-2.73m4.524 18.309.024 5.2m-4.524-7.968 4.439 2.73m.06 0 4.501-2.73"/></svg>