<svg xmlns="http://www.w3.org/2000/svg" xml:space="preserve" width="48" height="48" fill="currentColor"><path d="M14.977 6.947 6.952 11.58l.001 9.265 8.024 4.632 8.022-4.633L23 11.58zm0 2.309 6.024 3.478v6.954l-6.024 3.48-6.024-3.478-.001-6.956zm18.048-2.309L25 11.58v9.265l8.024 4.632 8.022-4.633.002-9.265zm0 2.309 6.023 3.478v6.954l-6.024 3.48L27 19.69v-6.956z"/><path d="m33.734 15.593-1.5.006.004.75.024 5.201.004.75 1.5-.006-.004-.75-.024-5.2z"/><path d="m28.242 12.548-.785 1.278.639.392 4.437 2.73.639.393.787-1.277-.639-.395-4.44-2.728z"/><path d="m37.74 12.548-.64.389-4.502 2.73-.641.389.777 1.283.641-.388 4.502-2.73.64-.39zM24 22.523l-8.024 4.634v9.264L24 41.054l8.023-4.633.002-9.265zm0 2.31 6.025 3.477v6.955L24 38.745l-6.023-3.478-.001-6.956zm-8.29-9.24-1.5.006.005.75.023 5.201.004.75 1.5-.006-.004-.75-.023-5.2z"/><path d="m10.219 12.548-.785 1.278.638.392 4.438 2.73.638.393.788-1.277-.64-.395-4.439-2.728z"/><path d="m19.717 12.548-.64.389-4.503 2.73-.64.389.777 1.283.64-.388 4.503-2.73.64-.39zm5.017 18.586-1.5.006.004.75.024 5.201.004.75 1.5-.006-.004-.75-.024-5.2z"/><path d="m19.242 28.087-.785 1.28.639.392 4.437 2.729.639.394.787-1.28-.639-.392-4.44-2.728z"/><path d="m28.74 28.09-.64.388-4.502 2.73-.641.389.777 1.283.641-.388 4.502-2.73.64-.39z"/></svg>