<svg xmlns="http://www.w3.org/2000/svg" xml:space="preserve" width="48" height="48" fill="currentColor"><path d="M14.875 13.967a.91.91 0 0 0-.908.908v18.182a.91.91 0 0 0 .908.91h18.182a.91.91 0 0 0 .91-.91V14.875a.91.91 0 0 0-.91-.908zm.91 1.819h16.363v16.363H15.785ZM35 27v2h3v-2zm0 4v2h3v-2zm0-8v2h3v-2z"/><path d="M17.44 17.439h13.12V30.56H17.44z"/><path d="M17 17v14h14V17zm.879.879h12.242v12.242H17.88zM35 19v2h3v-2zm0-4v2h3v-2zM10 27.034v2h3v-2zm0 4v2h3v-2zm0-8v2h3v-2zm0-4v2h3v-2zm0-4v2h3v-2zm9.033 19.9v3h2v-3zm-4 0v3h2v-3zm8 0v3h2v-3zm4 0v3h2v-3zm4 0v3h2v-3zM19 10v3h2v-3zm-4 0v3h2v-3zm8 0v3h2v-3zm4 0v3h2v-3zm4 0v3h2v-3z"/></svg>