<svg xmlns="http://www.w3.org/2000/svg" xml:space="preserve" width="48" height="48" fill="currentColor" viewBox="0 0 48 48"><path fill="none" stroke="currentColor" stroke-dashoffset="2" stroke-linecap="round" stroke-linejoin="round" stroke-width="1.818" d="M14.876 14.876h18.182v18.182H14.876z"/><path fill="none" stroke="currentColor" stroke-dashoffset="2" stroke-width="2" d="M38 28h-3m3 4h-3m3-8h-3"/><path stroke="currentColor" stroke-dashoffset="2" stroke-width=".879" d="M17.439 17.439h13.122v13.122H17.439z"/><path fill="none" stroke="currentColor" stroke-dashoffset="2" stroke-width="2" d="M38 20h-3m3-4h-3M13 28.033h-3m3 4h-3m3-8h-3m3-4h-3m3-4h-3m10.034 21.9v-3m-4 3v-3m8 3v-3m4 3v-3m4 3v-3M20 13v-3m-4 3v-3m8 3v-3m4 3v-3m4 3v-3"/></svg>