<svg xmlns="http://www.w3.org/2000/svg" xml:space="preserve" width="48" height="48" fill="currentColor"><path d="M12 18.487v11.025h2V18.487zm22 0v11.025h2V18.487z"/><path d="M24 14.487c-3.111 0-5.926.337-8.041.914-1.058.288-1.94.63-2.637 1.078-.696.449-1.322 1.098-1.322 2.008s.626 1.56 1.322 2.01c.696.448 1.58.787 2.637 1.076 2.115.577 4.93.914 8.041.914s5.926-.337 8.041-.914c1.058-.289 1.94-.628 2.637-1.077.696-.448 1.322-1.1 1.322-2.01s-.626-1.558-1.322-2.007-1.58-.79-2.637-1.078c-2.115-.577-4.93-.914-8.041-.914m0 2c2.964 0 5.65.335 7.516.843.933.255 1.66.562 2.078.83.417.27.406.408.406.327s.01.059-.406.328-1.145.574-2.078.828c-1.866.509-4.552.844-7.516.844s-5.65-.335-7.516-.844c-.933-.254-1.66-.56-2.078-.828-.417-.27-.406-.41-.406-.328 0 .08-.01-.057.406-.326.417-.27 1.145-.576 2.078-.83 1.866-.51 4.552-.844 7.516-.844M12 29.512c0 .91.626 1.56 1.322 2.008.696.449 1.58.79 2.637 1.078 2.115.577 4.93.914 8.041.914s5.926-.337 8.041-.914c1.058-.288 1.94-.63 2.637-1.078.696-.449 1.322-1.098 1.322-2.008h-2c0-.081.01.06-.406.328-.417.27-1.145.574-2.078.828-1.866.51-4.552.844-7.516.844s-5.65-.335-7.516-.844c-.933-.254-1.66-.559-2.078-.828S14 29.43 14 29.512z"/></svg>