<svg xmlns="http://www.w3.org/2000/svg" xml:space="preserve" width="48" height="48" fill="currentColor" viewBox="0 0 48 48"><path d="M21 9.974a1 1 0 0 1-1 1 1 1 0 0 1-1-1 1 1 0 0 1 1-1 1 1 0 0 1 1 1m0 5a1 1 0 0 1-1 1 1 1 0 0 1-1-1 1 1 0 0 1 1-1 1 1 0 0 1 1 1m0 5a1 1 0 0 1-1 1 1 1 0 0 1-1-1 1 1 0 0 1 1-1 1 1 0 0 1 1 1m0 5a1 1 0 0 1-1 1 1 1 0 0 1-1-1 1 1 0 0 1 1-1 1 1 0 0 1 1 1m0 5a1 1 0 0 1-1 1 1 1 0 0 1-1-1 1 1 0 0 1 1-1 1 1 0 0 1 1 1m0 5a1 1 0 0 1-1 1 1 1 0 0 1-1-1 1 1 0 0 1 1-1 1 1 0 0 1 1 1M11 10a1 1 0 0 1-1 1 1 1 0 0 1-1-1 1 1 0 0 1 1-1 1 1 0 0 1 1 1m0 5.051a1 1 0 0 1-1 1 1 1 0 0 1-1-1 1 1 0 0 1 1-1 1 1 0 0 1 1 1m0 5a1 1 0 0 1-1 1 1 1 0 0 1-1-1 1 1 0 0 1 1-1 1 1 0 0 1 1 1m0 5a1 1 0 0 1-1 1 1 1 0 0 1-1-1 1 1 0 0 1 1-1 1 1 0 0 1 1 1m0 5a1 1 0 0 1-1 1 1 1 0 0 1-1-1 1 1 0 0 1 1-1 1 1 0 0 1 1 1m0 5a1 1 0 0 1-1 1 1 1 0 0 1-1-1 1 1 0 0 1 1-1 1 1 0 0 1 1 1"/><path fill="none" stroke="currentColor" stroke-dashoffset="2" stroke-linejoin="round" stroke-width="2" d="M14 7H6v31h8m2-31v31h16V7z"/><path fill="none" stroke="currentColor" stroke-dashoffset="2" stroke-linejoin="round" d="M7.001 12.5h7M7 17.5h7m-7 5h7m-7 5h7m-7 5h7m3-20h14m-14 5h14m-14 5h14m-14 5h14m-14 5h14"/><path d="M37.016 9.974a1 1 0 0 0 1 1 1 1 0 0 0 1-1 1 1 0 0 0-1-1 1 1 0 0 0-1 1m0 5.05a1 1 0 0 0 1 1 1 1 0 0 0 1-1 1 1 0 0 0-1-1 1 1 0 0 0-1 1m0 5a1 1 0 0 0 1 1 1 1 0 0 0 1-1 1 1 0 0 0-1-1 1 1 0 0 0-1 1m0 5a1 1 0 0 0 1 1 1 1 0 0 0 1-1 1 1 0 0 0-1-1 1 1 0 0 0-1 1m0 5a1 1 0 0 0 1 1 1 1 0 0 0 1-1 1 1 0 0 0-1-1 1 1 0 0 0-1 1m0 5a1 1 0 0 0 1 1 1 1 0 0 0 1-1 1 1 0 0 0-1-1 1 1 0 0 0-1 1"/><path fill="none" stroke="currentColor" stroke-dashoffset="2" stroke-linejoin="round" stroke-width="2" d="M34 7h8v31h-8"/><path fill="none" stroke="currentColor" stroke-dashoffset="2" stroke-linejoin="round" d="M41.016 12.5H34m7.016 5H34m7.016 5H34m7.016 5H34m7.016 5H34"/><path stroke="currentColor" stroke-dashoffset="2" stroke-linecap="round" stroke-linejoin="round" stroke-width="2" d="M6 41h7"/><path fill="none" stroke="currentColor" stroke-dashoffset="2" stroke-linecap="round" stroke-linejoin="round" stroke-width="2" d="M16 41h16"/><path stroke="currentColor" stroke-dashoffset="2" stroke-linecap="round" stroke-linejoin="round" stroke-width="2" d="M35 41.024 42 41"/></svg>