<svg xmlns="http://www.w3.org/2000/svg" xml:space="preserve" width="48" height="48" fill="currentColor"><path d="M21 9.973a1 1 0 0 1-1 1 1 1 0 0 1-1-1 1 1 0 0 1 1-1 1 1 0 0 1 1 1m0 5a1 1 0 0 1-1 1 1 1 0 0 1-1-1 1 1 0 0 1 1-1 1 1 0 0 1 1 1m0 5a1 1 0 0 1-1 1 1 1 0 0 1-1-1 1 1 0 0 1 1-1 1 1 0 0 1 1 1m0 5a1 1 0 0 1-1 1 1 1 0 0 1-1-1 1 1 0 0 1 1-1 1 1 0 0 1 1 1m0 5a1 1 0 0 1-1 1 1 1 0 0 1-1-1 1 1 0 0 1 1-1 1 1 0 0 1 1 1m0 5a1 1 0 0 1-1 1 1 1 0 0 1-1-1 1 1 0 0 1 1-1 1 1 0 0 1 1 1M11 10a1 1 0 0 1-1 1 1 1 0 0 1-1-1 1 1 0 0 1 1-1 1 1 0 0 1 1 1m0 5.05a1 1 0 0 1-1 1 1 1 0 0 1-1-1 1 1 0 0 1 1-1 1 1 0 0 1 1 1m0 5a1 1 0 0 1-1 1 1 1 0 0 1-1-1 1 1 0 0 1 1-1 1 1 0 0 1 1 1m0 5a1 1 0 0 1-1 1 1 1 0 0 1-1-1 1 1 0 0 1 1-1 1 1 0 0 1 1 1m0 5a1 1 0 0 1-1 1 1 1 0 0 1-1-1 1 1 0 0 1 1-1 1 1 0 0 1 1 1m0 5a1 1 0 0 1-1 1 1 1 0 0 1-1-1 1 1 0 0 1 1-1 1 1 0 0 1 1 1"/><path d="M6 6a1 1 0 0 0-1 1v31.001a1 1 0 0 0 1 1h8v-2H7v-29h7V6zm10 0a1 1 0 0 0-1 1v31.001a1 1 0 0 0 1 1h16a1 1 0 0 0 1-1v-31a1 1 0 0 0-1-1zm1 2h14v29.001H17Z"/><path d="M7 12v1h7v-1zm0 5v1h7v-1zm0 5v1h7v-1zm0 5v1h7v-1zm0 5.001v1h7v-1zM17 12v1h14v-1zm0 5v1h14v-1zm0 5v1h14v-1zm0 5v1h14v-1zm0 5.001v1h14v-1zM37.016 9.973a1 1 0 0 0 1 1 1 1 0 0 0 1-1 1 1 0 0 0-1-1 1 1 0 0 0-1 1m0 5.051a1 1 0 0 0 1 1 1 1 0 0 0 1-1 1 1 0 0 0-1-1 1 1 0 0 0-1 1m0 5a1 1 0 0 0 1 1 1 1 0 0 0 1-1 1 1 0 0 0-1-1 1 1 0 0 0-1 1m0 5a1 1 0 0 0 1 1 1 1 0 0 0 1-1 1 1 0 0 0-1-1 1 1 0 0 0-1 1m0 5a1 1 0 0 0 1 1 1 1 0 0 0 1-1 1 1 0 0 0-1-1 1 1 0 0 0-1 1m0 5a1 1 0 0 0 1 1 1 1 0 0 0 1-1 1 1 0 0 0-1-1 1 1 0 0 0-1 1"/><path d="M34 6v2h7v29.001h-7v2h8a1 1 0 0 0 1-1v-31a1 1 0 0 0-1-1z"/><path d="M34 12v1h7.016v-1zm0 5v1h7.016v-1zm0 5v1h7.016v-1zm0 5v1h7.016v-1zm0 5.001v1h7.016v-1zM6 41h7m-7-.999a1 1 0 0 0-1 1 1 1 0 0 0 1 1h7a1 1 0 0 0 1-1 1 1 0 0 0-1-1zm10 0a1 1 0 0 0-1 1 1 1 0 0 0 1 1h16a1 1 0 0 0 1-1 1 1 0 0 0-1-1zm19 1.023L42 41m-.004-.999-7 .023A1 1 0 0 0 34 41.026a1 1 0 0 0 1.004.998l7-.023A1 1 0 0 0 43 40.997a1 1 0 0 0-1.004-.996"/></svg>