<svg xmlns="http://www.w3.org/2000/svg" xml:space="preserve" width="48" height="48" fill="currentColor"><path d="M12 10v28h2V10zm22 0v28h2V10z"/><path d="M24 6c-3.111 0-5.926.338-8.041.914-1.058.289-1.94.63-2.637 1.079C12.626 8.44 12 9.09 12 10s.626 1.56 1.322 2.008c.696.449 1.58.79 2.637 1.078 2.115.577 4.93.914 8.041.914s5.926-.337 8.041-.914c1.058-.288 1.94-.629 2.637-1.078C35.374 11.56 36 10.91 36 10s-.626-1.559-1.322-2.007c-.696-.45-1.58-.79-2.637-1.079C29.926 6.338 27.111 6 24 6m0 2c2.964 0 5.65.335 7.516.844.933.255 1.66.56 2.078.828.417.27.406.41.406.328 0-.08.01.058-.406.327s-1.145.575-2.078.83C29.65 11.666 26.964 12 24 12s-5.65-.334-7.516-.843c-.933-.255-1.66-.561-2.078-.83C13.99 10.057 14 9.919 14 10c0 .082-.01-.059.406-.328s1.145-.573 2.078-.828C18.35 8.335 21.036 8 24 8M12.25 19.493c0 .785.548 1.37 1.209 1.796.661.427 1.524.763 2.566 1.047 2.084.569 4.882.907 7.975.907s5.89-.338 7.975-.907c1.042-.284 1.905-.62 2.566-1.047s1.209-1.01 1.209-1.796h-1.5c0 .042-.07.245-.521.537-.453.291-1.2.602-2.149.861-1.897.517-4.598.852-7.58.852s-5.683-.335-7.58-.852c-.949-.259-1.696-.57-2.149-.861-.452-.292-.521-.495-.521-.537zm0 9.242c0 .786.548 1.372 1.209 1.799s1.524.762 2.566 1.046c2.084.569 4.882.905 7.975.905s5.89-.336 7.975-.905c1.042-.284 1.905-.62 2.566-1.046s1.209-1.013 1.209-1.8h-1.5c0 .043-.07.246-.521.538-.453.291-1.2.603-2.149.861-1.897.518-4.598.852-7.58.852s-5.683-.334-7.58-.852c-.949-.258-1.696-.57-2.149-.861-.452-.292-.521-.495-.521-.537zM12 38c0 .91.626 1.56 1.322 2.008.696.449 1.58.79 2.637 1.078 2.115.577 4.93.914 8.041.914s5.926-.337 8.041-.914c1.058-.288 1.94-.629 2.637-1.078C35.374 39.56 36 38.91 36 38h-2c0-.08.01.058-.406.327s-1.145.575-2.078.83C29.65 39.666 26.964 40 24 40s-5.65-.334-7.516-.843c-.933-.255-1.66-.561-2.078-.83-.417-.27-.406-.408-.406-.327z"/></svg>