<svg xmlns="http://www.w3.org/2000/svg" xml:space="preserve" width="48" height="48" fill="currentColor" viewBox="0 0 48 48"><path fill="none" stroke="currentColor" stroke-dashoffset="2" stroke-linejoin="round" stroke-width="2" d="M13 38V10m22 0v28m0-28a11 3 0 0 1-11 3 11 3 0 0 1-11-3 11 3 0 0 1 11-3 11 3 0 0 1 11 3z"/><path fill="none" stroke="currentColor" stroke-dashoffset="2" stroke-linejoin="round" stroke-width="1.5" d="M35 19.492c0 1.657-4.925 3-11 3s-11-1.343-11-3m22 9.243c0 1.657-4.925 3-11 3s-11-1.343-11-3"/><path fill="none" stroke="currentColor" stroke-dashoffset="2" stroke-linejoin="round" stroke-width="2" d="M35 38c0 1.657-4.925 3-11 3s-11-1.343-11-3"/></svg>