<svg xmlns="http://www.w3.org/2000/svg" xml:space="preserve" width="48" height="48" fill="currentColor"><path d="M4.001 31h40M4.002 30v2h40v-2zm-.001-13h40M4.002 16v2h40v-2zM17.001 4v12m-.999-12v12h2V4zm.999 28v12m-.999-12v12h2V32zm14.999 0v12m-.999-12v12h2V32zm.999-28v12m-.999-12v12h2V4zm-6.001 14v12m-.999-12v12h2V18z"/><path d="m10.001 18-.018 12m-.981-12.002-.02 12 2 .004.02-12zM38.006 18v12m-1-12v12h2V18zm8.995-13.027-.004-.129-.011-.152-.018-.137-.002-.014a3 3 0 0 0-.563-1.34h.002a3 3 0 0 0-.496-.517 3 3 0 0 0-.478-.324l-.01-.006-.035-.018-.912 1.782.011.006a1 1 0 0 1 .502.714l.008.057.004.05.002.079zm0 .424h-2v4h2zm0 6h-2v4h2zm0 6h-2v4h2zm0 6h-2v4h2zm0 6h-2v4h2zm0 6h-2v4h2zm0 6h-2v1.59l-.002.066-.004.051-.008.055a.95.95 0 0 1-.185.44 1 1 0 0 1-.32.278l-.005.002-.043.022-.044.021-.03.01.735 1.862.074-.03.133-.06.119-.06.01-.007a3 3 0 0 0 .974-.841h-.002a3 3 0 0 0 .563-1.34l.002-.012.017-.139.012-.152.004-.14zM41.968 1.999h-4v2h4zM41.745 44h-4v2h4zM35.968 1.999h-4v2h4zM35.745 44h-4v2h4zM29.968 1.999h-4v2h4zM29.745 44h-4v2h4zM23.968 1.999h-4v2h4zM23.745 44h-4v2h4zM17.968 1.999h-4v2h4zM17.745 44h-4v2h4zM11.968 1.999h-4v2h4zM11.745 44h-4v2h4zM6.142 3.983l-.348-1.97c-.109.018-.479-.065-1.105.001h-.01l-.123.016-.012.002A3.01 3.01 0 0 0 2.06 4.395q-.046.215-.057.442l1.998.101a.9.9 0 0 1 .059-.283 1 1 0 0 1 .058-.133 1.02 1.02 0 0 1 .727-.512l.055-.008h.006c.154-.014.574.098 1.236-.02M5.745 44h-.734l-.064-.002-.051-.004-.057-.008a1 1 0 0 1-.273-.084V43.9a1 1 0 0 1-.553-.743l-.002-.006-.006-.048-.004-.051L4 42.986v-.1H2v.126l.004.14.012.153.017.138.002.012a2.97 2.97 0 0 0 1.168 1.947h.002a3 3 0 0 0 .903.463 3 3 0 0 0 .437.1l.012.002.137.018.152.011.14.004h.76zM4 6.887H2v4h2zm0 6H2v4h2zm0 6H2v4h2zm0 6H2v4h2zm0 6H2v4h2zm0 6H2v4h2z"/></svg>