<svg xmlns="http://www.w3.org/2000/svg" xml:space="preserve" width="48" height="48" fill="currentColor"><path d="M5 2C3.355 2 2 3.355 2 5v38.002c0 1.645 1.355 3 3 3h38.002c1.645 0 3-1.355 3-3V5c0-1.645-1.355-3-3-3zm0 2h38.002c.564 0 1 .436 1 1v38.002c0 .564-.436 1-1 1H5c-.565 0-1-.436-1-1V5c0-.564.435-1 1-1"/><path d="M4 31h40M4.001 30v2h40v-2zM4 17h40M4.001 16v2h40v-2zM17 4v12m-.999-12v12h2V4ZM17 32v12m-.999-12v12h2V32zM31 32v12m-.999-12v12h2V32zM31 4v12m-.999-12v12h2V4ZM24 18v12m-.999-12v12h2V18Z"/><path d="m10 18-.018 12m-.981-12.002-.018 12 2 .004.018-12zM38.006 18v12m-.999-12v12h2V18Z"/></svg>