<svg xmlns="http://www.w3.org/2000/svg" xml:space="preserve" width="48" height="48" fill="currentColor" viewBox="0 0 48 48"><path fill="none" stroke="currentColor" stroke-dashoffset="2" stroke-linecap="round" stroke-linejoin="round" stroke-width="2" d="M34.999 9.001v30h-22v-30z"/><path stroke="currentColor" stroke-dashoffset="2" d="M31.504 34.495v1.01h-15.01v-1.01z"/><path fill="none" stroke="currentColor" stroke-dashoffset="2" stroke-width="1.778" d="M31.112 19.999a7.11 7.11 0 0 1-7.111 7.112 7.11 7.11 0 0 1-7.111-7.112 7.11 7.11 0 0 1 7.11-7.11 7.11 7.11 0 0 1 7.112 7.11z"/><path d="M25 20a1 1 0 0 1-1 1 1 1 0 0 1-1-1 1 1 0 0 1 1-1 1 1 0 0 1 1 1"/></svg>