<svg xmlns="http://www.w3.org/2000/svg" xml:space="preserve" width="48" height="48" fill="currentColor"><path d="M36 9a1 1 0 0 0-1-1H13a1 1 0 0 0-1 1v30a1 1 0 0 0 1 1h22a1 1 0 0 0 1-1zm-2 1v28H14V10Z"/><path d="M31.506 32.496v1.009h-15.01v-1.01z"/><path d="M32.005 31.996h-16.01v2.01h16.01zm-1 1v.01h-14.01v-.01zM24 12c-4.408 0-8 3.592-8 8s3.592 8 8 8 8-3.593 8-8c0-4.408-3.592-8-8-8m0 1.779a6.21 6.21 0 0 1 6.223 6.22A6.21 6.21 0 0 1 24 26.222a6.21 6.21 0 0 1-6.223-6.223A6.21 6.21 0 0 1 24 13.78"/><path d="M25 20a1 1 0 0 1-1 1 1 1 0 0 1-1-1 1 1 0 0 1 1-1 1 1 0 0 1 1 1"/></svg>