<svg xmlns="http://www.w3.org/2000/svg" xml:space="preserve" width="48" height="48" fill="currentColor"><path d="M11 11.956A1.044 1.044 0 0 0 9.955 13v16.987A1.044 1.044 0 0 0 11 31.03h26a1.044 1.044 0 0 0 1.045-1.045V12.999A1.044 1.044 0 0 0 37 11.956zm1.043 2.088h23.912v14.899H12.043z"/><path d="M9.315 31.037a1 1 0 0 0-1.264.636l-1 3.028a1 1 0 0 0 .95 1.312l32-.027a1 1 0 0 0 .948-1.315l-1-3a1 1 0 0 0-1.265-.633 1 1 0 0 0-.633 1.264l.562 1.686-29.228.023.564-1.71a1 1 0 0 0-.634-1.264"/><path d="M20 32a.5.5 0 0 0-.5.5.5.5 0 0 0 .5.5h8a.5.5 0 0 0 .5-.5.5.5 0 0 0-.5-.5z"/></svg>