<svg xmlns="http://www.w3.org/2000/svg" xml:space="preserve" width="48" height="48" fill="currentColor"><path d="M5 1.999c-1.644 0-3 1.355-3 3V43c0 1.645 1.356 3 3 3h38.003c1.645 0 3-1.355 3-3V4.999c0-1.645-1.355-3-3-3zm0 2h38.003c.564 0 1 .436 1 1V43c0 .564-.436 1-1 1H5c-.564 0-1-.436-1-1V4.999c0-.564.436-1 1-1"/><path d="M26.98 10.98A2.98 2.98 0 0 1 24 13.963a2.98 2.98 0 0 1-2.98-2.981A2.98 2.98 0 0 1 24 8a2.98 2.98 0 0 1 2.98 2.98"/><path d="M24 12v22m0-23a1 1 0 0 0-1 1v22a1 1 0 0 0 1 1 1 1 0 0 0 1-1V12a1 1 0 0 0-1-1"/><path d="m24.006 39.986 2.997-5.974-6 .002zM24 19l11.65 11.599M24.705 18.292l-1.41 1.416 11.648 11.6 1.412-1.419z"/><path d="m37.05 32-2.1-6.344-4.243 4.242zM24 19 12.501 30.599M23.29 18.296l-11.5 11.6 1.42 1.407 11.5-11.6z"/><path d="m11.1 32 6.344-2.102-4.243-4.242z"/></svg>