<svg xmlns="http://www.w3.org/2000/svg" xml:space="preserve" width="48" height="48" fill="currentColor" viewBox="0 0 48 48"><path fill="none" stroke="currentColor" stroke-width="2" d="M5 2.999h38.002a2 2 0 0 1 2 2v38.004a2 2 0 0 1-2 2H5a2 2 0 0 1-2-2V4.999a2 2 0 0 1 2-2z"/><path d="M26.98 10.981A2.98 2.98 0 0 1 24 13.962a2.98 2.98 0 0 1-2.98-2.98A2.98 2.98 0 0 1 24 8a2.98 2.98 0 0 1 2.98 2.981"/><path d="M24 12v22m0-22.999a1 1 0 0 0-1 1v22a1 1 0 0 0 1 1 1 1 0 0 0 1-1v-22a1 1 0 0 0-1-1" overflow="visible" stop-color="currentColor"/><path d="m24.006 39.986 2.997-5.973-6 .002z"/><path d="m24 19 11.65 11.6M24.704 18.293l-1.41 1.415 11.65 11.6 1.411-1.418z" overflow="visible" stop-color="currentColor"/><path d="m37.05 32-2.1-6.344-4.244 4.243z"/><path d="M24 19 12.501 30.6m10.79-12.304-11.5 11.6 1.42 1.408 11.5-11.6z" overflow="visible" stop-color="currentColor"/><path d="m11.1 32 6.344-2.101-4.243-4.243z"/></svg>