<svg xmlns="http://www.w3.org/2000/svg" xml:space="preserve" width="48" height="48" fill="currentColor"><path d="M10 15.952a1.08 1.08 0 0 0-1.08 1.078V31A1.08 1.08 0 0 0 10 32.08h28A1.08 1.08 0 0 0 39.078 31V17.03A1.08 1.08 0 0 0 38 15.952zm1.078 2.158H36.92v11.81H11.078z"/><path d="M12.483 19.483h23.034v9.034H12.483z"/><path d="M12.001 19v10h24V19zm.964.965h22.069v8.068H12.965zM19 32.97v3h2v-3zm-4 0v3h2v-3zm8 0v3h2v-3zm4 0v3h2v-3zm4 0v3h2v-3zm4 0v3h2v-3zm-24 0v3h2v-3zm8-20.91v3h2v-3zm-4 0v3h2v-3zm8 0v3h2v-3zm4 0v3h2v-3zm4 0v3h2v-3zm4 0v3h2v-3zm-24 0v3h2v-3z"/></svg>