<svg xmlns="http://www.w3.org/2000/svg" xml:space="preserve" width="48" height="48" fill="currentColor"><path d="m12.805 11.836-1.967.36.178.982L15.166 36h17.668l4.15-22.822.178-.982-1.967-.36-.18.985L31.167 34H16.834l-3.85-21.18z"/><path d="M20.5 17a1.5 1.5 0 0 1-1.5 1.5 1.5 1.5 0 0 1-1.5-1.5 1.5 1.5 0 0 1 1.5-1.5 1.5 1.5 0 0 1 1.5 1.5"/><path d="M19 14c-1.64 0-3 1.36-3 3s1.36 3 3 3 3-1.36 3-3-1.36-3-3-3m9.252 3.88 2.117 2.116-2.126 2.126-2.117-2.117z"/><path d="M28.253 15.753 24 20.006l4.243 4.243 4.253-4.253zm-3.639 15.524-5.07-3.169 4.911-2.217z"/><path d="m25.17 24.748-7.205 3.254 7.437 4.648zm-1.428 2.285.084 2.871-2.701-1.69z"/></svg>