<svg xmlns="http://www.w3.org/2000/svg" xml:space="preserve" width="48" height="48" fill="currentColor" viewBox="0 0 48 48"><path fill="none" stroke="currentColor" stroke-width="2" d="M5 19h38a2 2 0 0 1 2 2v6a2 2 0 0 1-2 2H5a2 2 0 0 1-2-2v-6a2 2 0 0 1 2-2z"/><path d="M12 24a2 2 0 0 1-2 2 2 2 0 0 1-2-2 2 2 0 0 1 2-2 2 2 0 0 1 2 2"/><path stroke="currentColor" stroke-dashoffset="2" stroke-linecap="square" stroke-linejoin="round" stroke-width="2" d="M41.01 24.003a1 1 0 0 1-1 1 1 1 0 0 1-1-1 1 1 0 0 1 1-1 1 1 0 0 1 1 1z"/><path stroke="currentColor" stroke-dashoffset="2" stroke-linecap="square" stroke-width="2" d="M23 23.005v1.99h-2v-1.99z"/><path stroke="currentColor" stroke-dashoffset="2" stroke-linecap="square" stroke-width=".909" d="M32.822 25.546h-3.633l1.815-2.726z"/></svg>