<svg xmlns="http://www.w3.org/2000/svg" xml:space="preserve" width="48" height="48" fill="currentColor"><path d="M5 18c-1.645 0-3 1.356-3 3v6c0 1.646 1.355 3 3 3h38c1.645 0 3-1.354 3-3v-6c0-1.644-1.355-3-3-3zm0 2h38c.565 0 1 .437 1 1v6c0 .565-.435 1-1 1H5c-.564 0-1-.435-1-1v-6c0-.563.436-1 1-1"/><path d="M12 24a2 2 0 0 1-2 2 2 2 0 0 1-2-2 2 2 0 0 1 2-2 2 2 0 0 1 2 2m29.01.002a1 1 0 0 1-1 1 1 1 0 0 1-1-1 1 1 0 0 1 1-1 1 1 0 0 1 1 1"/><path d="M40.009 22.003c-1.092 0-2 .907-2 2s.908 2 2 2 2-.907 2-2-.907-2-2-2m-17.008 1.001v1.99h-2v-1.99z"/><path d="M24.001 22.004h-4v3.99h4zm8.82 3.542h-3.633l1.815-2.727z"/><path d="m31.004 22.001-2.665 4h5.33zm0 1.639.968 1.45h-1.935z"/></svg>