<svg xmlns="http://www.w3.org/2000/svg" xml:space="preserve" width="48" height="48" fill="currentColor" viewBox="0 0 48 48"><path fill="none" stroke="currentColor" stroke-dashoffset="2" stroke-linejoin="round" stroke-width="2" d="M10 13h28m0 22H10m28 0a3 11 0 0 1-3-11 3 11 0 0 1 3-11 3 11 0 0 1 3 11 3 11 0 0 1-3 11z"/><path fill="none" stroke="currentColor" stroke-dashoffset="2" stroke-linejoin="round" stroke-width="1.5" d="M21.115 35c-1.657 0-3-4.925-3-11s1.343-11 3-11M15.57 35c-1.658 0-3-4.925-3-11s1.342-11 3-11m11.09 22c-1.657 0-3-4.925-3-11s1.343-11 3-11m5.545 22c-1.656 0-3-4.925-3-11s1.344-11 3-11"/><path fill="none" stroke="currentColor" stroke-dashoffset="2" stroke-linejoin="round" stroke-width="2" d="M10 35c-1.656 0-3-4.925-3-11s1.344-11 3-11"/></svg>