<svg xmlns="http://www.w3.org/2000/svg" xml:space="preserve" width="48" height="48" fill="currentColor"><path d="M10 12v2h28v-2zm0 22v2h28v-2z"/><path d="M42 24c0-3.11-.337-5.925-.914-8.04-.289-1.058-.63-1.941-1.078-2.637C39.558 12.627 38.91 12 38 12s-1.559.627-2.008 1.323-.79 1.579-1.078 2.636C34.337 18.075 34 20.89 34 24s.337 5.926.914 8.041c.288 1.058.63 1.941 1.078 2.637S37.09 36 38 36s1.559-.626 2.008-1.322.79-1.579 1.078-2.637c.577-2.115.914-4.93.914-8.04m-2 0c0 2.964-.335 5.65-.844 7.516-.254.933-.559 1.661-.828 2.078S37.918 34 38 34s-.06.011-.328-.406c-.27-.417-.574-1.145-.828-2.078C36.334 29.65 36 26.964 36 24c0-2.963.335-5.65.844-7.515.254-.933.559-1.661.828-2.078.269-.418.41-.407.328-.407s.059-.01.328.407c.27.417.574 1.145.828 2.078.51 1.866.844 4.552.844 7.515M21.113 12.25c-.786 0-1.37.546-1.797 1.207-.426.662-.762 1.525-1.047 2.567-.568 2.084-.906 4.884-.906 7.976 0 3.093.338 5.891.906 7.975.285 1.042.621 1.905 1.047 2.566.427.662 1.011 1.21 1.797 1.21v-1.5c-.042 0-.245-.07-.537-.522-.291-.452-.6-1.2-.86-2.149-.517-1.897-.853-4.597-.853-7.58s.336-5.684.854-7.582c.258-.948.568-1.694.86-2.146.29-.452.494-.522.536-.522zm-5.545 0c-.785 0-1.372.546-1.799 1.207-.426.662-.76 1.525-1.044 2.567-.569 2.084-.907 4.884-.907 7.976 0 3.093.338 5.891.907 7.975.284 1.042.618 1.905 1.044 2.566.427.662 1.014 1.21 1.8 1.21v-1.5c-.043 0-.246-.07-.538-.522-.291-.452-.602-1.2-.861-2.149-.518-1.897-.852-4.597-.852-7.58s.334-5.684.852-7.582c.259-.948.57-1.694.861-2.146s.495-.522.537-.522zm11.092 0c-.786 0-1.372.546-1.799 1.207-.426.662-.762 1.525-1.047 2.567-.568 2.084-.904 4.884-.904 7.976 0 3.093.336 5.891.904 7.975.285 1.042.62 1.905 1.047 2.566.427.662 1.013 1.21 1.8 1.21v-1.5c-.043 0-.248-.07-.54-.522-.291-.452-.6-1.2-.86-2.149-.517-1.897-.85-4.597-.85-7.58s.333-5.684.85-7.582c.26-.948.569-1.694.86-2.146s.496-.522.54-.522zm5.545 0c-.786 0-1.372.546-1.799 1.207-.426.662-.763 1.525-1.047 2.567-.568 2.084-.904 4.884-.904 7.976 0 3.093.336 5.891.904 7.975.284 1.042.62 1.905 1.047 2.566.427.662 1.013 1.21 1.799 1.21v-1.5c-.043 0-.246-.07-.537-.522s-.603-1.2-.861-2.149c-.518-1.897-.852-4.597-.852-7.58s.334-5.684.852-7.582c.258-.948.57-1.694.86-2.146.292-.452.495-.522.538-.522zM10 12c-.91 0-1.559.627-2.008 1.323s-.79 1.579-1.078 2.636C6.337 18.075 6 20.89 6 24s.337 5.926.914 8.041c.288 1.058.63 1.941 1.078 2.637S9.09 36 10 36v-2c.081 0-.06.011-.328-.406-.27-.417-.574-1.147-.828-2.08C8.334 29.648 8 26.964 8 24c0-2.963.335-5.65.844-7.515.254-.933.559-1.661.828-2.078.269-.418.41-.407.328-.407z"/></svg>