<svg xmlns="http://www.w3.org/2000/svg" xml:space="preserve" width="48" height="48" fill="currentColor"><path d="M20.945 10a1 1 0 0 1-1 1 1 1 0 0 1-1-1 1 1 0 0 1 1-1 1 1 0 0 1 1 1m0 5a1 1 0 0 1-1 1 1 1 0 0 1-1-1 1 1 0 0 1 1-1 1 1 0 0 1 1 1m0 5a1 1 0 0 1-1 1 1 1 0 0 1-1-1 1 1 0 0 1 1-1 1 1 0 0 1 1 1m0 5a1 1 0 0 1-1 1 1 1 0 0 1-1-1 1 1 0 0 1 1-1 1 1 0 0 1 1 1m.013 5.013a1.013 1.013 0 0 1-1.013 1.014 1.013 1.013 0 0 1-1.014-1.014A1.013 1.013 0 0 1 19.945 29a1.013 1.013 0 0 1 1.013 1.013"/><path d="M16 6a1 1 0 0 0-1 1v31.001a1 1 0 0 0 1 1h16a1 1 0 0 0 1-1v-31a1 1 0 0 0-1-1zm1 2h14v29.001H17z"/><path d="M17 12v1h14v-1zm0 5v1h14v-1zm0 5v1h14v-1zm0 5v1h14v-1zm0 5.001v1h14v-1zm-1 8a1 1 0 0 0-1 1 1 1 0 0 0 1 1h16a1 1 0 0 0 1-1 1 1 0 0 0-1-1zm4.958-4.961a1.013 1.013 0 0 1-1.013 1.014 1.013 1.013 0 0 1-1.014-1.014 1.013 1.013 0 0 1 1.014-1.013 1.013 1.013 0 0 1 1.013 1.013"/></svg>