<svg xmlns="http://www.w3.org/2000/svg" xml:space="preserve" width="48" height="48" fill="currentColor" viewBox="0 0 48 48"><path d="M20.944 10a1 1 0 0 1-1 1 1 1 0 0 1-1-1 1 1 0 0 1 1-1 1 1 0 0 1 1 1m0 5a1 1 0 0 1-1 1 1 1 0 0 1-1-1 1 1 0 0 1 1-1 1 1 0 0 1 1 1m0 5a1 1 0 0 1-1 1 1 1 0 0 1-1-1 1 1 0 0 1 1-1 1 1 0 0 1 1 1m0 5a1 1 0 0 1-1 1 1 1 0 0 1-1-1 1 1 0 0 1 1-1 1 1 0 0 1 1 1m.014 5.014a1.013 1.013 0 0 1-1.014 1.013 1.013 1.013 0 0 1-1.013-1.013A1.013 1.013 0 0 1 19.944 29a1.013 1.013 0 0 1 1.014 1.014"/><path fill="none" stroke="currentColor" stroke-dashoffset="2" stroke-linejoin="round" stroke-width="2" d="M16 7v31h16V7z"/><path fill="none" stroke="currentColor" stroke-dashoffset="2" stroke-linejoin="round" d="M17 12.5h14m-14 5h14m-14 5h14m-14 5h14m-14 5h14"/><path fill="none" stroke="currentColor" stroke-dashoffset="2" stroke-linecap="round" stroke-linejoin="round" stroke-width="2" d="M16 41h16"/><path d="M20.958 35.04a1.013 1.013 0 0 1-1.014 1.014 1.013 1.013 0 0 1-1.013-1.013 1.013 1.013 0 0 1 1.013-1.014 1.013 1.013 0 0 1 1.014 1.014"/></svg>