<svg xmlns="http://www.w3.org/2000/svg" xml:space="preserve" width="48" height="48" fill="currentColor"><path d="m22.144 2.078.168 1.992a20 20 0 0 1 3.805.041l.211-1.988a22 22 0 0 0-4.184-.045m-2.076.272a22 22 0 0 0-4.029 1.134l.727 1.866a20 20 0 0 1 3.658-1.032zm8.328.09L28 4.4c1.244.252 2.465.624 3.637 1.11l.763-1.848a22 22 0 0 0-4.004-1.223m-14.27 1.896a22 22 0 0 0-3.542 2.226l1.22 1.584a20 20 0 0 1 3.22-2.023Zm20.169.217-.936 1.767a20 20 0 0 1 3.176 2.094l1.254-1.557a22 22 0 0 0-3.494-2.304M8.988 7.918a22 22 0 0 0-2.775 3.13l1.617 1.18a20 20 0 0 1 2.522-2.847zm30.367.328L37.96 9.678c.91.886 1.736 1.86 2.46 2.902l1.643-1.144a22 22 0 0 0-2.707-3.19M5.062 12.8a22 22 0 0 0-1.78 3.787l1.882.674a20 20 0 0 1 1.617-3.442zm38.114.41-1.742.982a20 20 0 0 1 1.543 3.475l1.898-.63a22 22 0 0 0-1.7-3.827M2.671 18.59a22 22 0 0 0-.635 4.138l1.996.113c.072-1.268.265-2.53.576-3.76zm42.77.462-1.95.449a20 20 0 0 1 .494 3.771l2-.07a22 22 0 0 0-.545-4.15M4.013 24.746l-1.998.072a22 22 0 0 0 .546 4.149l1.95-.45a20 20 0 0 1-.498-3.77m39.953.399a20 20 0 0 1-.573 3.757l1.94.49a22 22 0 0 0 .63-4.136zM5.029 30.35l-1.896.632a22 22 0 0 0 1.7 3.825l1.741-.985A20 20 0 0 1 5.03 30.35m37.813.375a20 20 0 0 1-1.615 3.443l1.72 1.018a22 22 0 0 0 1.778-3.79zM7.59 35.435l-1.64 1.143a22 22 0 0 0 2.708 3.19l1.395-1.434a20 20 0 0 1-2.463-2.898m32.59.323a20 20 0 0 1-2.52 2.85l1.365 1.462a22 22 0 0 0 2.772-3.134zm-28.702 3.838-1.253 1.558a22 22 0 0 0 3.496 2.301l.935-1.767a20 20 0 0 1-3.178-2.092m24.73.246a20 20 0 0 1-3.218 2.027l.9 1.787a22 22 0 0 0 3.542-2.23zm-19.83 2.654-.763 1.85c1.292.533 2.636.942 4.006 1.218l.395-1.96a20 20 0 0 1-3.637-1.108m14.874.149c-1.182.46-2.41.807-3.658 1.033l.355 1.968a22 22 0 0 0 4.03-1.138zm-9.354 1.246-.207 1.99c1.39.145 2.79.159 4.182.04l-.168-1.993a20 20 0 0 1-3.807-.037M23 11.973V36h2V11.973ZM6 23v2h9.027v-2zm26.973 0v2H42v-2zM27 24l5.972 3v-6zm-6 0-5.972-3v6zm3-18-3 5.972h6zm0 36 3-5.972h-6z"/></svg>