<svg xmlns="http://www.w3.org/2000/svg" xml:space="preserve" width="48" height="48" fill="currentColor" viewBox="0 0 48 48"><path fill="none" stroke="currentColor" stroke-dasharray="4,2" stroke-dashoffset="4.8" stroke-linejoin="round" stroke-width="2" d="M45 24a21 21 0 0 1-21 21A21 21 0 0 1 3 24 21 21 0 0 1 24 3a21 21 0 0 1 21 21z"/><path fill="none" stroke="currentColor" stroke-linejoin="round" stroke-width="2" d="M24 11.973V36M6 24h9.029M42 24h-9.027"/><path d="m27 24 5.973 3v-6zm-6 0-5.971-3v6zm3-18-3 5.973h6zm0 36 3-5.972h-6z"/></svg>