<svg xmlns="http://www.w3.org/2000/svg" xml:space="preserve" width="48" height="48" fill="currentColor"><path d="M5 4C3.356 4 2 5.357 2 7v6c0 1.646 1.355 3 3 3h38c1.646 0 3-1.354 3-3V7c0-1.644-1.354-3-3-3zm0 2h38c.565 0 1 .437 1 1v6c0 .565-.435 1-1 1H5c-.564 0-1-.435-1-1V7c0-.563.436-1 1-1"/><path d="M12 10a2 2 0 0 1-2 2 2 2 0 0 1-2-2 2 2 0 0 1 2-2 2 2 0 0 1 2 2M5 32c-1.645 0-3 1.356-3 3v6c0 1.646 1.355 3 3 3h38c1.646 0 3-1.354 3-3v-6c0-1.644-1.354-3-3-3zm0 2h38c.565 0 1 .437 1 1v6c0 .565-.435 1-1 1H5c-.564 0-1-.435-1-1v-6c0-.563.436-1 1-1"/><path d="M12 38a2 2 0 0 1-2 2 2 2 0 0 1-2-2 2 2 0 0 1 2-2 2 2 0 0 1 2 2M5 18c-1.644 0-3 1.356-3 3v6c0 1.646 1.356 3 3 3h38c1.646 0 3-1.354 3-3v-6c0-1.644-1.354-3-3-3zm0 2h38c.565 0 1 .437 1 1v6c0 .565-.435 1-1 1H5c-.564 0-1-.435-1-1v-6c0-.563.436-1 1-1"/><path d="M12 24a2 2 0 0 1-2 2 2 2 0 0 1-2-2 2 2 0 0 1 2-2 2 2 0 0 1 2 2m-1-8v2h2v-2zm12 0v2h2v-2zm12 0v2h2v-2zm0 14v2h2v-2zm-12 0v2h2v-2zm-12 0v2h2v-2z"/></svg>