<svg xmlns="http://www.w3.org/2000/svg" xml:space="preserve" width="48" height="48" fill="currentColor" viewBox="0 0 48 48"><path fill="none" stroke="currentColor" stroke-width="2" d="M5 19h38a2 2 0 0 1 2 2v6a2 2 0 0 1-2 2H5a2 2 0 0 1-2-2v-6a2 2 0 0 1 2-2z"/><path d="M10 24a1 1 0 0 1-1 1 1 1 0 0 1-1-1 1 1 0 0 1 1-1 1 1 0 0 1 1 1"/><path stroke="currentColor" stroke-dashoffset="2" stroke-linecap="round" d="M41.5 21.5h-5"/><path stroke="currentColor" stroke-dashoffset="2" stroke-linecap="round" stroke-width="1.852" d="M41.144 24h-4.287"/><path stroke="currentColor" stroke-dashoffset="2" stroke-linecap="round" d="M33.5 21.5h-5"/><path stroke="currentColor" stroke-dashoffset="2" stroke-linecap="round" stroke-width="1.852" d="M33.144 24h-4.287"/><path stroke="currentColor" stroke-dashoffset="2" stroke-linecap="round" d="M25.5 21.5h-5"/><path stroke="currentColor" stroke-dashoffset="2" stroke-linecap="round" stroke-width="1.852" d="M25.144 24h-4.287"/><path stroke="currentColor" stroke-dashoffset="2" stroke-linecap="round" d="M25.5 26.5h-5m13 0h-5m13 0h-5"/></svg>