<svg xmlns="http://www.w3.org/2000/svg" xml:space="preserve" width="48" height="48" fill="currentColor" viewBox="0 0 48 48"><path fill="none" stroke="currentColor" stroke-width="2" d="M5 19h38a2 2 0 0 1 2 2v6a2 2 0 0 1-2 2H5a2 2 0 0 1-2-2v-6a2 2 0 0 1 2-2z"/><path d="M12 24a2 2 0 0 1-2 2 2 2 0 0 1-2-2 2 2 0 0 1 2-2 2 2 0 0 1 2 2"/><path stroke="currentColor" stroke-dashoffset="2" stroke-linecap="round" stroke-width="2" d="M37 26.001v-4m4 4v-4m-8 4v-4m-4 4v-4M25 26v-4m-4 4.001v-4m-4 4v-4"/></svg>