<svg xmlns="http://www.w3.org/2000/svg" xml:space="preserve" width="48" height="48" fill="currentColor"><path d="M5 18c-1.644 0-3 1.356-3 3v6c0 1.646 1.356 3 3 3h38c1.646 0 3-1.354 3-3v-6c0-1.644-1.354-3-3-3zm0 2h38c.565 0 1 .437 1 1v6c0 .565-.435 1-1 1H5c-.564 0-1-.435-1-1v-6c0-.563.436-1 1-1"/><path d="M12 24a2 2 0 0 1-2 2 2 2 0 0 1-2-2 2 2 0 0 1 2-2 2 2 0 0 1 2 2m25 2.001V22m0-.999a1 1 0 0 0-1 1v4a1 1 0 0 0 1 1 1 1 0 0 0 1-1v-4a1 1 0 0 0-1-1m4 5V22m0-.999a1 1 0 0 0-1 1v4a1 1 0 0 0 1 1 1 1 0 0 0 1-1v-4a1 1 0 0 0-1-1m-8 5V22m0-.999a1 1 0 0 0-1 1v4a1 1 0 0 0 1 1 1 1 0 0 0 1-1v-4a1 1 0 0 0-1-1m-4 5V22m0-.999a1 1 0 0 0-1 1v4a1 1 0 0 0 1 1 1 1 0 0 0 1-1v-4a1 1 0 0 0-1-1M25 26v-4m0-1.001a1 1 0 0 0-1 1v4.002a1 1 0 0 0 1 1 1 1 0 0 0 1-1v-4.002a1 1 0 0 0-1-1m-4 5.002V22m0-.999a1 1 0 0 0-1 1v4a1 1 0 0 0 1 1 1 1 0 0 0 1-1v-4a1 1 0 0 0-1-1m-4 5V22m0-.999a1 1 0 0 0-1 1v4a1 1 0 0 0 1 1 1 1 0 0 0 1-1v-4a1 1 0 0 0-1-1"/></svg>