<svg xmlns="http://www.w3.org/2000/svg" xml:space="preserve" width="48" height="48" fill="currentColor" viewBox="0 0 48 48"><path fill="none" stroke="currentColor" stroke-width="2" d="M4.999 2.999h38.002a2 2 0 0 1 2 2v38.004a2 2 0 0 1-2 2H4.999a2 2 0 0 1-2-2V4.999a2 2 0 0 1 2-2z"/><path fill="none" stroke="currentColor" stroke-linejoin="round" stroke-width="2" d="M22.034 37h-8.062"/><path d="m8 37 5.972 3v-6z"/><path fill="none" stroke="currentColor" stroke-linejoin="round" stroke-width="2" d="M26 19h-8.06"/><path d="m11.967 19 5.973 3v-6z"/><path fill="none" stroke="currentColor" stroke-linejoin="round" stroke-width="2" d="M25.94 11H34"/><path d="M39.972 11 34 8v6z"/><path fill="none" stroke="currentColor" stroke-linejoin="round" stroke-width="2" d="M21.939 29H30"/><path d="M35.972 29 30 26v6z"/></svg>