<svg xmlns="http://www.w3.org/2000/svg" xml:space="preserve" width="48" height="48" fill="currentColor"><path d="M27.967 23v2h8.06v-2zM42 24l-5.972-3v6zm-30.027-1v2h8.06v-2zM6 24l5.972 3v-6zm17 3.967v8.06h2v-8.06zM24 42l3-5.972h-6zm-1-30.027v8.06h2v-8.06zM24 6l-3 5.972h6zm-7.07 9.516-1.414 1.414 5.699 5.7 1.416-1.415z"/><path d="m12 12 2.102 6.344 4.242-4.242zm19.07 3.516-5.699 5.699 1.414 1.414 5.7-5.7z"/><path d="m36 12-6.344 2.102 4.242 4.242zM21.215 25.371l-5.7 5.7 1.415 1.413 5.7-5.699z"/><path d="m12 36 6.344-2.102-4.242-4.242zm14.785-10.63-1.414 1.415 5.7 5.7 1.413-1.415z"/><path d="m36 36-2.102-6.344-4.242 4.242zm-7.805-12A4.196 4.196 0 0 1 24 28.196 4.196 4.196 0 0 1 19.804 24 4.196 4.196 0 0 1 24 19.804 4.196 4.196 0 0 1 28.195 24"/><path d="M24 18.125c-3.225 0-5.875 2.65-5.875 5.875s2.65 5.875 5.875 5.875 5.875-2.65 5.875-5.875-2.651-5.875-5.875-5.875m0 3.357A2.493 2.493 0 0 1 26.517 24 2.493 2.493 0 0 1 24 26.518 2.493 2.493 0 0 1 21.482 24 2.493 2.493 0 0 1 24 21.482M47 4.974l-.004-.129-.012-.152-.017-.137-.002-.013a3 3 0 0 0-.563-1.34h.002a3 3 0 0 0-.496-.518 3 3 0 0 0-.478-.324l-.01-.006-.035-.018-.913 1.782.012.006a1 1 0 0 1 .502.714l.008.057.004.05.002.079zm0 .424h-2v4h2zm0 6h-2v4h2zm0 6h-2v4h2zm0 6h-2v4h2zm0 6h-2v4h2zm0 6h-2v4h2zm0 6h-2v1.59l-.002.066-.004.051-.008.055a.95.95 0 0 1-.185.44 1 1 0 0 1-.32.279q-.003 0-.005.002l-.043.021-.045.022-.029.01.735 1.86.074-.028.133-.06.119-.062.01-.006a3 3 0 0 0 .974-.841h-.002a3 3 0 0 0 .563-1.34l.002-.012.017-.139.012-.152.004-.14zM42.967 2h-4v2h4zm-.223 42.002h-4v2h4zM36.967 2h-4v2h4zm-.223 42.002h-4v2h4zM30.967 2h-4v2h4Zm-.223 42.002h-4v2h4ZM24.967 2h-4v2h4zm-.223 42.002h-4v2h4zM18.967 2h-4v2h4zm-.223 42.002h-4v2h4zM12.967 2h-4v2h4Zm-.223 42.002h-4v2h4ZM7.141 3.984l-.348-1.97c-.109.019-.479-.065-1.105.001h-.01l-.123.016-.012.002a3.01 3.01 0 0 0-2.484 2.363q-.046.215-.057.442L5 4.939a.9.9 0 0 1 .059-.283.99.99 0 0 1 .785-.645l.054-.008h.006c.155-.014.575.098 1.237-.019m-.397 40.018H6.01L5.946 44l-.051-.004-.057-.008a1 1 0 0 1-.273-.084v-.002a1 1 0 0 1-.553-.743l-.002-.006-.006-.048L5 43.054l-.002-.067v-.1h-2v.126l.004.14.012.153.017.139.002.011a2.97 2.97 0 0 0 1.168 1.948h.002a3 3 0 0 0 .903.462 3 3 0 0 0 .437.1l.012.002.137.018.152.011.14.004h.76zM4.998 6.888h-2v4h2zm0 6h-2v4h2zm0 6h-2v4h2zm0 6h-2v4h2zm0 6h-2v4h2zm0 6h-2v4h2z"/></svg>