<svg xmlns="http://www.w3.org/2000/svg" xml:space="preserve" width="48" height="48" fill="currentColor"><path d="M46.003 4.974 46 4.845l-.012-.152-.017-.137-.002-.013a3 3 0 0 0-.563-1.34h.002a3 3 0 0 0-.496-.518 3 3 0 0 0-.478-.324l-.01-.006-.035-.018-.912 1.782.011.006a1 1 0 0 1 .502.715l.008.056.004.051.002.078zm0 .424h-2v4h2zm0 6h-2v4h2zm0 6h-2v4h2zm0 6h-2v4h2zm0 6h-2v4h2zm0 6h-2v4h2zm0 6h-2v1.59l-.002.066-.004.051-.008.055a.95.95 0 0 1-.185.44 1 1 0 0 1-.32.279q-.003 0-.005.002l-.043.021-.045.022-.029.01.735 1.861.074-.03.133-.06.119-.06.01-.006a3 3 0 0 0 .974-.842h-.002a3 3 0 0 0 .563-1.34l.002-.012.017-.138.012-.153.004-.14zM41.97 2h-4v2h4zm-.223 42.002h-4v2h4zM35.97 2h-4v2h4zm-.223 42.002h-4v2h4zM29.97 2h-4v2h4zm-.223 42.002h-4v2h4zM23.97 2h-4v2h4zm-.223 42.002h-4v2h4zM17.97 2h-4v2h4zm-.223 42.002h-4v2h4zM11.97 2h-4v2h4zm-.223 42.002h-4v2h4ZM6.144 3.984l-.348-1.97c-.109.019-.479-.065-1.105.001h-.01l-.123.016-.012.002a3.01 3.01 0 0 0-2.484 2.363q-.046.215-.057.442l1.998.101a.9.9 0 0 1 .059-.283.99.99 0 0 1 .785-.644l.054-.008h.006c.155-.015.575.097 1.237-.02m-.397 40.018h-.734L4.949 44l-.051-.004-.057-.008a1 1 0 0 1-.273-.084v-.002a1 1 0 0 1-.553-.742l-.002-.006-.006-.05-.004-.05-.002-.066v-.1h-2v.125l.004.14.012.153.017.139.002.011a2.97 2.97 0 0 0 1.168 1.948h.002a3 3 0 0 0 .903.463q.215.066.437.1l.012.001.137.018.152.011.14.004h.76zM4.001 6.888h-2v4h2zm0 6h-2v4h2zm0 6h-2v4h2zm0 6h-2v4h2zm0 6h-2v4h2zm0 6h-2v4h2zm9.973-.886v2h8.06v-2zm-5.973.999 5.972 3v-6zm9.939-18.999v2h8.061v-2zm-5.972.999 5.972 3v-6zm13.972-8.999v2h8.061v-2zm14.033.999-5.972-3v6zM21.94 28.002v2h8.061v-2z"/><path d="m35.973 29.001-5.972-3v6z"/></svg>