<svg xmlns="http://www.w3.org/2000/svg" xml:space="preserve" width="48" height="48" fill="currentColor" viewBox="0 0 48 48"><path fill="none" stroke="currentColor" stroke-width="2" d="M5 3h38.002a2 2 0 0 1 2 2v38.004a2 2 0 0 1-2 2H5a2 2 0 0 1-2-2V5a2 2 0 0 1 2-2z"/><path fill="none" stroke="currentColor" stroke-linejoin="round" stroke-width="2" d="M27.967 24h8.06"/><path d="m42 24-5.972-3v6z"/><path fill="none" stroke="currentColor" stroke-linejoin="round" stroke-width="2" d="M20.034 24h-8.062"/><path d="m6 24 5.972 3v-6z"/><path fill="none" stroke="currentColor" stroke-linejoin="round" stroke-width="2" d="M24 27.968v8.06"/><path d="m24 42 3-5.972h-6z"/><path fill="none" stroke="currentColor" stroke-linejoin="round" stroke-width="2" d="M24 20.033v-8.06"/><path d="m24 6-3 5.973h6z"/><path fill="none" stroke="currentColor" stroke-linejoin="round" stroke-width="2" d="m21.923 21.923-5.7-5.7"/><path d="m12 12 2.102 6.345 4.243-4.243z"/><path fill="none" stroke="currentColor" stroke-linejoin="round" stroke-width="2" d="m26.077 21.923 5.7-5.7"/><path d="m36 12-6.344 2.102 4.242 4.243z"/><path fill="none" stroke="currentColor" stroke-linejoin="round" stroke-width="2" d="m21.923 26.078-5.7 5.7"/><path d="m12 36 6.345-2.101-4.243-4.243z"/><path fill="none" stroke="currentColor" stroke-linejoin="round" stroke-width="2" d="m26.077 26.078 5.7 5.7"/><path d="m36 36-2.102-6.344-4.242 4.243z"/><path stroke="currentColor" stroke-width="3.357" d="M28.196 24A4.196 4.196 0 0 1 24 28.196 4.196 4.196 0 0 1 19.804 24 4.196 4.196 0 0 1 24 19.805 4.196 4.196 0 0 1 28.196 24z"/></svg>