<svg xmlns="http://www.w3.org/2000/svg" xml:space="preserve" width="48" height="48" fill="currentColor" viewBox="0 0 48 48"><path fill="none" stroke="currentColor" stroke-linejoin="round" stroke-width="2" d="M27.968 24h8.06"/><path d="m42 24-5.971-3v6z"/><path fill="none" stroke="currentColor" stroke-linejoin="round" stroke-width="2" d="M20.034 24h-8.06"/><path d="m6 24 5.973 3v-6z"/><path fill="none" stroke="currentColor" stroke-linejoin="round" stroke-width="2" d="M24 27.968v8.06"/><path d="m24 42 3-5.972h-6z"/><path fill="none" stroke="currentColor" stroke-linejoin="round" stroke-width="2" d="M24 20.033v-8.06"/><path d="m24 6-3 5.973h6z"/><path fill="none" stroke="currentColor" stroke-linejoin="round" stroke-width="2" d="m21.924 21.923-5.7-5.7"/><path d="m12 12 2.103 6.345 4.242-4.243z"/><path fill="none" stroke="currentColor" stroke-linejoin="round" stroke-width="2" d="m26.078 21.923 5.7-5.7"/><path d="m36 12-6.344 2.102 4.243 4.243z"/><path fill="none" stroke="currentColor" stroke-linejoin="round" stroke-width="2" d="m21.924 26.078-5.7 5.7"/><path d="m12 36 6.345-2.101-4.242-4.243z"/><path fill="none" stroke="currentColor" stroke-linejoin="round" stroke-width="2" d="m26.078 26.078 5.7 5.7"/><path d="m36 36-2.1-6.344-4.244 4.243z"/><path stroke="currentColor" stroke-width="3.357" d="M28.197 24a4.196 4.196 0 0 1-4.196 4.196A4.196 4.196 0 0 1 19.805 24a4.196 4.196 0 0 1 4.196-4.195A4.196 4.196 0 0 1 28.197 24z"/><path fill="none" stroke="currentColor" stroke-dasharray="4,2" stroke-dashoffset="5.6" stroke-width="2" d="M46 4.999v38.002a2 2 0 0 1-2 2H5.996a2 2 0 0 1-2-2V4.999a2 2 0 0 1 2-2H44a2 2 0 0 1 2 2z"/></svg>