<svg xmlns="http://www.w3.org/2000/svg" xml:space="preserve" width="48" height="48" fill="currentColor"><path d="M5 2C3.357 2 2 3.355 2 5v38.002c0 1.645 1.356 3 3 3h38.003c1.645 0 3-1.355 3-3V5c0-1.645-1.355-3-3-3zm0 2h38.003c.564 0 1 .436 1 1v38.002c0 .564-.436 1-1 1H5c-.564 0-1-.436-1-1V5c0-.564.436-1 1-1"/><path d="M27.967 23v2h8.06v-2zM42 24l-5.972-3v6zm-30.027-1v2h8.06v-2zM6 24l5.972 3v-6zm17 3.967v8.06h2v-8.06zM24 42l3-5.972h-6zm-1-30.027v8.06h2v-8.06zM24 6l-3 5.972h6zm-7.07 9.516-1.414 1.414 5.699 5.7 1.414-1.415z"/><path d="m12 12 2.102 6.344 4.242-4.242zm19.07 3.516-5.7 5.699 1.415 1.414 5.7-5.7z"/><path d="m36 12-6.344 2.102 4.242 4.242zM21.215 25.371l-5.7 5.7 1.415 1.413 5.7-5.699z"/><path d="m12 36 6.344-2.102-4.242-4.242zm14.785-10.63-1.414 1.415 5.7 5.7 1.413-1.415z"/><path d="m36 36-2.102-6.344-4.242 4.242zm-7.804-12A4.196 4.196 0 0 1 24 28.196 4.196 4.196 0 0 1 19.804 24 4.196 4.196 0 0 1 24 19.804 4.196 4.196 0 0 1 28.196 24"/><path d="M24 18.125c-3.224 0-5.875 2.65-5.875 5.875s2.65 5.875 5.875 5.875 5.875-2.65 5.875-5.875-2.65-5.875-5.875-5.875m0 3.357A2.493 2.493 0 0 1 26.518 24 2.493 2.493 0 0 1 24 26.518 2.493 2.493 0 0 1 21.482 24 2.493 2.493 0 0 1 24 21.482"/></svg>