<svg xmlns="http://www.w3.org/2000/svg" xml:space="preserve" width="48" height="48" fill="currentColor" viewBox="0 0 48 48"><path fill="none" stroke="currentColor" stroke-dasharray="4,2" stroke-dashoffset="5.6" stroke-width="2" d="M45.004 4.999v38.002a2 2 0 0 1-2 2H5a2 2 0 0 1-2-2V4.999a2 2 0 0 1 2-2h38.004a2 2 0 0 1 2 2z"/><path fill="none" stroke="currentColor" stroke-linejoin="round" stroke-width="2" d="M22.033 37.002h-8.06"/><path d="m8 37.002 5.973 3v-6z"/><path fill="none" stroke="currentColor" stroke-linejoin="round" stroke-width="2" d="M26 19.002h-8.06"/><path d="m11.967 19.002 5.973 3v-6z"/><path fill="none" stroke="currentColor" stroke-linejoin="round" stroke-width="2" d="M25.94 11.002H34"/><path d="m39.973 11.002-5.973-3v6z"/><path fill="none" stroke="currentColor" stroke-linejoin="round" stroke-width="2" d="M21.94 29.002H30"/><path d="m35.973 29.002-5.973-3v6z"/></svg>