<svg xmlns="http://www.w3.org/2000/svg" xml:space="preserve" width="48" height="48" fill="currentColor"><path d="M5 2C3.355 2 2 3.355 2 5v38.002c0 1.645 1.355 3 3 3h38.002c1.645 0 3-1.355 3-3V5c0-1.645-1.355-3-3-3zm0 2h38.002c.564 0 1 .436 1 1v38.002c0 .564-.436 1-1 1H5c-.565 0-1-.436-1-1V5c0-.564.435-1 1-1"/><path d="m16.24 29-3.5-10h2.687l1.428 4.385q.336 1.094.67 2.276.341 1.183.698 2.461h-.718l.67-2.46q.321-1.184.642-2.277L20.191 19h2.66l-3.412 10zm7.61 0V19h3.637l1.313 3.906q.11.363.26.889t.307 1.107q.157.575.294 1.1.137.528.219.883h-.622q.082-.355.212-.882.136-.527.294-1.1l.3-1.108.253-.889 1.3-3.906h3.643v10h-2.413v-4.316c0-.228 0-.513.014-.855q.014-.512.027-1.107.02-.596.034-1.203.02-.609.02-1.149h.288q-.15.567-.322 1.183a668 668 0 0 0-.635 2.297q-.144.492-.253.834L30.557 29h-1.99l-1.49-4.316-.252-.834q-.15-.5-.315-1.087-.164-.595-.342-1.21l-.328-1.183h.328c.01.36.014.743.021 1.149l.027 1.203q.02.594.034 1.107t.014.855V29Z" aria-label="VM" font-family="Inter" font-size="14" font-weight="800" letter-spacing=".4" style="-inkscape-font-specification:&quot;Inter Ultra-Bold&quot;;text-align:center" text-anchor="middle"/></svg>