<svg xmlns="http://www.w3.org/2000/svg" xml:space="preserve" width="48" height="48" fill="currentColor" viewBox="0 0 48 48"><path fill="none" stroke="currentColor" stroke-width="2" d="M4.999 3h38.002a2 2 0 0 1 2 2v38.004a2 2 0 0 1-2 2H4.999a2 2 0 0 1-2-2V5a2 2 0 0 1 2-2z"/><path d="m222.59 284.16-3.5-10h2.687l1.428 4.385q.336 1.094.67 2.277.342 1.182.698 2.46h-.718l.67-2.46q.321-1.183.642-2.277l1.374-4.385h2.66l-3.412 10zm7.61 0v-10h3.637l1.313 3.907q.11.362.26.888t.307 1.108q.157.575.294 1.1t.219.882h-.622q.082-.355.212-.882.136-.525.294-1.1l.3-1.108.253-.888 1.3-3.907h3.643v10h-2.413v-4.316c0-.228 0-.513.014-.854q.014-.513.027-1.108.02-.594.034-1.203.02-.608.02-1.148h.288q-.15.567-.322 1.182a668 668 0 0 0-.635 2.297q-.144.492-.253.834l-1.463 4.316h-1.99l-1.49-4.316-.252-.834q-.15-.5-.315-1.087-.164-.594-.342-1.21l-.328-1.182h.328c.01.36.014.742.021 1.148l.027 1.203q.02.595.034 1.108.014.512.014.854v4.316z" aria-label="VM" font-family="Inter" font-size="14" font-weight="800" letter-spacing=".4" style="-inkscape-font-specification:&quot;Inter Ultra-Bold&quot;;text-align:center" text-anchor="middle" transform="translate(-206.35 -255.16)"/></svg>