<svg xmlns="http://www.w3.org/2000/svg" xml:space="preserve" width="48" height="48" fill="currentColor" viewBox="0 0 48 48"><path stroke="currentColor" stroke-dasharray="4,2" stroke-width="2" d="M7 24h34"/><path fill="none" stroke="currentColor" stroke-width="2" d="M5 3h38.002a2 2 0 0 1 2 2v38.004a2 2 0 0 1-2 2H5a2 2 0 0 1-2-2V5a2 2 0 0 1 2-2z"/><path fill="none" stroke="currentColor" stroke-linejoin="round" stroke-width="2" d="M22 37.003h-8.06"/><path d="m7.967 37.003 5.972 3v-6z"/><path fill="none" stroke="currentColor" stroke-linejoin="round" stroke-width="2" d="M26.03 17h-8.06"/><path d="m11.997 17 5.973 3v-6z"/><path fill="none" stroke="currentColor" stroke-linejoin="round" stroke-width="2" d="M25.94 11H34"/><path d="M39.972 11 34 8v6z"/><path fill="none" stroke="currentColor" stroke-linejoin="round" stroke-width="2" d="M21.97 31h8.06"/><path d="m36.003 31-5.973-3v6z"/></svg>