<svg xmlns="http://www.w3.org/2000/svg" xml:space="preserve" width="48" height="48" fill="currentColor"><path d="M7 24h34M7 23v2h4v-2zm6 0v2h4v-2zm6 0v2h4v-2zm6 0v2h4v-2zm6 0v2h4v-2zm6 0v2h4v-2z"/><path d="M5 2C3.357 2 2 3.355 2 5v38.002c0 1.645 1.356 3 3 3h38.003c1.645 0 3-1.355 3-3V5c0-1.645-1.355-3-3-3zm0 2h38.003c.564 0 1 .436 1 1v38.002c0 .564-.436 1-1 1H5c-.564 0-1-.436-1-1V5c0-.564.436-1 1-1"/><path d="M13.94 36.002v2H22v-2zm-5.973 1 5.972 3v-6zM17.969 16v2h8.062v-2z"/><path d="m11.997 17 5.973 3v-6zm13.943-7v2H34v-2zm14.032 1L34 8v6zM21.969 30v2h8.062v-2z"/><path d="m36.003 31-5.973-3v6z"/></svg>