<svg xmlns="http://www.w3.org/2000/svg" xml:space="preserve" width="48" height="48" fill="currentColor" viewBox="0 0 48 48"><path fill="none" stroke="currentColor" stroke-linecap="square" stroke-linejoin="round" stroke-width="2" d="M45 24.014a21 21 0 0 1-21 21 21 21 0 0 1-21-21 21 21 0 0 1 21-21 21 21 0 0 1 21 21z"/><path fill="none" stroke="currentColor" stroke-dasharray="4,2" stroke-dashoffset="2" stroke-linejoin="round" stroke-width="2" d="M24 11.987v24.055"/><path fill="none" stroke="currentColor" stroke-dasharray="4,2" stroke-linejoin="round" stroke-width="2" d="M6 24.014h9.028m26.972 0h-9.028"/><path d="m27 24.014 5.972 3v-6zm-6 0-5.972-3v6zm3-18-3 5.973h6zm0 36 3-5.972h-6z"/></svg>