<svg xmlns="http://www.w3.org/2000/svg" xml:space="preserve" width="48" height="48" fill="currentColor" viewBox="0 0 48 48"><path fill="none" stroke="currentColor" stroke-width="2" d="M5.003 3.001h38.002a2 2 0 0 1 2 2v38.004a2 2 0 0 1-2 2H5.003a2 2 0 0 1-2-2V5.001a2 2 0 0 1 2-2z"/><path fill="none" stroke="currentColor" stroke-dasharray="4,2" stroke-dashoffset="1.2" stroke-width="2" d="m10.034 7 29.207.001c1.021 0 1.85.773 1.85 1.725v30.503c0 .952-.829 1.725-1.85 1.725l-23.853-.001h-5.354"/><path fill="none" stroke="currentColor" stroke-linejoin="round" stroke-width="2" d="M26.034 35h-8.062"/><path d="m12 35 5.972 3v-6z"/><path fill="none" stroke="currentColor" stroke-linejoin="round" stroke-width="2" d="M28.034 19h-8.062"/><path d="m14 19 5.972 3v-6z"/><path fill="none" stroke="currentColor" stroke-linejoin="round" stroke-width="2" d="M24.03 13h8.061"/><path d="m38.064 13-5.973-3v6z"/><path fill="none" stroke="currentColor" stroke-linejoin="round" stroke-width="2" d="M22 29h8.06"/><path d="m36.034 29-5.973-3v6zm-29-23h3v36H7a.966.966 0 0 1-.966-.966V7a1 1 0 0 1 1-1"/></svg>