<svg xmlns="http://www.w3.org/2000/svg" xml:space="preserve" width="48" height="48" fill="currentColor"><path d="M5.004 2c-1.645 0-3 1.356-3 3v38.003c0 1.645 1.355 3 3 3h38.002c1.645 0 3-1.355 3-3V5c0-1.645-1.355-3-3-3zm0 2h38.002c.564 0 1 .437 1 1v38.003c0 .564-.436 1-1 1H5.004c-.564 0-1-.436-1-1V5c0-.564.436-1 1-1"/><path d="M10.033 6v2h2.801V6Zm4.801 0v2h4V6Zm6 0v2h4V6Zm6 0v2h4V6Zm6 0v2h4V6Zm6 0v2h.395l.06.002.047.004.045.006.045.006.043.01.043.011.04.014.042.014.039.017.037.018.037.02.035.02.033.022.032.024.03.025.028.025.028.026.025.027.023.03.024.027.02.03.017.028.017.032.014.029.014.031.012.031.01.032.008.031.006.033.004.037c.009.076-.085.424.019 1.02l1.97-.342c-.006-.039.062-.34-.001-.902l-.002-.012-.016-.125-.027-.137-.033-.135-.041-.132-.047-.13-.053-.126-.059-.121-.066-.12-.07-.115-.076-.111-.08-.105-.088-.104-.09-.098-.096-.091-.1-.09-.103-.084-.108-.078-.111-.075-.115-.068-.12-.064-.12-.059-.125-.053-.13-.047-.13-.04-.133-.036-.135-.03-.136-.02-.141-.018-.14-.01L39.251 6zm1.256 5.512v4h2v-4zm0 6v4h2v-4zm0 6v4h2v-4zm0 6v4h2v-4zm0 6v3.703l-.002.049-.002.033-.002.025 1.963.375.01-.045.017-.138.012-.143.004-.129v-3.73zm-.606 4.41a1 1 0 0 1-.107.021l-.041.006-.047.002-.06.002h-3.463v2h3.486l.13-.004.141-.01.131-.015.012-.002c.111-.017.235-.038.37-.076zm-27.718.031v2h4v-2h-.377zm6 0v2h4v-2zm6 0v2h4v-2zm6 0v2h4v-2zM17.973 34v2h8.06v-2zM12 35l5.972 3v-6zm7.973-17v2h8.06v-2zM14 19l5.972 3v-6zm10.031-7v2h8.06v-2zm14.032 1-5.972-3v6zM22 28v2h8.06v-2zm14.033 1-5.972-3v6z"/><path d="M7.034 6h3v36H7a.966.966 0 0 1-.966-.966V7a1 1 0 0 1 1-1"/></svg>