<svg xmlns="http://www.w3.org/2000/svg" xml:space="preserve" width="48" height="48" fill="currentColor"><path d="M5 2C3.357 2 2 3.355 2 5v38.002c0 1.645 1.356 3 3 3h38.003c1.645 0 3-1.355 3-3V5c0-1.645-1.355-3-3-3zm0 2h38.003c.564 0 1 .436 1 1v38.002c0 .564-.436 1-1 1H5c-.564 0-1-.436-1-1V5c0-.564.436-1 1-1"/><path d="M8.727 6v2h2.419V6Zm4.146 0v2h3.455V6Zm5.182 0v2h3.454V6Zm5.182 0v2h3.454V6Zm5.181 0v2h3.455V6ZM33.6 6v2h3.455V6Zm5.182 0v2h.53l.037.004.035.005.036.005.035.009.034.01.034.012.033.012.032.015a.72.72 0 0 1 .355.373l.013.032.012.033.009.036.009.034.007.035.005.047c.003.026-.002.137.003.34l2-.048c-.002-.08.013-.252-.015-.511l-.002-.01-.015-.12-.024-.135-.03-.131-.037-.13-.042-.127-.046-.113-.005-.012a2.7 2.7 0 0 0-.678-.956 2.7 2.7 0 0 0-.651-.439l-.01-.006-.111-.05-.124-.048-.128-.044-.128-.036-.133-.03-.135-.025-.137-.017-.136-.01L39.285 6zm-31.637.506-.051.036-.093.074-.009.007a2.7 2.7 0 0 0-.723.92l-.005.012-.05.11-.048.125-.044.126-.037.13-.03.132-.024.135-.017.136-.012.139L6 8.714v1.825h2v-1.8l.003-.05.003-.037.003-.037.007-.036.009-.033.01-.036.01-.034.013-.032.014-.032.002-.003a.7.7 0 0 1 .189-.24l.003-.003.029-.022.01-.007zM40 10.705v3.454h2v-3.454ZM6 12.267v3.454h2v-3.454zm34 3.62v3.454h2v-3.454ZM6 17.448v3.455h2v-3.455zm34 3.62v3.455h2v-3.455ZM6 22.63v3.455h2V22.63Zm34 3.62v3.455h2V26.25ZM6 27.812v3.455h2v-3.455Zm34 3.62v3.455h2v-3.455ZM6 32.994v3.454h2v-3.454Zm34 3.62v2.646l-.002.051-.002.037-.005.037-.007.036-.01.035-.008.034-.012.033-.013.032-.012.03 1.78.912.02-.04.055-.122.05-.125.041-.127.037-.13.03-.131.024-.135.019-.137.01-.138.003-.126v-2.672zM7.98 37.985l-1.963.383c.025.127-.137.64.039 1.462l.002.008.027.116.037.13.044.126.043.113.005.012a2.7 2.7 0 0 0 .679.957 2.7 2.7 0 0 0 .65.438l.012.007.11.049.123.049.128.044.13.035.103.025.449-1.95-.054-.011-.034-.01-.034-.012-.032-.012-.032-.015a.72.72 0 0 1-.356-.373l-.013-.032-.01-.034-.01-.033-.01-.044v-.002c-.027-.126.125-.614-.033-1.425zm31.356 2.013-.025.002h-3.303v2h3.276l.128-.003.137-.01.038-.005zM10.1 40v2h3.454v-2Zm5.182 0v2h3.454v-2Zm5.182 0v2h3.454v-2Zm5.181 0v2H29.1v-2Zm5.182 0v2h3.455v-2Zm-14.825-6v2h8.06v-2z"/><path d="m10.03 35 5.973 3v-6zm7.939-17v2h8.062v-2z"/><path d="m11.997 19 5.973 3v-6zm11.97-7v2h8.06v-2zM38 13l-5.972-3v6zM21.969 28v2h8.062v-2z"/><path d="m36.003 29-5.973-3v6z"/></svg>