<svg xmlns="http://www.w3.org/2000/svg" xml:space="preserve" width="48" height="48" fill="currentColor" viewBox="0 0 48 48"><path fill="none" stroke="currentColor" stroke-width="2" d="M5 3h38.002a2 2 0 0 1 2 2v38.004a2 2 0 0 1-2 2H5a2 2 0 0 1-2-2V5a2 2 0 0 1 2-2z"/><path fill="none" stroke="currentColor" stroke-dasharray="4.0000177512,2.0000088756" stroke-dashoffset=".8" stroke-width="2" d="M8.727 7h30.547A1.727 1.727 0 0 1 41 8.728v30.546A1.727 1.727 0 0 1 39.274 41H8.727A1.727 1.727 0 0 1 7 39.274V8.728A1.727 1.727 0 0 1 8.727 7z"/><path fill="none" stroke="currentColor" stroke-linejoin="round" stroke-width="2" d="M24.064 35h-8.061"/><path d="m10.03 35 5.973 3v-6z"/><path fill="none" stroke="currentColor" stroke-linejoin="round" stroke-width="2" d="M26.03 19h-8.06"/><path d="m11.998 19 5.972 3v-6z"/><path fill="none" stroke="currentColor" stroke-linejoin="round" stroke-width="2" d="M23.967 13h8.06"/><path d="m38 13-5.972-3v6z"/><path fill="none" stroke="currentColor" stroke-linejoin="round" stroke-width="2" d="M21.97 29h8.06"/><path d="m36.003 29-5.973-3v6z"/></svg>